<?xml version="1.0" standalone="no"?>
<!DOCTYPE svg PUBLIC "-//W3C//DTD SVG 20010904//EN"
 "http://www.w3.org/TR/2001/REC-SVG-20010904/DTD/svg10.dtd">
<svg version="1.0" xmlns="http://www.w3.org/2000/svg"
 width="2136.000000pt" height="2266.000000pt" viewBox="0 0 2136.000000 2266.000000"
 preserveAspectRatio="xMidYMid meet">

<g transform="translate(0.000000,2266.000000) scale(0.100000,-0.100000)"
fill="#000000" stroke="none">
<path d="M6956 20149 c-174 -23 -450 -154 -661 -313 -33 -24 -63 -42 -66 -38
-4 4 -16 49 -29 100 -12 51 -26 95 -31 98 -23 14 -288 -194 -404 -317 -63 -67
-201 -236 -236 -289 -9 -14 -20 -22 -24 -18 -4 3 -21 65 -38 137 -18 72 -36
131 -42 131 -20 0 -171 -128 -251 -212 -229 -243 -336 -537 -304 -836 6 -59
12 -108 14 -109 1 -1 14 41 29 95 59 213 163 365 292 428 52 25 74 29 165 32
72 3 123 -1 163 -11 l58 -15 77 77 c87 88 153 125 249 140 104 16 205 -5 332
-69 35 -17 64 -30 65 -28 1 2 8 21 15 43 26 81 86 187 148 265 95 119 174 184
515 430 l118 85 -7 95 c-3 52 -6 96 -7 97 -6 8 -85 9 -140 2z"/>
<path d="M7360 19976 c-332 -141 -598 -358 -798 -649 l-63 -92 148 -7 c161 -7
239 -23 319 -67 l51 -28 188 69 c103 38 189 67 192 65 2 -3 -31 -27 -74 -54
-43 -28 -111 -71 -152 -97 l-74 -48 39 -31 c22 -17 66 -57 99 -88 l60 -56 284
119 c156 65 286 117 288 115 6 -7 -136 -94 -345 -213 -181 -102 -193 -111
-187 -134 36 -161 41 -270 18 -374 l-6 -29 104 7 c57 3 138 9 179 12 58 4 71
2 57 -6 -33 -21 -188 -70 -270 -85 -45 -8 -81 -16 -82 -18 -1 -1 -26 -42 -55
-91 l-53 -89 24 -19 c13 -10 60 -36 104 -58 252 -126 515 -76 782 149 69 59
72 62 62 90 -12 33 -84 105 -124 123 -14 6 -25 14 -25 18 0 4 30 10 68 13 134
12 198 49 269 154 38 57 91 179 107 245 8 37 -16 49 -113 57 l-76 6 59 29
c158 77 339 228 440 366 99 134 207 348 183 362 -34 18 -178 38 -283 38 -220
0 -526 -64 -786 -165 -16 -6 -16 -2 3 52 28 81 49 185 49 244 l0 49 -50 0
c-88 0 -285 -45 -410 -94 -13 -5 -16 5 -16 66 -1 69 -26 156 -50 170 -5 3 -43
-9 -84 -26z"/>
<path d="M4490 18926 c-254 -77 -447 -191 -625 -370 -108 -108 -213 -255 -279
-388 -21 -43 -41 -78 -45 -78 -4 0 -14 19 -21 43 -13 45 -69 163 -94 198 -13
20 -17 17 -87 -73 -197 -254 -320 -499 -360 -719 l-12 -67 -113 -4 c-62 -1
-116 -6 -120 -11 -4 -4 5 -33 20 -65 21 -43 42 -68 88 -102 140 -105 298 -283
394 -447 26 -43 47 -79 49 -81 1 -1 23 10 48 25 30 18 48 37 51 53 3 14 10
122 17 240 7 118 15 224 19 235 4 11 11 -47 15 -130 4 -82 10 -188 13 -234 l7
-84 30 25 c47 40 94 60 140 60 l43 1 4 76 c3 42 3 164 1 271 -4 122 -2 191 4
185 5 -5 22 -116 37 -245 37 -310 32 -290 68 -290 16 0 43 -7 60 -16 l32 -16
30 38 c16 22 75 84 130 139 73 73 120 110 171 137 65 33 135 56 135 44 0 -2
-37 -31 -82 -63 -105 -73 -229 -191 -279 -265 l-39 -57 38 -12 c86 -28 196
-96 300 -187 l62 -55 18 44 c91 236 261 494 457 698 l106 110 -27 18 c-21 13
-47 18 -101 18 -40 0 -73 2 -73 4 0 2 41 118 90 259 50 140 90 257 90 258 0 2
-16 6 -35 10 -35 6 -35 7 -35 59 0 70 -22 183 -55 281 -15 43 -28 80 -30 82
-2 2 -12 -1 -23 -7 -35 -19 -95 -112 -129 -200 -38 -100 -38 -97 -17 81 24
202 21 600 -4 597 -4 0 -41 -11 -82 -23z"/>
<path d="M4976 17943 c-14 -55 -85 -282 -103 -330 -3 -7 11 -19 31 -27 54 -22
164 -97 223 -150 59 -53 132 -156 140 -198 3 -16 10 -31 14 -34 5 -3 49 16 96
43 91 50 166 82 195 83 18 0 23 12 33 76 6 37 3 44 -25 67 -26 23 -53 31 -120
40 -8 1 2 13 25 27 80 49 155 136 155 178 0 17 -133 37 -240 36 -58 -1 -134
-9 -170 -17 -77 -19 -64 -30 -152 128 -90 163 -83 157 -102 78z"/>
<path d="M8017 17914 c-62 -22 -259 -45 -449 -51 l-178 -6 0 -56 c0 -77 -17
-173 -44 -253 l-22 -68 30 0 c17 0 58 -7 91 -15 96 -23 111 -20 167 30 107 96
255 171 435 219 108 28 142 46 177 86 32 38 32 50 3 78 -52 49 -134 63 -210
36z"/>
<path d="M8715 17829 c-728 -227 -1441 -594 -2095 -1082 -80 -59 -126 -91
-103 -70 29 26 54 65 82 126 23 49 41 90 41 92 0 2 -55 1 -122 -2 -84 -4 -163
0 -248 11 -68 9 -125 18 -127 20 -2 2 8 29 22 60 45 101 66 195 72 319 4 70 2
117 -3 117 -24 0 -249 -44 -339 -66 -267 -66 -495 -169 -653 -293 -28 -23 -53
-41 -56 -41 -2 0 -6 33 -8 73 -3 56 -11 86 -35 134 -30 61 -111 173 -125 173
-15 0 -158 -121 -226 -191 -134 -138 -241 -302 -280 -432 -34 -109 -38 -311
-8 -397 23 -68 67 -155 99 -198 24 -31 25 -32 45 -15 11 10 35 52 52 93 96
230 254 412 410 471 83 32 86 22 7 -31 -88 -59 -194 -168 -260 -267 -45 -68
-143 -261 -148 -293 -3 -19 22 -101 30 -98 60 28 220 122 263 155 94 72 296
169 313 151 3 -3 -74 -47 -171 -99 -137 -73 -194 -110 -260 -168 -46 -41 -83
-75 -81 -77 1 -1 124 -7 272 -14 149 -7 293 -15 320 -19 56 -8 -8 -13 -379
-31 -103 -5 -190 -11 -193 -13 -2 -3 30 -33 71 -67 116 -96 160 -207 161 -405
0 -104 -2 -114 -32 -176 -89 -181 -247 -322 -427 -380 -80 -26 -92 -41 -130
-164 -14 -45 -34 -89 -43 -97 -26 -23 -178 -74 -275 -93 -46 -9 -139 -19 -207
-22 l-124 -6 7 -66 c3 -36 6 -81 6 -99 l0 -32 38 18 c140 71 299 102 553 109
l206 6 32 58 c18 33 34 59 37 59 3 0 -18 -42 -46 -92 -76 -138 -251 -489 -300
-601 -24 -53 -45 -96 -46 -94 -6 6 70 177 166 375 l89 182 -92 0 c-199 0 -491
-50 -651 -110 -28 -11 -52 -20 -52 -20 -1 0 -4 53 -7 118 -3 64 -11 134 -17
155 l-11 37 -37 -29 c-52 -42 -139 -80 -192 -83 l-45 -3 -30 -91 c-36 -106
-97 -209 -188 -314 l-65 -76 33 4 c72 8 125 -48 125 -134 l0 -48 28 26 c45 44
143 97 222 122 63 20 215 46 271 46 10 0 28 -27 49 -72 27 -59 35 -89 38 -155
3 -45 0 -95 -6 -111 l-10 -28 153 31 c84 18 158 35 164 39 16 10 15 6 -30
-106 -124 -310 -261 -769 -344 -1153 -61 -283 -126 -730 -141 -970 -3 -55 -10
-109 -15 -120 -5 -11 -10 -41 -11 -67 l-3 -47 -159 101 c-399 252 -796 453
-1201 608 -60 23 -303 107 -540 185 -236 79 -493 167 -570 195 -299 112 -660
279 -799 370 -76 50 -202 165 -225 205 -15 28 -24 12 -51 -91 l-23 -84 34 -56
c56 -93 139 -159 331 -266 470 -262 640 -329 1603 -633 609 -192 903 -327
1463 -669 l142 -87 0 -219 0 -219 -97 63 c-296 191 -686 373 -1202 560 -217
80 -334 116 -681 211 -519 142 -710 206 -945 320 -162 78 -254 138 -374 245
-163 145 -260 288 -301 443 l-19 72 -2 -80 c-4 -109 1 -241 11 -293 6 -34 2
-59 -21 -126 -68 -202 -74 -348 -24 -521 40 -139 69 -191 154 -275 94 -92 187
-148 430 -257 328 -148 434 -183 1016 -342 397 -108 559 -162 810 -269 105
-44 312 -130 460 -190 323 -132 415 -172 566 -247 88 -45 280 -154 297 -170 2
-2 54 -295 66 -375 5 -31 4 -30 -7 7 -6 23 -16 46 -22 52 -5 5 -57 19 -115 30
-58 12 -134 30 -168 41 -80 25 -110 25 -203 0 -41 -11 -105 -29 -144 -39 -38
-10 -144 -28 -235 -40 -236 -30 -229 -27 -139 -62 102 -39 161 -92 189 -167
12 -31 26 -62 32 -69 8 -10 50 -12 162 -11 117 2 164 -2 207 -15 149 -45 218
-153 227 -356 l4 -104 133 -144 c215 -231 295 -375 295 -528 -1 -156 -105
-337 -271 -473 l-70 -57 63 -18 c194 -56 565 -177 713 -234 94 -35 176 -66
184 -67 8 -2 35 -38 60 -82 81 -143 199 -329 300 -473 55 -77 99 -141 97 -141
-1 0 -96 25 -212 55 -733 193 -1254 278 -2309 375 -242 22 -537 52 -655 66
-118 14 -309 36 -425 50 -504 59 -625 107 -847 338 l-78 81 21 -75 c28 -102
97 -276 117 -297 22 -22 105 -74 170 -107 124 -62 348 -118 749 -185 389 -66
706 -102 1358 -156 1032 -84 1425 -140 2087 -297 l178 -42 104 -125 c57 -69
133 -160 169 -201 36 -41 64 -76 63 -77 -1 -1 -63 13 -137 31 -310 79 -720
156 -1129 215 -569 82 -1011 122 -1935 176 -236 14 -466 30 -509 36 -341 45
-795 268 -1034 506 l-66 67 28 -50 c60 -103 175 -273 230 -337 31 -36 56 -69
56 -73 0 -3 -19 9 -41 27 -49 39 -49 42 13 -116 99 -251 222 -413 432 -572
191 -143 496 -240 1091 -348 413 -75 555 -84 1390 -95 520 -6 732 -13 945 -29
626 -48 1024 -102 1366 -185 l131 -33 164 -123 c251 -188 596 -412 827 -537
45 -25 82 -47 82 -49 0 -2 -21 5 -47 15 -199 80 -558 259 -771 385 l-143 85
-172 40 c-430 99 -931 171 -1472 211 -77 5 -151 10 -165 10 -21 0 -12 -13 70
-96 l95 -95 52 6 c147 18 416 -60 587 -169 31 -20 56 -31 56 -26 0 21 64 80
105 96 102 39 268 -6 344 -92 38 -43 38 -43 56 -24 33 37 118 54 230 46 55 -3
114 -10 130 -14 62 -17 153 -195 178 -347 l11 -72 66 -7 c72 -6 170 -49 208
-89 l23 -24 67 25 c60 23 82 26 202 26 126 0 141 -2 227 -32 51 -17 124 -47
163 -67 38 -19 70 -31 70 -27 0 5 -18 48 -40 96 -22 47 -40 89 -40 91 0 3 53
-21 118 -54 242 -121 577 -259 829 -342 l131 -43 43 30 c74 50 203 185 261
274 98 148 225 429 298 655 13 39 25 74 28 79 5 9 81 -321 82 -356 0 -24 -191
-329 -258 -411 -54 -66 -190 -191 -295 -269 -39 -30 -44 -37 -30 -43 44 -16
413 -107 544 -134 136 -27 154 -28 265 -20 170 12 571 29 689 29 l100 0 -3
152 c-3 143 5 195 25 174 4 -4 8 -79 8 -167 l0 -159 58 0 57 0 -7 28 c-13 46
-10 279 4 293 22 22 28 -18 28 -173 l0 -148 58 0 58 0 -8 38 c-12 57 -8 271 5
284 7 7 15 8 19 4 5 -4 8 -78 8 -165 l0 -157 252 -12 c139 -7 351 -22 470 -33
272 -26 298 -26 458 5 264 50 329 67 363 93 18 14 32 28 30 33 -2 4 -50 44
-108 89 -230 179 -282 237 -444 494 l-105 168 40 172 c22 95 42 178 45 186 2
8 27 -51 54 -131 156 -461 305 -697 563 -890 44 -34 49 -35 90 -26 23 5 89 8
147 5 l105 -4 160 54 c632 214 1262 537 1796 920 99 71 107 74 389 117 205 31
394 51 665 71 433 30 696 36 1525 33 909 -3 860 -5 1275 58 479 73 782 151
982 252 167 85 367 265 475 427 67 101 188 342 165 329 -6 -4 -25 -16 -42 -28
-18 -12 -2 11 42 60 75 84 224 278 257 336 17 28 9 23 -50 -31 -228 -209 -677
-416 -1006 -465 -57 -9 -239 -20 -404 -26 -164 -5 -436 -15 -604 -20 -1035
-35 -1826 -119 -2585 -274 -66 -13 -121 -24 -122 -23 -1 1 44 52 100 113 56
60 136 147 177 192 l75 82 100 20 c316 64 749 133 1030 164 281 32 454 44
1055 76 660 35 1061 70 1443 125 481 70 654 115 835 218 73 42 74 43 123 140
52 103 112 247 106 253 -2 3 -33 -23 -68 -57 -176 -167 -335 -247 -564 -283
-178 -29 -830 -85 -1400 -121 -627 -40 -966 -70 -1295 -116 -315 -44 -762
-127 -1068 -200 -68 -16 -127 -29 -132 -29 -4 0 47 73 114 162 377 504 725
1131 963 1738 137 348 271 786 345 1133 l32 149 81 49 c176 109 367 198 790
371 149 60 358 147 465 193 242 102 410 157 861 280 195 53 426 120 514 150
157 52 437 171 605 255 163 82 289 184 347 280 45 76 103 297 103 395 0 58
-29 198 -59 290 -28 83 -30 96 -21 150 13 80 13 315 0 315 -5 0 -10 -10 -10
-22 -1 -42 -56 -165 -110 -242 -64 -93 -239 -263 -340 -330 -164 -110 -426
-227 -695 -311 -77 -24 -282 -82 -455 -130 -391 -107 -520 -147 -758 -236
-435 -163 -779 -328 -1091 -522 -51 -32 -96 -56 -98 -53 -3 3 0 95 6 205 6
111 11 212 11 225 0 21 26 40 183 134 305 183 551 309 808 416 124 51 331 120
779 261 681 213 927 313 1338 540 197 108 284 172 333 243 58 82 60 95 32 192
-14 47 -27 87 -30 90 -2 3 -11 -4 -19 -15 -28 -39 -110 -118 -164 -160 -86
-65 -184 -119 -387 -214 -268 -125 -449 -194 -943 -358 -239 -80 -502 -170
-585 -200 -399 -147 -794 -345 -1191 -594 -78 -49 -144 -89 -146 -89 -3 0 -8
100 -11 223 -8 284 -49 663 -108 1007 -446 2593 -2212 4755 -4601 5634 -146
54 -356 123 -433 142 -11 3 75 -42 190 -99 506 -252 913 -544 1305 -937 786
-786 1296 -1818 1449 -2930 37 -268 45 -409 45 -725 -1 -406 -24 -643 -100
-1025 -126 -638 -390 -1276 -742 -1800 l-77 -114 -1145 2 c-1119 2 -1144 1
-1090 -16 167 -56 274 -152 272 -247 0 -50 -14 -79 -94 -198 -72 -108 -88
-143 -88 -199 0 -53 18 -80 73 -112 101 -59 283 -100 728 -165 303 -45 387
-59 408 -70 16 -10 -132 -129 -312 -252 l-118 -81 5 -101 c2 -56 2 -90 0 -75
-5 24 -19 32 -152 84 -727 282 -927 382 -1004 503 -17 28 -28 58 -28 82 0 52
57 159 137 257 171 210 191 247 172 316 -19 70 -120 147 -247 192 -145 50
-222 57 -736 63 l-480 6 -18 60 c-80 258 -181 755 -155 755 4 0 368 79 809
176 442 97 812 176 823 176 11 0 326 -90 700 -201 840 -250 756 -223 725 -231
-14 -4 -604 -119 -1312 -256 -708 -136 -1285 -250 -1283 -252 2 -3 710 107
1574 243 l1569 248 282 -82 c155 -45 283 -81 285 -79 7 8 67 189 64 192 -2 2
-134 57 -294 122 l-290 117 -262 -42 -261 -42 -760 277 -759 276 -799 -221
c-440 -122 -808 -224 -818 -228 -18 -5 -19 0 -13 120 6 132 17 172 63 233 78
102 326 225 544 269 121 25 299 16 495 -24 199 -41 189 -42 183 17 -14 146
-150 297 -370 412 l-101 53 7 121 7 121 -162 60 c-89 33 -168 61 -174 63 -7 2
-19 -30 -30 -80 -10 -46 -19 -84 -20 -86 -1 -1 -20 16 -43 37 -76 73 -231 144
-387 178 -100 21 -321 19 -558 -6 -338 -36 -519 -25 -687 40 -99 38 -154 82
-270 213 -53 60 -100 110 -105 110 -14 2 -45 -58 -72 -137 -34 -100 -42 -254
-18 -363 21 -97 86 -239 148 -319 60 -80 206 -220 284 -273 73 -49 214 -120
308 -153 36 -13 65 -28 65 -34 0 -5 -7 -32 -16 -60 -8 -27 -33 -117 -54 -199
-21 -81 -41 -151 -45 -154 -3 -3 -182 61 -398 142 l-392 148 -720 -277 -720
-276 -250 42 -250 42 -275 -117 c-151 -65 -276 -119 -277 -120 -2 -2 11 -46
28 -100 25 -79 34 -97 47 -93 9 2 131 39 270 82 l254 78 1201 -242 c661 -134
1224 -247 1250 -253 43 -9 48 -13 43 -32 -3 -11 -9 -58 -12 -103 -4 -46 -10
-83 -13 -83 -77 -2 -366 -23 -424 -30 -252 -35 -455 -142 -502 -265 -31 -80 2
-131 210 -315 63 -56 135 -129 160 -162 40 -53 45 -66 45 -112 0 -70 -35 -137
-110 -214 -135 -139 -373 -286 -691 -427 l-102 -45 5 120 5 120 -48 31 c-87
55 -297 214 -297 224 0 6 92 33 206 61 237 58 341 98 406 155 91 80 86 146
-22 317 -83 130 -92 151 -92 206 0 73 66 153 180 218 91 53 315 115 465 130
17 2 -422 7 -975 11 -623 4 -1032 3 -1075 -3 -124 -17 -110 -25 -206 123 -105
161 -190 310 -301 527 -257 504 -436 1123 -505 1750 -22 207 -26 823 -5 1020
71 670 230 1232 512 1805 394 802 967 1464 1690 1954 231 156 447 276 760 423
56 26 25 20 -115 -23z m-1349 -866 c-941 -1024 -1451 -2068 -1581 -3234 -22
-199 -30 -643 -16 -854 31 -439 110 -875 238 -1305 30 -102 57 -193 60 -202 4
-12 -5 -21 -32 -32 -21 -9 -41 -16 -46 -16 -12 0 -31 47 -90 222 -466 1384
-374 2950 246 4178 324 640 760 1112 1248 1351 55 27 104 49 109 49 5 0 -56
-71 -136 -157z m6774 86 c868 -440 1551 -1657 1710 -3046 78 -686 36 -1346
-131 -2023 -52 -210 -195 -660 -210 -660 -23 0 -90 34 -86 44 36 93 133 451
177 649 83 376 120 695 127 1095 8 408 -14 678 -83 1037 -193 1005 -732 1990
-1575 2879 -107 113 -104 114 71 25z m-7670 -412 c0 -2 -10 -12 -22 -23 l-23
-19 19 23 c18 21 26 27 26 19z m-880 -840 c0 -2 -17 -19 -37 -38 l-38 -34 34
38 c33 34 41 42 41 34z m-70 -80 c0 -2 -15 -16 -32 -33 l-33 -29 29 33 c28 30
36 37 36 29z m-60 -70 c0 -2 -12 -14 -27 -28 l-28 -24 24 28 c23 25 31 32 31
24z m-126 -152 c-42 -52 -79 -95 -82 -95 -3 0 2 8 10 18 8 9 43 52 77 95 34
42 64 77 67 77 3 0 -30 -43 -72 -95z m-84 -109 c0 -2 -8 -10 -17 -17 -16 -13
-17 -12 -4 4 13 16 21 21 21 13z m-30 -40 c0 -2 -8 -10 -17 -17 -16 -13 -17
-12 -4 4 13 16 21 21 21 13z m-30 -40 c0 -2 -8 -10 -17 -17 -16 -13 -17 -12
-4 4 13 16 21 21 21 13z m-30 -40 c0 -2 -8 -10 -17 -17 -16 -13 -17 -12 -4 4
13 16 21 21 21 13z m-30 -40 c0 -2 -8 -10 -17 -17 -16 -13 -17 -12 -4 4 13 16
21 21 21 13z m-70 -96 c-12 -16 -24 -30 -26 -30 -3 0 4 14 16 30 12 17 24 30
26 30 3 0 -4 -13 -16 -30z m208 -337 c52 -32 107 -149 143 -302 46 -192 51
-268 59 -926 8 -664 9 -668 65 -1011 57 -352 192 -873 312 -1207 24 -67 24
-69 6 -89 -16 -18 -18 -38 -16 -175 1 -85 0 -154 -1 -152 -5 5 -238 509 -356
769 -183 404 -292 703 -368 1006 -187 745 -221 1387 -97 1819 70 243 153 331
253 268z m11046 13 c80 -33 153 -195 200 -441 106 -551 -28 -1488 -319 -2234
-71 -182 -162 -391 -342 -781 -83 -179 -160 -346 -171 -372 -12 -27 -23 -48
-25 -48 -3 0 -2 65 1 146 5 137 4 147 -16 174 l-21 28 45 134 c180 535 305
1093 344 1538 5 63 10 327 10 585 0 259 5 531 10 605 27 365 109 620 214 666
38 16 31 16 70 0z m-11564 -156 c-6 -11 -13 -20 -16 -20 -2 0 0 9 6 20 6 11
13 20 16 20 2 0 0 -9 -6 -20z m-30 -50 c-6 -11 -13 -20 -16 -20 -2 0 0 9 6 20
6 11 13 20 16 20 2 0 0 -9 -6 -20z m-434 -867 c-8 -15 -15 -25 -16 -21 0 12
23 58 27 54 3 -2 -2 -17 -11 -33z m-25 -60 c-12 -20 -14 -14 -5 12 4 9 9 14
11 11 3 -2 0 -13 -6 -23z m386 -136 c100 -104 164 -219 212 -382 11 -38 61
-227 111 -420 190 -730 220 -817 470 -1340 210 -441 280 -625 265 -696 -15
-68 -69 -46 -196 81 -219 217 -353 455 -657 1165 -220 511 -289 701 -358 980
-44 173 -53 306 -30 414 15 72 98 261 115 261 4 0 35 -28 68 -63z m12301 11
c94 -166 115 -340 67 -553 -67 -296 -139 -496 -377 -1050 -306 -712 -431 -936
-642 -1153 -89 -93 -154 -137 -185 -127 -24 7 -35 50 -25 102 12 69 114 313
241 578 267 555 306 666 502 1415 49 190 102 383 116 430 28 87 80 200 118
254 27 40 138 156 148 156 4 0 21 -24 37 -52z m-7657 -770 c63 -63 179 -124
289 -153 104 -27 363 -31 650 -10 270 20 440 16 560 -10 103 -23 245 -93 295
-145 l40 -42 -35 6 c-19 4 -155 10 -302 13 -207 4 -315 1 -485 -12 -120 -10
-301 -18 -403 -17 -287 1 -399 29 -510 129 -81 73 -151 188 -183 303 l-16 55
22 -30 c12 -16 47 -55 78 -87z m-5066 -173 c163 -111 215 -193 445 -695 242
-529 333 -687 619 -1075 279 -380 374 -549 337 -600 -19 -27 -65 -11 -168 58
-152 101 -338 299 -515 547 -117 164 -481 716 -552 837 -80 137 -195 369 -237
483 -25 68 -28 88 -29 205 0 111 3 140 23 198 13 37 27 67 31 67 5 0 25 -11
46 -25z m13108 -12 c55 -141 55 -296 1 -441 -96 -254 -218 -468 -557 -977
-355 -533 -526 -736 -749 -885 -84 -56 -137 -78 -158 -65 -15 9 -12 70 5 111
25 61 113 200 219 347 57 78 150 208 208 289 192 266 272 412 523 948 196 419
231 484 318 577 54 58 149 133 168 133 4 0 13 -17 22 -37z m-8033 -87 c123
-108 265 -185 390 -212 96 -21 252 -14 485 20 245 36 510 58 494 41 -3 -2 -45
-15 -95 -28 -49 -13 -164 -47 -256 -75 -226 -69 -349 -93 -478 -93 -124 -1
-183 11 -267 53 -111 54 -264 204 -345 339 -23 39 -25 40 72 -45z m2200 -126
c0 -55 -3 -100 -7 -100 -5 0 -50 14 -100 31 l-93 31 6 101 c3 56 7 108 10 115
2 9 31 -1 94 -33 l90 -45 0 -100z m-420 -69 c0 -15 -27 -39 -85 -76 -100 -63
-107 -102 -42 -226 l43 -82 189 1 c105 1 199 -2 210 -7 15 -6 -29 -20 -160
-51 -99 -23 -214 -55 -256 -71 -163 -62 -235 -171 -274 -415 -26 -161 -24
-158 -49 -85 -12 36 -25 61 -28 55 -3 -5 -13 -39 -24 -76 -10 -38 -22 -68 -25
-68 -3 0 -17 20 -30 45 -13 25 -26 45 -29 45 -3 0 -14 -18 -24 -40 -11 -22
-22 -40 -26 -40 -4 0 -18 27 -30 60 l-22 60 -30 -62 -29 -61 -35 74 c-40 83
-43 82 -64 -19 -7 -34 -16 -64 -20 -67 -4 -2 -17 25 -30 62 l-23 65 -33 -58
c-32 -56 -33 -57 -42 -34 -6 14 -16 41 -24 60 l-14 34 -18 -62 c-9 -34 -20
-62 -24 -62 -5 0 -19 24 -34 52 l-25 53 -25 -50 c-27 -52 -27 -52 -43 20 l-7
30 -30 -35 -29 -35 7 30 c4 17 37 149 74 295 l66 265 37 12 c106 35 223 48
442 48 l221 0 67 107 c37 58 67 108 67 111 0 3 -30 -12 -67 -34 l-68 -39 -8
40 -8 41 -49 -36 c-26 -19 -50 -35 -52 -35 -3 0 -3 14 0 30 2 17 1 30 -3 30
-4 0 -27 -16 -51 -36 l-44 -36 0 42 0 42 -57 -51 c-31 -28 -58 -49 -60 -47 -2
2 3 21 11 41 9 21 16 41 16 46 0 5 -37 -16 -82 -48 -46 -32 -76 -48 -68 -37
76 107 82 112 185 153 175 68 315 108 475 134 51 9 190 7 190 -2z m530 -142
c103 -32 190 -80 245 -134 47 -47 85 -109 72 -121 -3 -3 -28 6 -55 20 -79 40
-218 77 -314 83 l-88 6 0 66 c0 36 3 76 6 89 7 26 22 25 134 -9z m-289 -34
c23 -31 39 -58 36 -61 -7 -7 -128 7 -125 15 2 3 11 27 22 54 10 26 20 47 22
47 2 0 22 -25 45 -55z m-196 23 c30 -14 34 -53 6 -68 -49 -25 -151 -2 -151 35
0 38 89 58 145 33z m-7031 -440 c109 -58 192 -154 396 -458 298 -445 372 -537
714 -895 273 -286 284 -299 301 -338 13 -32 13 -37 -1 -51 -20 -20 -48 -14
-139 32 -206 103 -400 274 -810 717 -356 384 -528 635 -555 809 -13 84 0 216
22 216 6 0 38 -15 72 -32z m13393 -5 c15 -70 7 -204 -15 -266 -27 -73 -104
-201 -197 -326 -204 -274 -731 -824 -935 -977 -161 -120 -304 -194 -344 -178
-19 7 -20 50 -3 81 7 13 116 132 244 265 393 413 463 500 754 928 206 305 246
358 305 407 47 41 151 103 171 103 7 0 16 -17 20 -37z m-8147 -433 c195 -57
356 -104 358 -105 2 -2 -15 -95 -37 -207 -22 -112 -52 -273 -65 -357 -14 -84
-27 -155 -30 -158 -3 -3 -1862 472 -1969 503 -10 3 -16 9 -13 12 4 3 309 101
679 217 495 156 679 210 697 205 14 -4 185 -54 380 -110z m-3219 -125 c41 -30
58 -50 153 -176 125 -165 196 -321 196 -426 -1 -85 -37 -106 -117 -68 -130 60
-370 386 -389 528 -19 135 64 210 157 142z m9386 -14 c30 -44 31 -120 2 -197
-25 -67 -156 -265 -227 -345 -101 -112 -212 -163 -248 -114 -31 42 -5 175 61
305 64 126 223 330 290 372 46 29 94 20 122 -21z m-5585 -56 c150 -24 402 -37
583 -30 l170 7 46 -269 c26 -147 45 -269 44 -271 -2 -2 -20 19 -41 47 -22 28
-42 50 -46 51 -4 0 -8 -23 -10 -52 l-3 -52 -36 32 c-20 17 -39 29 -43 25 -3
-3 -6 -26 -6 -49 0 -24 -4 -45 -9 -48 -5 -3 -21 22 -36 57 l-27 62 -21 -60
-20 -60 -28 59 -28 59 -17 -61 c-10 -34 -20 -62 -24 -62 -4 0 -17 23 -30 50
-13 28 -26 50 -30 50 -4 0 -15 -18 -25 -40 -10 -22 -22 -40 -26 -40 -5 0 -18
18 -29 40 -11 22 -24 40 -29 40 -5 0 -20 -18 -35 -40 -14 -22 -28 -40 -30 -40
-2 0 -14 28 -27 62 l-23 62 -14 -45 c-7 -24 -16 -51 -19 -59 -3 -9 -15 13 -28
50 l-22 65 -23 -52 c-12 -29 -26 -53 -30 -53 -4 0 -13 20 -20 45 -7 25 -16 45
-20 45 -5 0 -16 -20 -26 -45 -19 -52 -25 -50 -51 18 l-19 47 -29 -39 c-33 -43
-44 -38 -46 19 l-1 35 -17 -37 c-10 -21 -20 -40 -23 -43 -3 -3 10 75 29 172
18 98 41 220 50 271 19 106 8 100 145 77z m-5907 -46 c94 -35 175 -109 427
-386 338 -371 430 -455 846 -782 168 -131 222 -184 222 -219 0 -58 -194 3
-393 122 -253 152 -817 615 -999 820 -161 182 -198 255 -198 396 0 92 -9 88
95 49z m13553 -66 c-5 -114 -25 -168 -104 -273 -139 -185 -677 -653 -991 -863
-227 -152 -466 -247 -486 -194 -14 37 26 78 254 258 421 331 490 396 843 787
231 257 300 317 410 358 33 13 65 23 70 23 4 1 6 -43 4 -96z m-11605 -267 c44
-18 146 -114 223 -209 200 -248 271 -486 159 -533 -116 -48 -338 121 -516 394
-53 81 -89 167 -89 213 0 109 117 180 223 135z m9720 -11 c98 -67 88 -173 -33
-353 -122 -181 -240 -299 -357 -357 -146 -71 -229 -4 -189 154 33 129 142 302
286 454 116 124 211 157 293 102z m-11597 -297 c85 -31 158 -86 389 -293 283
-253 403 -343 734 -549 280 -174 320 -207 286 -236 -36 -30 -198 13 -378 99
-200 97 -655 387 -842 538 -124 99 -234 215 -263 274 -22 45 -42 130 -42 176
0 22 3 24 33 18 17 -4 55 -16 83 -27z m13434 7 c0 -44 -22 -129 -47 -181 -30
-62 -158 -191 -293 -295 -123 -96 -438 -304 -613 -407 -289 -169 -565 -258
-575 -186 -5 32 30 59 279 214 364 226 447 288 772 579 244 218 281 245 397
282 73 24 80 23 80 -6z m-6670 -177 c73 -197 89 -252 96 -333 l5 -70 -40 75
c-52 95 -85 129 -109 114 -14 -10 -17 -27 -17 -109 0 -83 -3 -99 -18 -109 -24
-15 -37 6 -37 64 0 80 -11 120 -31 120 -25 0 -37 -50 -31 -127 5 -66 -13 -113
-43 -113 -21 0 -27 32 -20 107 5 51 3 73 -7 87 -14 17 -15 17 -32 1 -15 -16
-17 -30 -11 -109 6 -75 4 -94 -8 -104 -20 -17 -47 -5 -48 22 -1 11 0 53 1 92
1 54 -2 75 -15 87 -36 36 -50 6 -40 -83 7 -61 -4 -100 -30 -100 -22 0 -27 17
-29 100 -1 85 -8 100 -34 84 -14 -9 -18 -30 -20 -107 -3 -99 -14 -126 -47
-113 -13 5 -16 21 -13 96 3 93 -6 118 -37 106 -13 -5 -16 -20 -14 -91 3 -89
-6 -113 -37 -101 -15 6 -16 17 -11 90 5 69 3 87 -10 97 -13 11 -18 10 -29 -6
-11 -15 -13 -38 -8 -100 5 -68 4 -83 -10 -94 -15 -12 -19 -12 -32 0 -12 13
-13 27 -3 91 13 80 9 108 -15 108 -22 0 -33 -27 -45 -109 -10 -77 -28 -108
-55 -98 -21 8 -20 36 3 122 20 77 18 95 -10 95 -24 0 -35 -25 -48 -110 -7 -40
-18 -72 -31 -84 -33 -33 -42 -10 -29 71 7 38 9 78 5 88 -13 36 -36 -7 -44 -83
-9 -80 -14 -91 -38 -71 -17 14 -16 36 2 157 6 37 4 42 -13 42 -37 0 -58 -41
-94 -180 -9 -37 -13 -41 -21 -26 -19 34 -21 202 -4 373 25 251 21 234 59 225
18 -4 169 -7 337 -7 306 0 433 10 645 50 119 22 105 33 165 -127z m-4199 55
c415 -502 880 -964 1314 -1306 l140 -110 6 -176 c10 -264 50 -435 153 -646 76
-155 160 -269 314 -424 l132 -135 -6 -188 c-4 -103 -10 -188 -14 -188 -12 0
-182 181 -231 245 -250 326 -397 753 -442 1276 l-12 144 -115 104 c-430 391
-855 869 -1284 1444 -49 64 -22 40 45 -40z m8252 65 c-6 -7 -50 -67 -99 -133
-411 -559 -834 -1034 -1271 -1426 l-63 -56 -25 -139 c-78 -423 -174 -740 -305
-1009 -172 -353 -376 -559 -667 -674 l-53 -21 0 195 0 194 75 35 c415 192 687
580 819 1168 21 92 65 349 66 379 0 3 39 36 88 72 409 306 859 746 1311 1280
69 81 127 147 129 147 3 0 0 -6 -5 -12z m-8343 -183 c46 -24 178 -144 234
-213 58 -71 116 -182 116 -219 0 -13 -11 -29 -24 -38 -51 -33 -145 16 -284
149 -113 109 -162 183 -162 248 0 39 5 54 25 74 26 26 41 26 95 -1z m8492 -36
c22 -74 -29 -158 -183 -304 -86 -81 -158 -127 -216 -140 -45 -9 -77 23 -67 68
23 110 172 292 322 396 73 50 125 43 144 -20z m-9175 -34 c176 -88 448 -529
368 -595 -26 -21 -108 -16 -186 12 -296 108 -453 339 -353 519 20 35 43 60 65
71 44 23 45 23 106 -7z m9853 3 c83 -56 108 -191 56 -303 -67 -146 -314 -306
-477 -308 -67 -1 -84 16 -75 76 9 59 80 202 147 297 99 140 237 259 300 260 9
0 31 -10 49 -22z m-11531 -319 c30 -10 156 -79 280 -153 344 -205 514 -285
921 -431 118 -43 160 -68 160 -95 0 -24 -19 -30 -102 -30 -196 0 -641 147
-1043 345 -190 94 -294 166 -343 239 -39 59 -65 137 -48 149 16 11 112 -2 175
-24z m13269 22 c10 -6 9 -19 -8 -63 -47 -127 -130 -196 -385 -322 -279 -139
-663 -283 -869 -326 -94 -20 -241 -26 -265 -11 -18 11 -6 45 22 63 12 8 94 41
182 72 386 140 502 195 872 415 226 134 273 156 353 171 62 11 83 11 98 1z
m-11013 -38 c22 -14 88 -73 146 -132 82 -83 113 -122 142 -180 43 -87 47 -124
14 -146 -21 -13 -29 -13 -73 0 -95 29 -286 201 -348 314 -23 44 -27 61 -23 99
9 85 57 100 142 45z m8700 12 c24 -23 29 -43 25 -95 -3 -41 -48 -108 -129
-193 -157 -164 -306 -236 -335 -161 -12 30 22 118 73 190 61 88 207 225 274
259 62 31 62 31 92 0z m-8137 -180 c138 -104 267 -276 260 -346 -8 -86 -125
-40 -274 106 -91 90 -134 156 -134 209 0 87 57 99 148 31z m7586 23 c41 -59 4
-141 -118 -263 -150 -149 -275 -194 -276 -99 0 68 134 243 262 339 68 51 108
58 132 23z m-3544 -95 c59 -67 90 -187 71 -280 -41 -204 -211 -83 -214 152 -1
89 18 145 56 162 31 14 53 6 87 -34z m-839 11 c21 -10 39 -34 57 -72 25 -52
27 -68 27 -177 0 -112 -2 -124 -28 -178 -90 -182 -228 -52 -215 202 6 112 26
168 74 211 40 35 45 35 85 14z m318 -19 c40 -46 63 -127 63 -225 0 -201 -98
-320 -186 -226 -45 47 -66 120 -66 226 0 106 21 179 66 226 43 46 81 46 123
-1z m267 -1 c98 -104 97 -388 -2 -433 -72 -32 -142 78 -151 239 -6 98 6 156
43 200 35 41 68 39 110 -6z m-852 -54 c86 -103 9 -420 -103 -420 -60 0 -97 87
-88 204 8 92 34 162 78 208 45 47 77 50 113 8z m-4016 -21 c88 -44 225 -204
304 -356 43 -84 46 -103 18 -128 -41 -37 -200 10 -365 108 -172 102 -232 181
-207 274 35 128 125 165 250 102z m3768 10 c26 -28 31 -139 10 -210 -28 -97
-94 -148 -140 -110 -25 21 -39 103 -27 164 25 137 103 215 157 156z m6022 1
c39 -24 82 -108 82 -161 0 -76 -90 -163 -259 -252 -101 -53 -225 -97 -275 -97
-46 0 -70 24 -62 63 14 67 145 264 246 367 88 90 198 123 268 80z m-11518 -95
c32 -8 161 -61 286 -116 359 -159 466 -197 986 -344 32 -9 68 -25 80 -35 20
-17 21 -21 8 -30 -25 -18 -241 -4 -377 24 -282 59 -779 220 -957 310 -125 64
-160 94 -191 169 l-15 37 61 0 c34 0 87 -7 119 -15z m13245 -7 c-11 -38 -52
-95 -88 -122 -90 -69 -322 -160 -687 -270 -324 -97 -511 -135 -662 -136 -78 0
-108 6 -108 21 0 20 58 43 241 95 403 115 513 154 824 294 277 125 316 138
418 139 66 1 68 0 62 -21z m-11061 -24 c149 -75 325 -258 352 -368 9 -38 -6
-46 -87 -46 -91 0 -161 36 -274 143 -108 101 -145 155 -145 214 0 83 59 105
154 57z m8836 6 c26 -26 26 -89 1 -138 -35 -67 -211 -225 -292 -261 -47 -22
-161 -29 -188 -12 -43 27 79 210 210 314 135 109 225 141 269 97z m-11373
-112 c-3 -7 -5 -2 -5 12 0 14 2 19 5 13 2 -7 2 -19 0 -25z m3108 -32 c66 -31
197 -125 263 -189 92 -90 141 -187 112 -222 -30 -36 -146 -4 -256 71 -180 120
-254 203 -254 282 0 83 44 101 135 58z m7678 7 c63 -71 -5 -186 -187 -315
-133 -95 -250 -138 -295 -109 -22 14 -15 67 15 119 53 91 205 222 340 293 64
33 104 37 127 12z m-10776 -15 c-3 -8 -6 -5 -6 6 -1 11 2 17 5 13 3 -3 4 -12
1 -19z m3564 -40 c92 -31 261 -163 318 -249 51 -76 56 -125 15 -135 -15 -4
-49 0 -78 9 -101 32 -302 193 -333 266 -17 41 -10 96 15 110 22 13 23 13 63
-1z m6700 -9 c17 -17 20 -29 16 -61 -8 -58 -45 -107 -137 -181 -129 -103 -257
-158 -295 -127 -64 54 106 254 303 357 75 39 85 40 113 12z m-9796 -214 c41
-9 170 -50 287 -91 253 -90 394 -127 708 -189 129 -26 242 -53 250 -61 26 -25
-4 -38 -100 -42 -131 -6 -284 12 -563 69 -376 76 -598 143 -673 201 -27 22
-84 95 -84 109 0 21 81 23 175 4z m1660 -14 c70 -33 207 -157 272 -245 67 -91
57 -126 -37 -126 -105 0 -322 72 -403 134 -48 37 -71 88 -63 138 20 123 105
159 231 99z m9666 13 c36 -18 68 -82 69 -134 0 -75 -65 -133 -212 -190 -107
-41 -199 -62 -266 -58 -75 4 -86 22 -52 86 27 51 180 209 247 255 80 55 158
70 214 41z m1665 3 c10 -9 -33 -72 -72 -106 -76 -67 -264 -125 -676 -210 -245
-51 -401 -71 -526 -70 -104 1 -143 8 -149 26 -7 21 37 34 284 84 308 61 414
89 688 184 121 42 247 83 280 91 58 13 158 14 171 1z m-6428 -40 c77 -82 112
-433 48 -486 -66 -55 -156 240 -127 417 15 93 38 113 79 69z m193 -7 c47 -63
76 -298 48 -379 -25 -71 -84 -8 -114 121 -18 80 -20 226 -3 263 14 32 44 30
69 -5z m181 -26 c36 -67 58 -154 58 -230 0 -97 -16 -116 -58 -71 -52 55 -101
276 -76 342 12 31 48 12 76 -41z m-4739 -12 c55 -30 146 -130 218 -240 59 -90
76 -136 58 -158 -20 -24 -109 -13 -205 25 -90 35 -249 136 -278 177 -66 94 17
247 124 228 19 -3 57 -17 83 -32z m4174 5 c46 -53 67 -141 68 -282 0 -97 -4
-129 -19 -163 -46 -102 -116 -38 -152 138 -26 132 -6 291 43 328 24 17 27 16
60 -21z m4423 5 c55 -40 76 -132 45 -192 -45 -87 -334 -235 -444 -228 -44 3
-46 4 -49 36 -4 38 24 90 104 197 144 192 254 252 344 187z m-5072 -28 c24
-68 -2 -256 -44 -321 -8 -13 -23 -23 -34 -23 -61 0 -45 281 21 364 27 34 41
29 57 -20z m187 1 c17 -33 20 -60 20 -160 0 -129 -15 -210 -47 -250 -16 -20
-23 -23 -38 -15 -65 35 -67 382 -3 453 24 26 45 17 68 -28z m195 25 c48 -26
82 -222 61 -349 -14 -85 -49 -155 -79 -159 -63 -9 -97 83 -97 258 0 130 10
180 47 233 21 29 38 33 68 17z m-569 -21 c7 -14 10 -55 7 -109 -3 -71 -9 -98
-34 -146 -32 -65 -66 -82 -91 -48 -18 25 -17 148 2 212 28 92 89 140 116 91z
m-210 -10 c19 -36 7 -149 -22 -205 -61 -118 -117 -22 -73 126 28 95 68 128 95
79z m-147 -70 c0 -49 -7 -79 -25 -115 -36 -73 -54 -66 -53 21 1 84 32 169 61
163 15 -3 18 -14 17 -69z m-2434 17 c75 -31 173 -90 222 -134 99 -90 1 -154
-233 -153 -130 0 -181 20 -209 83 -37 80 -20 175 38 210 39 25 112 22 182 -6z
m7510 9 c46 -24 63 -67 57 -141 -9 -119 -63 -155 -234 -155 -159 0 -263 38
-263 97 0 35 81 99 203 160 119 59 179 69 237 39z m-6635 -99 c37 -80 47 -120
106 -426 116 -602 282 -965 586 -1281 l83 -86 0 -97 c0 -54 -4 -96 -8 -94 -17
6 -138 146 -208 240 -276 371 -468 843 -558 1380 -23 132 -56 389 -56 431 0
33 22 6 55 -67z m5615 -133 c-84 -667 -280 -1195 -602 -1626 -158 -210 -467
-499 -650 -607 l-38 -22 5 29 c2 15 9 68 15 118 7 51 17 93 24 97 7 4 61 44
121 88 447 334 693 657 854 1123 67 194 112 378 165 672 29 157 53 236 94 304
26 44 27 45 30 19 2 -15 -6 -102 -18 -195z m-5919 173 c94 -20 164 -53 199
-93 36 -40 37 -54 9 -79 -38 -34 -208 -31 -342 7 -85 23 -143 114 -102 159 15
17 31 20 94 20 42 0 106 -7 142 -14z m6423 -2 c24 -23 20 -77 -8 -107 -53 -58
-182 -91 -328 -85 -79 3 -92 6 -108 25 -64 79 129 180 347 182 62 1 85 -3 97
-15z m-9434 -148 c323 -79 400 -93 688 -126 271 -32 336 -44 329 -63 -7 -23
-67 -30 -252 -31 -149 0 -237 6 -410 28 -522 65 -691 110 -760 200 -31 41 -31
44 3 49 67 12 188 -5 402 -57z m12603 58 c20 -4 37 -10 37 -15 0 -17 -64 -81
-99 -99 -91 -46 -283 -85 -646 -132 -206 -26 -284 -32 -445 -32 -189 1 -250 8
-257 31 -6 18 53 30 297 58 290 33 402 53 700 125 311 75 329 77 413 64z
m-9086 -156 c-3 -8 -6 -5 -6 6 -1 11 2 17 5 13 3 -3 4 -12 1 -19z m-456 -22
c117 -21 184 -62 177 -107 -8 -57 -121 -85 -280 -70 -133 13 -178 38 -202 113
-7 25 24 58 64 68 54 12 157 11 241 -4z m6323 4 c21 -5 48 -17 59 -28 17 -18
18 -24 7 -56 -23 -70 -94 -97 -264 -99 -100 -1 -116 1 -161 23 -61 30 -69 58
-30 94 62 57 273 93 389 66z m-7702 -40 c115 -38 188 -80 188 -110 0 -48 -148
-93 -315 -94 -114 -1 -147 13 -171 71 -24 56 -18 101 16 133 17 16 41 31 53
34 46 10 135 -3 229 -34z m1910 -108 c90 -187 265 -389 463 -532 l85 -62 -34
-46 c-19 -26 -39 -48 -45 -50 -19 -6 -232 218 -303 318 -85 120 -167 278 -207
398 -30 89 -43 158 -19 102 5 -14 32 -71 60 -128z m7169 138 c101 -28 114
-157 22 -217 -57 -37 -329 -13 -411 37 -77 47 -12 99 208 166 83 25 128 29
181 14z m-3879 -67 c40 -43 77 -126 90 -203 10 -60 10 -75 -2 -97 -20 -35 -32
-37 -63 -13 -86 68 -141 340 -69 340 10 0 30 -12 44 -27z m-6897 -49 c435 -91
516 -103 835 -129 210 -17 270 -28 270 -49 0 -19 -17 -24 -123 -37 -258 -32
-1058 55 -1224 133 -41 19 -103 78 -103 98 0 5 12 11 28 13 78 12 159 4 317
-29z m12548 30 c20 -4 37 -12 37 -19 0 -17 -74 -83 -108 -96 -204 -80 -968
-161 -1219 -130 -106 13 -123 18 -123 37 0 21 60 32 270 49 322 26 421 42 880
139 117 25 195 31 263 20z m-9928 -64 c118 -59 199 -117 203 -147 8 -53 -125
-82 -291 -64 -111 12 -177 37 -201 74 -22 33 -23 110 -2 143 47 70 142 68 291
-6z m7239 46 c47 -20 66 -51 66 -112 0 -92 -49 -125 -215 -145 -160 -19 -301
12 -293 64 4 30 86 89 203 147 127 62 177 72 239 46z m-3145 -20 c70 -74 103
-314 52 -378 -18 -21 -19 -21 -45 -5 -72 47 -122 276 -82 372 18 42 43 45 75
11z m-1929 -5 c31 -59 -13 -228 -80 -304 -41 -47 -65 -48 -80 -3 -21 66 26
229 84 291 37 39 60 44 76 16z m3790 -78 c-84 -210 -257 -443 -457 -616 -105
-91 -278 -217 -297 -217 -7 0 -21 22 -33 49 l-20 48 61 33 c315 173 610 464
742 732 15 32 30 56 32 54 2 -2 -11 -39 -28 -83z m-2062 41 c54 -65 89 -227
72 -332 -15 -91 -48 -107 -98 -46 -49 59 -67 132 -67 265 0 121 8 149 45 149
10 0 32 -16 48 -36z m-1552 -36 c5 -13 7 -59 7 -103 -3 -185 -104 -347 -149
-240 -38 92 10 322 77 369 27 18 54 7 65 -26z m-2828 13 c52 -26 188 -147 225
-199 42 -58 31 -76 -48 -80 -68 -4 -211 34 -290 76 -87 47 -106 132 -44 198
29 31 103 33 157 5z m4158 4 c30 -20 61 -99 75 -185 26 -169 -31 -312 -95
-241 -70 77 -89 357 -29 424 19 21 23 21 49 2z m3965 2 c43 -33 55 -121 22
-166 -43 -57 -240 -125 -349 -119 -77 4 -88 22 -48 79 35 51 173 172 229 199
45 22 121 26 146 7z m-5105 -18 c15 -17 20 -40 23 -110 4 -107 -18 -207 -59
-272 -97 -153 -159 75 -79 290 21 54 66 113 87 113 5 0 17 -9 28 -21z m446
-50 c28 -56 33 -171 14 -269 -25 -121 -58 -180 -102 -180 -90 0 -92 336 -3
461 30 42 68 37 91 -12z m-248 -9 c47 -80 15 -340 -49 -400 -30 -28 -51 -21
-75 26 -23 44 -20 232 4 304 37 113 81 138 120 70z m713 1 c43 -63 58 -135 58
-273 0 -113 -2 -130 -21 -155 -30 -40 -57 -41 -84 -3 -75 105 -92 381 -29 449
27 29 48 24 76 -18z m-219 -61 c64 -131 46 -404 -32 -469 -38 -31 -83 28 -107
139 -14 64 -7 238 12 290 36 102 87 118 127 40z m-2558 10 c114 -64 21 -149
-173 -158 -112 -5 -162 10 -190 58 -51 85 30 132 218 127 85 -2 107 -6 145
-27z m5995 6 c45 -19 55 -31 55 -68 0 -36 -51 -85 -97 -94 -44 -8 -186 1 -236
16 -21 6 -52 24 -69 39 -52 46 -26 90 72 122 43 14 230 4 275 -15z m-7508 -51
c93 -15 198 -48 208 -66 4 -5 3 -18 0 -29 -20 -64 -334 -156 -405 -118 -35 19
-70 75 -70 114 0 42 33 81 85 99 51 18 70 18 182 0z m8865 5 c47 -14 94 -52
102 -86 10 -40 -27 -108 -71 -129 -43 -21 -119 -15 -221 17 -124 38 -199 87
-186 121 8 22 99 55 198 71 102 18 132 18 178 6z m-10586 -45 c82 -9 212 -25
289 -35 77 -11 194 -24 260 -30 66 -6 181 -17 255 -25 74 -8 186 -19 248 -23
123 -10 155 -23 106 -44 -38 -17 -531 -16 -794 1 -359 23 -525 50 -595 99 -97
67 -29 84 231 57z m12393 4 l32 -11 -27 -29 c-70 -73 -273 -105 -825 -130
-283 -13 -548 -8 -593 10 -49 20 -16 33 106 43 62 4 174 15 248 23 74 8 189
19 255 25 66 6 203 21 305 35 345 46 446 52 499 34z m-9714 -99 c83 -21 131
-45 149 -72 25 -41 -78 -97 -222 -123 -93 -16 -135 -6 -162 38 -22 35 -26 87
-9 118 31 59 113 72 244 39z m6982 0 c42 -25 56 -54 50 -102 -12 -89 -60 -114
-179 -93 -144 26 -247 82 -222 123 17 27 65 51 145 72 97 25 165 25 206 0z
m-7478 -37 c144 -47 215 -92 196 -123 -35 -56 -322 -103 -408 -67 -52 22 -84
91 -67 143 14 40 46 65 98 74 49 9 92 2 181 -27z m8003 10 c82 -41 71 -162
-17 -199 -90 -37 -375 10 -406 67 -18 35 38 71 186 121 114 38 178 41 237 11z
m-7003 -54 c57 -12 101 -42 101 -68 0 -23 -37 -55 -80 -70 -55 -19 -201 -25
-229 -9 -38 20 -65 63 -58 90 13 51 155 81 266 57z m5994 -16 c47 -19 58 -53
30 -91 -34 -46 -59 -54 -154 -48 -200 11 -271 108 -112 152 57 16 180 9 236
-13z m-2010 -3 c54 -43 126 -234 127 -336 1 -132 -82 -120 -146 21 -52 113
-73 285 -38 319 20 21 26 20 57 -4z m-2745 -3 c52 -62 -21 -361 -104 -426 -32
-25 -38 -26 -58 -5 -21 20 -21 139 -1 217 20 79 68 169 105 201 36 30 43 31
58 13z m2562 -68 c81 -89 132 -391 80 -476 -25 -41 -43 -41 -81 -1 -59 65
-103 231 -97 368 5 132 40 172 98 109z m-2351 -23 c9 -18 13 -62 13 -120 0
-144 -42 -288 -99 -348 -34 -35 -58 -35 -80 -1 -15 22 -18 48 -17 143 1 96 5
128 27 196 35 106 78 166 115 162 18 -2 31 -12 41 -32z m-4264 -16 c61 -5 272
-12 470 -16 198 -3 366 -10 374 -14 11 -6 10 -10 -7 -19 -83 -44 -383 -65
-862 -59 -362 5 -402 11 -465 62 -35 28 -28 43 27 57 36 9 290 3 463 -11z
m11898 0 c26 -13 26 -14 10 -33 -59 -65 -144 -76 -558 -76 -473 0 -708 18
-787 60 -39 21 3 29 157 29 185 1 683 18 825 30 147 11 319 7 353 -10z m-5497
-58 c83 -68 144 -298 115 -432 -20 -94 -59 -114 -115 -57 -75 74 -127 314 -95
432 20 71 53 92 95 57z m-4890 -3 c32 -5 87 -19 121 -30 102 -33 103 -69 4
-118 -74 -38 -203 -71 -274 -71 -68 0 -111 31 -127 90 -16 58 9 105 70 129 33
13 133 13 206 0z m8593 -7 c80 -40 91 -114 26 -179 -30 -30 -39 -33 -89 -33
-76 0 -208 34 -281 73 -47 25 -61 38 -63 58 -4 31 26 48 123 72 126 32 233 36
284 9z m-5627 -32 c34 -68 18 -262 -32 -378 -27 -63 -79 -115 -111 -110 -40 5
-59 59 -59 164 0 139 35 261 96 333 37 45 82 41 106 -9z m1699 9 c65 -69 119
-244 119 -384 0 -97 -12 -144 -45 -175 -24 -23 -26 -23 -60 -7 -64 31 -124
168 -147 338 -13 98 -2 191 27 235 23 35 69 32 106 -7z m-1447 -18 c28 -49 34
-182 12 -292 -31 -153 -110 -285 -167 -277 -56 8 -88 115 -74 246 9 86 49 225
81 279 51 88 112 106 148 44z m-2210 17 c79 -35 9 -121 -133 -162 -76 -22
-105 -20 -140 10 -40 33 -42 76 -6 100 85 55 218 80 279 52z m6588 -25 c36
-17 71 -40 77 -51 28 -52 -39 -109 -114 -99 -108 15 -215 80 -215 131 0 66
131 76 252 19z m-6124 1 c80 -51 -61 -169 -218 -182 -49 -4 -60 -1 -87 22 -17
14 -33 35 -36 46 -22 85 245 174 341 114z m5576 15 c168 -31 242 -109 164
-174 -28 -24 -38 -27 -88 -23 -114 10 -240 83 -240 140 0 36 26 53 101 67 3 1
31 -4 63 -10z m-6446 -25 c46 -19 43 -50 -10 -103 -49 -48 -124 -93 -184 -111
-51 -15 -92 3 -123 53 -37 60 -23 129 32 159 50 28 218 29 285 2z m7385 17
c102 -14 148 -64 127 -140 -14 -54 -62 -96 -108 -95 -54 0 -144 46 -207 105
-96 91 -73 119 110 137 6 1 41 -3 78 -7z m-3608 -73 c43 -37 74 -96 107 -198
19 -63 23 -97 23 -205 0 -113 -3 -135 -20 -165 -30 -50 -74 -54 -117 -8 -117
124 -169 498 -82 584 31 32 46 30 89 -8z m-900 -2 c105 -105 14 -565 -122
-617 -133 -50 -133 370 0 568 28 42 66 72 90 73 4 0 19 -11 32 -24z m-3992
-31 c6 -30 -159 -76 -398 -110 -346 -49 -539 -68 -705 -69 -154 -1 -168 1
-208 22 -48 25 -50 40 -8 60 41 20 127 30 376 41 220 11 474 29 755 56 157 14
185 14 188 0z m9627 -5 c80 -6 192 -16 250 -21 58 -5 236 -16 395 -24 336 -18
427 -28 468 -54 l30 -19 -27 -17 c-93 -61 -237 -60 -756 6 -344 43 -530 82
-576 120 -22 18 -4 32 35 26 20 -3 101 -11 181 -17z m-5002 -15 c55 -46 102
-191 102 -315 0 -63 -25 -174 -51 -227 -23 -48 -69 -83 -108 -83 -38 0 -103
75 -127 146 -15 47 -19 86 -19 194 1 158 21 227 81 279 43 38 82 40 122 6z
m-340 -5 c23 -14 43 -41 65 -88 31 -66 32 -70 32 -207 -1 -123 -3 -147 -24
-200 -30 -75 -87 -135 -128 -135 -87 0 -153 136 -153 315 0 144 44 268 110
313 41 27 56 28 98 2z m-2598 -111 c24 -43 -20 -115 -111 -183 -67 -51 -110
-59 -154 -30 -42 27 -33 66 26 129 87 92 212 136 239 84z m6157 1 c49 -22 138
-102 159 -142 25 -48 -11 -88 -79 -88 -43 0 -140 69 -182 130 -31 44 -37 96
-14 111 23 14 71 10 116 -11z m-5753 -9 c25 -27 11 -64 -39 -109 -52 -45 -124
-82 -174 -89 -30 -4 -43 0 -69 22 -18 15 -32 34 -32 44 0 18 57 76 103 105 77
47 181 61 211 27z m5367 4 c63 -22 152 -87 164 -119 8 -25 6 -31 -23 -57 -41
-37 -71 -37 -147 -1 -105 50 -168 120 -145 161 5 11 15 22 22 24 26 11 86 7
129 -8z m-6614 -30 c91 -19 167 -53 171 -77 11 -61 -273 -170 -405 -155 -81 9
-142 98 -114 166 37 88 140 108 348 66z m7968 14 c52 -15 105 -68 105 -105 0
-16 -9 -47 -19 -70 -40 -88 -134 -95 -343 -28 -83 27 -133 56 -155 91 -13 19
-12 23 7 41 26 24 105 50 208 67 99 17 147 18 197 4z m-2573 -60 c44 -88 52
-423 12 -504 -24 -49 -39 -54 -57 -18 -52 101 -59 417 -12 528 18 43 34 42 57
-6z m-6162 20 c0 -15 -112 -63 -205 -87 -78 -21 -354 -75 -545 -107 -291 -50
-494 -59 -560 -25 -22 11 -40 25 -40 31 0 34 134 59 530 99 183 18 496 58 660
84 108 17 160 19 160 5z m9434 -8 c329 -46 528 -71 631 -81 359 -34 517 -62
539 -98 3 -6 -13 -20 -37 -31 -85 -41 -298 -25 -736 55 -311 57 -433 86 -516
123 -65 30 -84 51 -43 51 12 0 85 -9 162 -19z m-8170 -74 c26 -40 -95 -186
-189 -228 -40 -18 -48 -18 -78 -6 -102 43 -118 165 -26 212 84 44 271 58 293
22z m6965 -2 c30 -9 67 -30 83 -45 55 -56 25 -151 -59 -187 -30 -12 -38 -12
-76 5 -58 26 -151 114 -177 167 -17 36 -19 48 -10 66 11 20 17 21 99 16 47 -3
110 -13 140 -22z m-6118 -45 c42 -23 9 -97 -69 -157 -67 -51 -129 -56 -152
-13 -21 39 48 122 134 161 48 22 60 23 87 9z m5116 -9 c54 -25 143 -111 143
-139 0 -26 -36 -52 -70 -52 -45 1 -122 58 -156 116 -28 48 -29 57 -8 78 20 21
40 20 91 -3z m-7097 -40 c0 -16 -139 -79 -231 -105 -161 -46 -514 -127 -657
-152 -164 -28 -257 -30 -308 -9 -80 33 -12 65 221 104 99 16 236 39 305 50
142 24 525 95 585 109 54 13 85 14 85 3z m9325 -51 c143 -28 350 -64 460 -81
340 -52 435 -76 435 -110 0 -5 -17 -17 -37 -26 -51 -21 -186 -13 -363 22 -169
33 -563 128 -650 157 -83 27 -180 75 -180 89 0 14 7 13 335 -51z m-7687 18
c31 -31 6 -93 -66 -160 -79 -74 -134 -94 -185 -67 -28 15 -37 28 -37 57 0 31
100 130 160 160 49 24 109 29 128 10z m4182 -53 c23 -57 25 -71 25 -245 0
-170 -2 -189 -22 -233 -27 -58 -49 -60 -76 -4 -55 111 -61 395 -12 514 11 27
20 34 37 31 17 -2 29 -18 48 -63z m1667 40 c69 -35 153 -124 153 -163 0 -36
-35 -62 -83 -62 -58 0 -170 89 -202 161 -39 85 26 116 132 64z m-4795 -66 c28
-56 41 -172 35 -324 -5 -147 -20 -217 -49 -223 -70 -13 -103 411 -43 554 18
42 34 40 57 -7z m-1394 -36 c5 -31 -33 -98 -86 -155 -84 -90 -132 -100 -193
-39 -44 43 -50 80 -22 121 26 38 42 48 123 75 96 31 173 31 178 -2z m6563 6
c82 -27 112 -45 133 -79 26 -46 20 -78 -23 -121 -61 -61 -109 -51 -193 39 -67
71 -104 152 -81 175 13 14 102 6 164 -14z m-7175 -4 c111 -19 177 -40 198 -64
15 -17 15 -20 -4 -43 -60 -77 -361 -149 -428 -102 -54 37 -70 133 -29 172 56
53 119 62 263 37z m4877 -17 c30 -67 42 -144 42 -283 0 -151 -14 -232 -46
-261 -18 -16 -20 -16 -39 1 -41 37 -55 116 -55 305 0 159 2 179 22 223 27 57
53 63 76 15z m2980 3 c47 -29 62 -66 48 -119 -17 -61 -59 -92 -126 -92 -81 0
-196 29 -277 69 -111 56 -117 91 -20 123 146 50 312 58 375 19z m-6443 1 c19
-15 20 -21 10 -47 -22 -58 -123 -145 -169 -145 -36 0 -71 26 -71 53 0 28 105
130 150 144 49 16 55 15 80 -5z m4880 -3 c60 -27 140 -106 140 -138 0 -50 -67
-67 -126 -30 -87 53 -141 153 -96 178 24 14 31 13 82 -10z m-6900 -27 c0 -31
-115 -85 -316 -147 -364 -113 -651 -185 -742 -185 -23 0 -59 7 -78 15 -78 32
-16 62 247 120 357 79 601 136 724 170 126 34 165 40 165 27z m8967 -21 c119
-32 446 -109 733 -171 215 -47 271 -64 294 -89 16 -18 15 -19 -24 -35 -50 -20
-86 -20 -191 0 -182 34 -671 172 -811 229 -101 41 -171 95 -123 95 8 0 63 -13
122 -29z m-6067 -23 c47 -109 54 -405 12 -500 -22 -51 -39 -59 -65 -30 -47 51
-72 325 -43 461 24 115 63 143 96 69z m-1167 -29 c24 -38 -35 -125 -122 -181
-55 -34 -91 -36 -128 -4 l-28 25 19 36 c55 102 222 183 259 124z m5488 1 c82
-43 157 -129 144 -169 -6 -21 -45 -41 -79 -41 -62 0 -196 132 -196 193 0 40
67 49 131 17z m-1972 0 c49 -26 88 -209 78 -369 -17 -267 -127 -293 -167 -39
-14 86 -9 271 9 329 10 34 46 89 57 89 3 0 13 -4 23 -10z m-3099 -45 c19 -23
4 -61 -43 -112 -69 -76 -143 -97 -183 -52 -14 16 -15 23 -4 49 15 36 80 96
124 116 41 18 91 18 106 -1z m4647 -6 c46 -22 123 -102 123 -127 0 -29 -32
-52 -70 -52 -80 0 -208 140 -170 185 18 21 67 18 117 -6z m-1806 -20 c30 -15
76 -120 89 -201 16 -94 8 -279 -14 -343 -21 -59 -61 -105 -92 -105 -12 0 -35
15 -52 34 -98 112 -110 469 -20 599 21 29 54 35 89 16z m-1784 -49 c33 -65 46
-176 40 -320 -6 -133 -19 -189 -50 -217 -18 -17 -20 -17 -38 6 -38 47 -53 127
-54 281 0 80 4 165 8 190 9 53 42 113 60 108 7 -2 22 -24 34 -48z m1436 20
c66 -57 107 -204 107 -378 -1 -311 -136 -452 -230 -239 -45 102 -65 326 -40
458 19 99 76 188 122 189 4 0 23 -13 41 -30z m-3275 -28 c6 -62 -80 -212 -134
-232 -56 -22 -138 34 -138 93 0 52 35 89 125 136 103 52 142 53 147 3z m6229
6 c148 -73 181 -154 90 -222 -38 -28 -90 -26 -122 4 -55 51 -112 180 -101 226
9 34 51 32 133 -8z m-7527 2 c0 -19 -106 -79 -217 -124 -167 -67 -503 -180
-627 -211 -114 -28 -204 -31 -229 -6 -29 30 87 76 398 156 147 38 417 117 570
165 102 33 105 34 105 20z m3424 -9 c50 -55 80 -283 57 -431 -14 -90 -38 -135
-70 -135 -58 0 -95 119 -95 305 -1 135 13 214 46 255 23 30 39 31 62 6z m744
-6 c62 -52 103 -204 103 -381 0 -108 -18 -220 -42 -267 -18 -35 -61 -77 -80
-77 -26 0 -68 38 -90 82 -90 177 -84 537 12 639 33 36 58 37 97 4z m4609 1
c141 -44 487 -144 553 -161 145 -36 357 -99 391 -116 19 -9 41 -24 47 -32 11
-12 7 -17 -19 -26 -69 -24 -173 -5 -421 75 -357 116 -638 236 -638 275 0 12
-2 12 87 -15z m-4995 -23 c59 -63 90 -178 91 -328 0 -152 -38 -274 -93 -302
-50 -25 -100 30 -136 152 -26 84 -26 306 -1 387 20 67 60 118 91 118 12 0 34
-12 48 -27z m-2928 7 c16 -6 26 -17 26 -30 0 -30 -64 -95 -145 -145 -134 -84
-209 -94 -259 -34 -48 57 -23 134 58 176 60 31 268 53 320 33z m7181 -4 c140
-21 205 -65 205 -139 0 -53 -52 -107 -103 -107 -53 0 -205 80 -271 143 -110
104 -56 137 169 103z m-6223 -40 c14 -20 8 -43 -21 -86 -32 -47 -103 -107
-137 -116 -29 -7 -84 22 -84 45 0 24 50 93 94 128 61 48 127 61 148 29z m5172
1 c32 -16 107 -89 122 -119 19 -38 11 -63 -27 -78 -23 -10 -36 -10 -55 -1 -43
19 -90 59 -117 99 -38 56 -41 78 -17 102 21 21 50 20 94 -3z m-4800 7 c10 -4
16 -18 16 -41 0 -29 -9 -44 -54 -88 -65 -63 -112 -83 -153 -63 -45 21 -42 58
7 112 61 66 136 99 184 80z m4411 -10 c46 -21 113 -80 131 -115 14 -28 13 -31
-10 -54 -37 -37 -76 -30 -147 27 -116 93 -96 200 26 142z m-6515 -115 c-51
-43 -178 -106 -402 -198 -264 -109 -450 -171 -513 -171 -62 0 -97 9 -92 24 9
28 89 63 326 140 262 86 568 193 631 220 19 8 46 15 60 15 24 0 24 0 -10 -30z
m8592 10 c95 -38 389 -139 623 -216 237 -77 291 -100 315 -128 20 -24 -2 -35
-75 -35 -76 0 -244 56 -531 175 -232 97 -286 122 -361 172 -82 54 -67 70 29
32z m-7154 -41 c5 -65 -65 -195 -121 -224 -61 -32 -147 22 -147 92 0 30 7 44
38 73 50 48 158 102 197 99 27 -3 30 -7 33 -40z m822 17 c17 -46 -49 -155
-115 -191 -26 -14 -41 -16 -61 -9 -42 15 -51 38 -32 78 51 107 185 185 208
122z m4130 -13 c45 -37 100 -118 100 -148 0 -25 -30 -44 -71 -44 -26 0 -113
81 -133 125 -19 40 -21 91 -3 99 23 10 72 -5 107 -32z m840 1 c86 -45 130 -90
130 -137 0 -67 -79 -121 -139 -96 -69 28 -162 226 -124 263 15 16 66 5 133
-30z m-6302 -25 c22 -22 14 -82 -18 -130 -46 -69 -150 -148 -195 -148 -33 0
-86 33 -101 63 -24 45 -11 88 41 136 25 23 46 41 47 41 2 0 35 11 73 25 76 27
134 32 153 13z m6826 -13 c37 -13 85 -35 105 -49 89 -62 95 -158 11 -201 -57
-30 -104 -13 -188 69 -80 77 -114 160 -80 194 19 19 77 14 152 -13z m-5873
-31 c19 -23 -22 -95 -74 -134 -46 -34 -63 -37 -95 -14 -31 22 -28 38 18 88 63
68 124 92 151 60z m4845 0 c38 -18 114 -97 114 -118 0 -18 -38 -46 -63 -46
-24 0 -112 83 -127 120 -10 24 -10 33 0 45 16 19 34 19 76 -1z m-6588 -26
c-10 -30 -117 -96 -303 -188 -381 -186 -543 -251 -633 -252 -72 -1 -82 12 -37
49 37 30 128 70 385 167 159 60 513 205 545 224 27 15 48 15 43 0z m8407 -47
c330 -139 388 -162 530 -214 191 -69 274 -108 304 -140 l23 -25 -35 -10 c-49
-14 -109 0 -243 53 -177 71 -566 258 -644 310 -62 41 -105 85 -83 85 4 0 71
-27 148 -59z m-6157 37 c33 -33 -11 -163 -71 -214 -47 -39 -117 -25 -117 24 1
30 37 99 76 142 51 56 88 72 112 48z m3828 -8 c62 -39 131 -171 107 -208 -5
-10 -26 -18 -45 -20 -28 -2 -41 3 -66 27 -62 63 -101 178 -70 209 17 17 36 15
74 -8z m-4556 -25 c17 -21 5 -78 -32 -146 -41 -78 -83 -119 -121 -119 -64 0
-127 68 -113 123 9 38 55 77 140 118 88 43 107 46 126 24z m5349 -28 c111 -56
155 -128 115 -185 -19 -28 -65 -52 -98 -52 -36 0 -88 49 -123 117 -38 72 -48
115 -33 143 15 28 50 22 139 -23z m-1331 -34 c29 -53 43 -173 30 -264 -24
-183 -124 -132 -136 70 -6 108 2 166 29 210 25 42 47 37 77 -16z m-3668 2 c19
-23 5 -56 -49 -109 -55 -54 -102 -66 -127 -31 -16 22 -1 56 43 96 65 60 108
74 133 44z m4589 1 c34 -18 111 -101 111 -120 0 -21 -28 -39 -61 -39 -22 0
-42 12 -80 49 -54 53 -68 86 -49 109 16 19 43 19 79 1z m-5449 -45 c17 -32 12
-64 -20 -128 -33 -66 -113 -148 -154 -159 -38 -9 -75 3 -109 37 -26 26 -29 35
-24 71 8 59 52 106 143 155 89 48 146 56 164 24z m6387 -17 c141 -70 193 -166
126 -236 -36 -38 -86 -46 -131 -22 -67 36 -143 141 -157 216 -16 86 42 101
162 42z m-7277 17 c0 -11 -55 -59 -112 -99 -70 -48 -449 -250 -588 -314 -130
-59 -196 -76 -246 -64 l-27 7 24 26 c28 29 153 94 319 165 119 51 316 144 500
235 105 52 130 61 130 44z m8281 -112 c140 -66 316 -147 393 -180 182 -79 253
-115 284 -146 24 -24 24 -26 7 -35 -55 -31 -207 27 -538 203 -213 114 -303
167 -360 211 -38 30 -65 68 -49 68 5 0 123 -54 263 -121z m-2467 71 c42 -37
78 -112 74 -154 -3 -27 -7 -31 -35 -34 -48 -5 -72 13 -104 81 -31 66 -36 106
-17 125 20 20 45 14 82 -18z m-3946 -37 c4 -39 -41 -128 -75 -150 -12 -8 -34
-13 -50 -11 -40 4 -42 44 -7 109 34 61 69 91 103 87 21 -2 27 -9 29 -35z
m3340 25 c42 -51 62 -325 30 -412 -31 -84 -67 -71 -94 34 -22 87 -16 309 9
358 18 34 38 41 55 20z m1016 -9 c35 -27 78 -113 74 -147 -6 -51 -74 -41 -113
16 -69 101 -42 194 39 131z m-4690 -79 c-2 -60 -30 -136 -63 -169 -25 -25 -70
-27 -111 -6 -51 27 -52 95 -2 142 53 50 127 94 152 91 23 -3 25 -6 24 -58z
m5039 30 c91 -61 138 -135 109 -176 -29 -42 -107 -58 -137 -28 -44 44 -87 177
-72 218 10 25 49 19 100 -14z m-916 -12 c28 -32 41 -58 53 -113 15 -65 7 -85
-34 -85 -39 0 -60 20 -81 79 -37 106 3 183 62 119z m-5547 3 c0 -15 -82 -85
-165 -141 -134 -91 -434 -268 -552 -327 -92 -45 -121 -55 -163 -55 -28 0 -54
3 -58 7 -17 18 92 90 266 176 171 84 260 132 547 293 98 55 125 65 125 47z
m7836 0 c19 -18 465 -260 646 -350 175 -88 264 -149 245 -168 -4 -4 -29 -6
-56 -6 -38 0 -73 13 -160 57 -309 155 -721 423 -721 468 0 11 34 10 46 -1z
m-5417 -65 c49 -99 35 -336 -22 -370 -15 -9 -23 -6 -42 17 -35 40 -49 99 -49
207 0 97 13 158 41 186 25 24 46 12 72 -40z m-501 32 c27 -27 0 -130 -47 -177
-25 -25 -79 -28 -87 -6 -16 42 33 146 85 178 32 20 34 20 49 5z m4008 -7 c38
-23 87 -117 82 -158 -2 -22 -9 -29 -30 -31 -40 -5 -63 12 -88 65 -28 61 -36
109 -20 128 16 19 19 19 56 -4z m-1015 -36 c55 -125 39 -421 -24 -433 -13 -3
-24 10 -40 45 -20 43 -22 64 -22 208 0 134 3 165 18 193 24 44 44 40 68 -13z
m-3878 -31 c13 -44 -13 -127 -63 -201 -48 -72 -91 -99 -145 -89 -79 15 -107
84 -65 166 36 71 169 162 230 158 29 -3 36 -8 43 -34z m5866 -1 c114 -68 177
-161 152 -225 -13 -35 -66 -68 -109 -68 -96 0 -231 244 -173 313 21 26 61 20
130 -20z m-6789 8 c0 -21 -148 -144 -295 -247 -305 -212 -466 -304 -534 -304
-96 0 -45 50 183 180 91 52 268 159 393 237 217 135 253 154 253 134z m2534
-10 c9 -10 26 -43 38 -72 30 -77 38 -291 13 -375 -16 -58 -47 -104 -70 -104
-23 0 -57 49 -77 111 -25 79 -30 275 -10 356 24 91 68 126 106 84z m5101 -8
c69 -47 325 -203 460 -280 294 -169 355 -210 355 -240 0 -20 -71 -16 -125 7
-77 33 -180 96 -400 246 -201 136 -324 234 -346 275 -14 28 8 25 56 -8z
m-6158 -5 c25 -41 -10 -205 -50 -233 -45 -32 -131 -7 -143 42 -20 77 156 250
193 191z m4713 -25 c57 -49 100 -110 100 -142 0 -39 -26 -69 -65 -77 -79 -15
-107 13 -131 128 -26 128 11 164 96 91z m-4271 -16 c11 -29 -3 -112 -25 -144
-12 -19 -23 -23 -47 -21 -38 4 -46 30 -27 93 25 84 80 124 99 72z m2669 2 c51
-54 72 -266 38 -380 -24 -85 -58 -102 -98 -48 -62 83 -63 373 -2 434 21 21 40
19 62 -6z m1131 -5 c26 -34 44 -91 39 -129 -3 -27 -7 -30 -38 -30 -30 0 -37 5
-52 35 -18 34 -25 130 -11 143 14 15 43 6 62 -19z m-2892 -53 c66 -98 80 -339
27 -470 -63 -159 -175 36 -160 279 6 106 16 150 46 198 26 42 56 40 87 -7z
m-769 7 c26 -26 5 -146 -34 -189 -19 -21 -54 -25 -72 -7 -16 16 -15 44 3 105
25 85 70 124 103 91z m3527 -22 c31 -41 54 -139 39 -164 -16 -25 -57 -27 -78
-3 -38 42 -58 141 -36 182 16 29 46 23 75 -15z m-4452 9 c38 -38 28 -138 -25
-238 -41 -75 -68 -97 -125 -97 -36 0 -50 6 -74 29 -36 36 -39 85 -8 148 31 64
159 172 206 173 6 0 18 -7 26 -15z m5398 -14 c96 -64 159 -152 159 -222 0 -41
-4 -51 -31 -73 -22 -19 -42 -26 -73 -26 -57 0 -87 28 -132 124 -43 89 -50 171
-19 205 25 28 43 26 96 -8z m-6441 8 c0 -24 -152 -161 -320 -288 -330 -251
-471 -333 -519 -302 -28 18 18 60 187 171 190 124 414 276 541 367 85 61 111
73 111 52z m7530 -71 c176 -126 299 -209 429 -292 232 -147 303 -206 270 -227
-49 -31 -214 67 -543 321 -170 131 -255 207 -280 250 -19 33 -19 33 0 28 10
-3 66 -39 124 -80z m-5950 47 c30 -36 -10 -214 -53 -237 -48 -25 -120 -4 -134
41 -15 46 -2 74 67 143 69 69 97 81 120 53z m3772 -26 c20 -39 23 -111 7 -158
-13 -37 -48 -42 -79 -11 -35 35 -24 166 18 198 23 17 34 11 54 -29z m579 -27
c64 -62 69 -71 69 -109 0 -63 -40 -92 -110 -83 -29 3 -59 46 -75 105 -18 69
-19 109 -5 136 19 34 49 21 121 -49z m-1717 37 c107 -84 115 -407 12 -475 -73
-47 -147 83 -149 260 -1 99 17 167 53 206 33 36 48 37 84 9z m-1088 -53 c55
-58 78 -135 78 -261 0 -94 -3 -118 -23 -163 -25 -55 -71 -102 -99 -102 -40 0
-83 41 -115 108 -31 65 -32 72 -32 197 0 117 2 135 24 178 27 56 74 90 111 82
14 -3 39 -21 56 -39z m2072 4 c8 -16 12 -51 10 -97 -4 -87 -21 -113 -65 -97
-36 12 -47 47 -39 117 12 93 63 135 94 77z m-5141 -58 c-44 -58 -94 -106 -272
-262 -264 -231 -363 -299 -433 -300 -32 0 -32 0 -18 28 14 28 102 100 278 230
54 39 182 139 285 222 103 84 189 147 191 141 2 -6 -12 -32 -31 -59z m7435
-79 c94 -76 254 -201 356 -278 117 -88 194 -153 206 -174 l20 -34 -48 5 c-76
9 -154 66 -476 349 -147 129 -212 196 -239 247 -8 16 -9 22 -1 22 7 0 88 -62
182 -137z m-3588 106 c57 -45 96 -160 96 -285 0 -145 -53 -254 -125 -254 -122
0 -196 273 -125 463 34 91 96 122 154 76z m-370 -24 c50 -50 80 -151 80 -270
0 -323 -221 -343 -276 -26 -27 158 40 331 129 331 24 0 42 -9 67 -35z m-1773
-17 c7 -13 12 -58 12 -100 -1 -120 -43 -171 -124 -148 -65 19 -76 76 -30 155
60 104 116 141 142 93z m3949 -10 c17 -18 45 -55 61 -83 46 -80 36 -136 -27
-154 -83 -23 -124 26 -124 148 0 123 28 151 90 89z m-5535 -56 c-55 -82 -402
-435 -525 -534 -25 -19 -59 -43 -77 -52 -31 -16 -83 -22 -83 -10 0 23 53 80
174 186 168 147 352 314 460 418 89 84 110 81 51 -8z m7182 -78 c87 -81 218
-199 292 -262 166 -142 251 -225 251 -246 0 -22 -42 -21 -88 3 -114 58 -632
586 -632 643 0 22 35 -5 177 -138z m-6072 74 c18 -35 19 -38 2 -90 -25 -80
-71 -146 -113 -164 -85 -35 -168 36 -145 124 16 57 50 103 106 140 39 26 57
32 89 30 36 -3 44 -8 61 -40z m4971 9 c63 -44 109 -116 109 -173 0 -51 -23
-80 -77 -95 -63 -17 -104 11 -150 100 -42 80 -49 140 -22 179 24 34 80 30 140
-11z m-4297 -60 c15 -31 26 -73 29 -116 4 -60 2 -71 -16 -89 -30 -30 -86 -38
-117 -18 -53 35 -52 93 2 201 47 93 65 97 102 22z m3558 14 c12 -18 33 -64 45
-102 21 -65 21 -70 5 -103 -40 -84 -167 -44 -167 53 0 48 22 133 44 166 22 33
44 29 73 -14z m-5191 -39 c-63 -121 -521 -598 -614 -639 -28 -12 -82 -17 -82
-8 0 25 48 78 166 185 76 69 226 209 333 312 108 102 199 184 203 182 5 -3 2
-17 -6 -32z m6926 -143 c101 -96 226 -213 278 -259 139 -123 230 -216 230
-234 0 -23 -42 -20 -92 5 -81 41 -521 492 -579 594 -24 42 -40 89 -25 74 3 -2
87 -83 188 -180z m-1959 113 c9 -10 27 -43 41 -73 52 -118 31 -189 -54 -189
-59 0 -90 33 -90 98 0 86 40 182 75 182 7 0 19 -8 28 -18z m-3849 -33 c22 -17
26 -28 26 -69 0 -58 -32 -150 -61 -176 -14 -13 -36 -19 -66 -19 -111 0 -124
133 -23 234 54 54 84 61 124 30z m4603 -8 c47 -34 93 -118 93 -171 0 -45 -28
-77 -74 -85 -76 -15 -137 62 -144 181 -4 57 -2 62 23 82 37 29 54 28 102 -7z
m-934 -79 c42 -90 43 -144 3 -179 -60 -52 -146 -4 -146 81 0 56 26 142 51 167
29 29 55 10 92 -69z m-4633 64 c0 -28 -103 -168 -252 -341 -186 -216 -320
-347 -372 -365 -97 -32 -52 31 231 322 141 145 283 293 317 330 62 69 76 79
76 54z m6544 -93 c55 -60 200 -210 323 -334 203 -206 250 -265 230 -285 -3 -4
-23 0 -44 6 -110 36 -696 720 -617 720 4 0 52 -48 108 -107z m-5365 11 c16
-20 21 -41 21 -83 0 -119 -38 -181 -110 -181 -110 0 -124 140 -24 250 44 49
82 53 113 14z m4192 -14 c44 -46 72 -126 63 -177 -8 -42 -47 -73 -91 -73 -73
0 -102 43 -110 161 -5 73 -4 79 20 103 38 38 72 34 118 -14z m-5256 -80 c-14
-28 -76 -118 -137 -198 -219 -290 -325 -409 -388 -437 -88 -40 -65 15 72 169
111 125 275 315 406 470 73 87 92 85 47 -4z m6335 -100 c52 -62 136 -159 185
-214 240 -266 255 -284 255 -318 0 -47 -83 8 -186 122 -148 167 -369 462 -400
535 -36 87 -16 70 146 -125z m-4667 124 c9 -44 5 -210 -6 -221 -15 -14 -27 15
-33 83 -13 136 17 240 39 138z m2471 -77 c10 -115 -15 -217 -36 -145 -8 31 -9
197 -1 227 11 41 30 -1 37 -82z m-2347 56 c13 -47 10 -340 -4 -354 -24 -24
-37 40 -37 186 -1 140 6 195 24 195 5 0 13 -12 17 -27z m-488 -29 c38 -49 20
-197 -30 -250 -28 -30 -108 -34 -134 -7 -42 42 -45 108 -9 181 49 98 128 133
173 76z m2661 -30 c16 -74 10 -298 -8 -316 -18 -18 -29 3 -38 69 -8 65 -1 274
9 291 16 24 26 12 37 -44z m1049 31 c16 -14 42 -51 57 -81 33 -68 31 -146 -6
-176 -28 -23 -97 -24 -129 -2 -64 45 -80 240 -23 274 30 17 70 11 101 -15z
m-4875 -37 c-16 -52 -63 -132 -169 -288 -202 -297 -288 -396 -346 -402 -50 -6
-22 45 123 220 48 59 153 194 234 300 81 105 151 192 156 192 5 0 6 -10 2 -22z
m6086 -176 c80 -105 192 -248 249 -318 103 -127 137 -182 121 -197 -18 -20
-82 29 -155 116 -139 168 -356 496 -380 576 -16 51 24 9 165 -177z m-4215 133
c28 -56 30 -276 2 -318 -26 -39 -45 -34 -70 21 -17 39 -21 67 -22 157 0 171
42 237 90 140z m-1750 -17 c-21 -93 -286 -534 -388 -646 -36 -39 -84 -72 -103
-72 -3 0 -4 14 0 30 6 33 61 118 182 281 44 59 130 181 192 273 62 91 115 166
118 166 3 0 2 -15 -1 -32z m5822 -166 c70 -103 169 -243 220 -312 93 -124 147
-215 138 -231 -10 -16 -65 13 -103 55 -73 80 -292 423 -364 570 -37 77 -49
124 -28 111 5 -3 67 -90 137 -193z m-4562 157 c27 -26 28 -134 2 -202 -32 -81
-112 -103 -169 -47 -28 28 -30 35 -26 85 5 65 47 139 97 172 38 26 63 23 96
-8z m3243 17 c108 -56 152 -246 65 -285 -53 -24 -120 -3 -141 44 -7 14 -17 56
-23 93 -15 93 8 149 69 161 2 1 15 -5 30 -13z m-978 -103 c16 -77 8 -224 -14
-258 -40 -60 -85 8 -93 139 -6 91 9 180 35 209 16 18 17 18 39 -7 12 -14 27
-51 33 -83z m775 42 c66 -69 93 -233 48 -293 -28 -37 -62 -48 -98 -31 -46 23
-66 59 -76 140 -12 96 2 171 38 199 36 28 51 25 88 -15z m-2356 -7 c34 -35 46
-87 46 -193 0 -83 -4 -106 -21 -135 -11 -19 -28 -36 -38 -38 -46 -9 -90 83
-90 192 -1 89 9 137 35 170 25 32 42 33 68 4z m-1843 -92 c-30 -80 -216 -418
-296 -536 -50 -75 -106 -130 -131 -130 -33 0 38 144 145 294 24 34 94 144 155
246 153 251 145 240 149 214 2 -11 -8 -51 -22 -88z m5488 67 c13 -21 68 -110
121 -198 54 -88 116 -187 139 -220 136 -202 195 -325 149 -308 -65 23 -128
110 -279 387 -107 196 -164 319 -164 354 0 31 6 28 34 -15z m-2668 -18 c12 -8
32 -38 45 -67 21 -47 24 -67 24 -188 0 -121 -2 -139 -23 -177 -70 -131 -164
-3 -163 222 0 169 50 258 117 210z m-679 -17 c83 -91 99 -336 29 -440 -64 -97
-144 5 -154 195 -6 117 9 195 45 237 30 36 52 38 80 8z m997 -13 c70 -75 62
-343 -11 -361 -33 -9 -60 18 -78 79 -30 100 -12 261 32 295 24 17 31 15 57
-13z m-3039 -101 c-21 -74 -173 -396 -240 -509 -52 -89 -93 -136 -127 -148
-42 -15 2 90 119 283 38 63 107 187 153 275 46 88 88 166 94 174 19 24 19 -12
1 -75z m2415 59 c75 -52 104 -131 105 -288 0 -110 -2 -125 -27 -177 -20 -44
-35 -62 -63 -75 -35 -17 -38 -17 -73 2 -28 15 -46 37 -72 89 -35 68 -35 71
-35 195 0 118 2 130 28 184 40 80 88 104 137 70z m2941 -120 c40 -76 114 -210
164 -298 119 -207 147 -262 143 -286 -3 -16 -6 -17 -28 -6 -45 23 -100 110
-215 342 -96 194 -155 337 -155 376 0 31 28 -8 91 -128z m-5231 -2 c-17 -68
-164 -423 -218 -525 -45 -86 -89 -136 -118 -136 -8 0 -14 9 -14 19 0 10 58
135 128 277 70 143 150 306 177 364 43 90 50 101 53 76 2 -16 -2 -50 -8 -75z
m3759 73 c46 -58 53 -180 14 -232 -14 -19 -31 -28 -55 -30 -52 -4 -78 32 -78
108 0 59 20 141 40 165 19 23 56 18 79 -11z m1361 -164 c46 -96 123 -255 171
-353 89 -178 102 -217 75 -217 -28 0 -65 45 -115 140 -52 100 -167 367 -207
484 -23 68 -33 150 -15 131 4 -6 46 -89 91 -185z m-4980 90 c0 -103 -205 -664
-268 -733 -9 -11 -25 -23 -36 -29 -17 -9 -18 -7 -14 33 3 24 33 107 68 184 62
138 172 401 211 503 18 47 39 69 39 42z m4826 -130 c30 -74 62 -152 70 -174 8
-21 45 -107 83 -190 94 -207 117 -276 89 -276 -28 0 -86 81 -125 176 -99 238
-193 523 -193 587 0 42 23 4 76 -123z m-4696 35 c0 -52 -17 -123 -75 -320 -80
-268 -123 -373 -167 -415 -56 -52 -51 7 18 188 74 196 151 409 181 505 27 82
43 98 43 42z m4578 -167 c39 -112 96 -270 128 -353 56 -147 77 -235 56 -235
-24 0 -73 76 -110 172 -44 115 -125 380 -147 485 -17 77 -19 133 -6 133 5 0
40 -91 79 -202z m-3502 45 c9 -85 0 -271 -13 -284 -8 -8 -15 -4 -25 12 -15 27
-19 319 -5 354 8 19 9 19 22 2 7 -11 17 -48 21 -84z m3338 -60 c21 -76 72
-240 112 -366 42 -128 74 -244 74 -267 0 -38 -1 -40 -21 -30 -30 16 -53 61
-89 167 -75 226 -154 633 -124 633 5 0 27 -62 48 -137z m-4247 68 c-10 -89
-146 -480 -215 -618 -28 -55 -71 -103 -93 -103 -25 0 7 96 114 335 20 44 64
148 97 230 100 246 107 259 97 156z m4063 -89 c14 -70 87 -360 135 -537 34
-126 45 -215 26 -215 -20 0 -60 63 -76 117 -52 179 -115 520 -115 624 0 92 13
97 30 11z m-2980 22 c22 -45 27 -268 6 -318 -35 -85 -69 -4 -70 169 -1 164 25
226 64 149z m-895 -16 c-19 -113 -122 -409 -201 -578 -46 -96 -86 -150 -112
-150 -25 0 -8 57 63 216 37 82 100 230 141 329 41 99 79 190 84 203 17 39 32
26 25 -20z m2587 -5 c18 -42 17 -311 -1 -343 l-14 -25 -15 35 c-10 24 -15 75
-16 160 -1 177 16 243 46 173z m1152 -173 c27 -153 43 -235 92 -458 25 -117
30 -187 15 -197 -16 -9 -50 45 -71 112 -21 70 -76 420 -86 556 -7 87 1 166 15
151 5 -5 21 -79 35 -164z m-3574 126 c0 -38 -37 -149 -106 -314 -94 -228 -146
-312 -191 -312 -26 0 -11 46 66 198 75 151 192 398 204 435 9 25 27 21 27 -7z
m919 -24 c31 -43 44 -114 39 -206 -8 -147 -66 -200 -117 -106 -20 35 -26 63
-29 132 -5 104 2 147 29 182 27 34 53 33 78 -2z m1287 -47 c34 -82 27 -314
-11 -345 -11 -9 -17 -5 -31 22 -22 42 -32 251 -15 316 14 52 37 55 57 7z
m-1015 -57 c45 -104 26 -328 -32 -359 -25 -13 -63 23 -79 77 -47 158 -1 382
70 344 10 -5 28 -33 41 -62z m814 28 c73 -73 65 -343 -11 -362 -31 -8 -43 1
-66 53 -40 91 -33 262 13 312 25 27 34 26 64 -3z m1410 -236 c15 -113 34 -258
44 -324 18 -120 17 -170 -3 -163 -40 13 -66 139 -90 437 -13 173 -13 206 1
270 5 23 6 24 14 5 4 -11 20 -112 34 -225z m-161 208 c2 -7 9 -51 16 -98 7
-47 23 -131 37 -188 13 -56 21 -111 18 -122 -17 -53 -77 10 -93 96 -17 94 -25
265 -13 297 11 28 29 36 35 15z m-1795 -23 c47 -40 71 -118 71 -228 0 -104
-19 -159 -65 -195 -125 -99 -229 282 -113 414 36 41 65 43 107 9z m1634 -72
c9 -54 27 -149 39 -210 18 -89 20 -115 10 -125 -20 -20 -64 21 -80 73 -17 60
-33 272 -22 309 22 76 32 67 53 -47z m-1324 56 c67 -110 47 -394 -28 -394 -20
0 -30 11 -50 49 -44 85 -41 283 5 354 20 31 51 28 73 -9z m-1284 -291 c0 -101
-4 -151 -12 -159 -9 -9 -14 -5 -20 17 -10 39 -10 284 0 309 l8 20 12 -20 c7
-13 12 -74 12 -167z m90 -73 c0 -105 -4 -158 -12 -166 -18 -18 -27 45 -27 191
0 128 6 162 28 140 7 -7 11 -63 11 -165z m119 -62 c1 -97 -3 -146 -11 -154 -9
-9 -14 -5 -20 17 -11 39 -10 284 1 309 17 42 30 -28 30 -172z m1860 0 c1 -99
-3 -146 -11 -154 -10 -10 -14 -8 -20 7 -11 26 -10 294 1 319 17 42 30 -28 30
-172z m-110 -90 c1 -100 -3 -146 -11 -154 -10 -10 -14 -8 -20 7 -11 26 -10
294 1 319 17 41 29 -27 30 -172z m-1606 15 c4 -140 -3 -207 -19 -191 -14 14
-29 167 -23 237 8 94 13 111 27 97 8 -8 13 -59 15 -143z m1499 95 c11 -37 10
-283 0 -308 -8 -19 -9 -19 -19 -1 -6 10 -13 64 -15 121 -9 159 12 268 34 188z
m-1383 -14 c8 -40 8 -257 0 -286 -9 -32 -21 -29 -29 8 -10 43 -10 259 -1 287
10 31 22 28 30 -9z m110 -36 c8 -49 8 -232 0 -272 -9 -42 -21 -39 -31 7 -9 46
-10 261 0 285 11 28 24 20 31 -20z m1161 -145 c0 -101 -4 -151 -12 -159 -9 -9
-14 -5 -20 17 -10 38 -10 283 0 309 l8 20 12 -20 c7 -13 11 -75 12 -167z
m-137 -1 c2 -78 -1 -153 -6 -167 l-10 -25 -11 29 c-14 34 -18 244 -7 294 6 26
11 31 20 23 7 -8 12 -65 14 -154z m-893 -39 c0 -101 -4 -151 -12 -159 -9 -9
-14 -5 -20 17 -10 38 -10 283 0 309 l8 20 12 -20 c8 -13 12 -72 12 -167z m112
125 c10 -51 10 -251 0 -287 -15 -52 -28 -13 -34 101 -9 168 13 288 34 186z
m650 0 c11 -58 9 -275 -4 -297 -10 -18 -12 -16 -22 20 -12 42 -15 232 -5 283
9 42 21 39 31 -6z m-120 -10 c10 -37 10 -273 0 -297 -16 -39 -29 3 -34 106 -9
161 12 273 34 191z"/>
<path d="M7185 17319 c-38 -11 -116 -22 -171 -26 l-102 -6 -6 -71 c-4 -39 -15
-105 -26 -146 l-19 -75 57 61 c95 102 157 150 348 271 27 17 4 14 -81 -8z"/>
<path d="M2676 17127 c-55 -77 -109 -190 -132 -272 -8 -33 -18 -115 -21 -183
l-6 -122 -32 37 c-73 85 -214 137 -354 131 l-66 -3 -12 -110 c-40 -388 17
-695 171 -908 48 -67 132 -154 141 -145 3 2 14 82 25 176 21 189 63 409 84
451 23 43 96 105 161 136 38 18 88 55 136 102 101 99 145 109 257 61 24 -10
45 -18 46 -18 2 0 6 28 9 62 4 43 16 83 40 129 l34 67 -37 71 c-46 87 -104
165 -178 238 -64 63 -193 163 -210 163 -6 0 -31 -29 -56 -63z"/>
<path d="M1854 16027 c-100 -73 -178 -179 -260 -351 -49 -103 -144 -369 -144
-402 0 -22 -11 -17 -69 26 -55 41 -119 67 -144 57 -10 -4 -18 -29 -24 -74 -11
-89 -8 -411 5 -538 5 -55 9 -101 7 -103 -1 -1 -34 2 -73 8 -39 5 -85 7 -103 3
-31 -6 -31 -6 -26 -55 6 -51 51 -160 73 -178 9 -8 23 -5 52 14 77 48 158 70
267 70 89 1 106 -2 155 -26 30 -15 100 -68 155 -118 129 -117 188 -146 320
-160 162 -17 222 -36 270 -86 78 -80 147 -258 162 -416 l6 -68 38 -10 c24 -7
50 -25 72 -51 l35 -40 18 24 c11 14 168 190 349 392 182 202 334 376 338 388
11 30 -9 71 -51 101 l-36 25 0 131 c-1 117 -3 133 -20 145 -37 27 -125 37
-260 30 l-131 -7 -18 79 c-9 43 -31 107 -48 143 -30 64 -30 66 -20 144 14 100
14 208 1 276 -6 30 -12 55 -14 57 -11 11 -77 13 -112 4 -60 -16 -104 -49 -147
-111 -21 -30 -42 -57 -48 -58 -18 -7 -155 87 -216 147 -115 115 -175 230 -238
463 -20 73 -39 141 -41 151 -8 24 -15 22 -80 -26z"/>
<path d="M3384 14930 c-23 -11 -51 -31 -63 -44 l-22 -23 27 -79 c22 -63 28
-98 28 -174 l1 -95 115 26 c155 34 182 44 215 79 34 36 28 55 -22 64 -21 4
-51 11 -68 16 -29 10 -30 12 -30 69 0 54 -4 65 -41 118 -48 67 -75 76 -140 43z"/>
<path d="M673 14105 c-76 -17 -98 -28 -146 -74 -74 -71 -85 -171 -36 -355 l10
-39 34 50 c62 93 148 144 212 128 22 -5 24 -4 16 17 -4 13 -8 57 -8 98 0 61 5
86 27 133 l27 57 -37 -1 c-20 0 -65 -7 -99 -14z"/>
<path d="M3718 13789 c-156 -24 -300 -93 -435 -206 -28 -23 -53 -43 -55 -43
-2 0 -2 21 0 46 4 50 -16 114 -49 153 l-19 24 -63 -17 c-88 -24 -162 -68 -234
-142 -79 -81 -108 -132 -122 -220 -18 -116 -8 -131 109 -166 38 -11 48 -20 70
-63 20 -40 25 -64 25 -125 0 -68 -4 -84 -38 -153 -44 -89 -127 -183 -223 -254
-35 -26 -61 -50 -57 -54 9 -8 1111 -639 1128 -645 8 -3 16 24 24 83 54 385
190 915 341 1327 28 76 49 141 47 143 -2 2 -85 -10 -183 -26 -98 -16 -180 -28
-181 -27 -2 1 2 18 7 37 16 55 12 160 -10 245 -11 43 -24 81 -28 84 -4 4 -28
3 -54 -1z"/>
<path d="M537 10661 c-8 -65 8 -163 36 -223 19 -42 43 -63 198 -177 174 -127
177 -128 182 -102 7 32 36 50 100 59 l47 7 -62 107 -62 107 -63 26 c-80 32
-126 60 -233 145 -47 37 -97 75 -111 84 l-26 16 -6 -49z"/>
<path d="M11198 10443 c6 -2 18 -2 25 0 6 3 1 5 -13 5 -14 0 -19 -2 -12 -5z"/>
<path d="M11148 10433 c7 -3 16 -2 19 1 4 3 -2 6 -13 5 -11 0 -14 -3 -6 -6z"/>
<path d="M1136 10408 c4 -7 32 -45 62 -85 41 -56 69 -81 125 -114 204 -120
351 -270 441 -447 15 -29 30 -52 34 -50 68 36 93 42 177 43 50 0 108 -4 131
-8 39 -8 41 -7 66 30 28 42 129 103 169 103 32 -1 153 -53 193 -84 18 -14 65
-36 103 -49 130 -46 204 -88 273 -157 36 -36 70 -73 75 -82 9 -17 26 -15 249
22 132 22 241 42 243 44 2 2 -7 6 -21 10 -55 14 -347 142 -626 274 -649 307
-846 377 -1450 512 -246 55 -255 56 -244 38z"/>
<path d="M484 10224 c-5 -16 -8 -103 -8 -194 0 -125 4 -184 18 -243 35 -154
104 -283 200 -377 25 -24 46 -47 46 -51 0 -9 -55 -17 -251 -34 -245 -21 -242
-21 -235 -57 5 -25 81 -206 91 -216 2 -2 40 4 85 12 112 22 221 20 315 -4 43
-11 79 -19 79 -18 1 2 9 20 19 41 17 38 94 97 127 97 27 0 139 -49 194 -84 29
-18 71 -55 94 -81 l42 -48 28 26 c32 31 80 52 162 71 l59 14 53 -38 c79 -56
133 -130 173 -233 13 -34 25 -60 25 -57 1 3 10 44 20 92 38 179 128 302 276
374 44 21 82 43 86 49 14 18 8 140 -8 196 -9 30 -29 80 -46 111 -29 55 -31 57
-81 64 -77 11 -201 7 -244 -6 -21 -7 -53 -24 -71 -37 -19 -14 -37 -21 -41 -17
-4 5 -18 34 -31 64 -56 134 -154 265 -318 421 -97 92 -108 100 -136 95 -93
-19 -202 -101 -228 -172 -7 -19 -15 -33 -19 -32 -3 2 -34 37 -68 78 -119 143
-219 208 -337 218 -63 5 -63 5 -70 -24z"/>
<path d="M2309 9753 c-65 -55 -73 -128 -37 -322 11 -64 22 -117 23 -119 1 -1
23 7 49 19 38 17 63 20 132 17 l84 -3 0 33 c0 49 -45 175 -90 251 -40 69 -105
151 -120 151 -5 0 -23 -12 -41 -27z"/>
<path d="M2654 9548 c55 -152 57 -158 64 -158 23 0 142 46 142 55 0 26 -54
117 -88 146 -34 30 -87 58 -140 74 -21 6 -20 2 22 -117z"/>
<path d="M946 8964 l-57 -47 -97 24 c-97 24 -221 31 -273 17 -34 -10 -39 -33
-27 -121 12 -88 53 -197 113 -299 47 -81 53 -98 32 -98 -19 0 -147 -64 -185
-93 -37 -28 -82 -84 -82 -102 0 -18 230 -255 318 -328 265 -221 533 -338 839
-369 67 -6 125 -9 128 -6 4 3 -5 29 -19 57 -39 76 -59 174 -52 255 5 64 3 72
-23 110 -69 100 -121 246 -121 339 0 89 79 226 170 294 47 35 50 39 44 73 -11
59 -50 132 -104 193 -29 31 -59 57 -69 57 -29 0 -112 -62 -145 -107 -17 -24
-39 -65 -48 -91 -10 -29 -19 -41 -22 -32 -57 159 -103 219 -237 304 -26 16
-27 16 -83 -30z"/>
<path d="M2185 5148 c13 -61 65 -174 117 -254 30 -45 102 -129 170 -198 65
-65 118 -120 118 -121 0 -1 -57 -36 -126 -76 l-126 -74 69 -64 c77 -71 220
-189 336 -275 42 -32 77 -61 77 -65 0 -3 -46 -36 -101 -72 l-101 -67 65 -31
c35 -17 102 -40 148 -50 85 -20 337 -47 347 -37 3 3 -36 88 -86 188 -100 202
-112 236 -112 321 0 148 80 226 333 327 l142 57 50 99 c57 113 97 174 149 223
20 19 36 39 36 43 0 4 -33 8 -73 8 -288 0 -1023 73 -1322 131 -55 10 -104 19
-108 19 -5 0 -6 -15 -2 -32z"/>
<path d="M4900 4551 c0 -142 45 -413 86 -515 6 -17 4 -18 -22 -13 -16 4 -63
10 -105 13 -93 8 -164 -7 -210 -45 l-34 -28 13 -72 c16 -96 50 -176 119 -279
57 -87 221 -259 321 -337 28 -22 50 -44 49 -49 -2 -4 -43 -23 -93 -41 -101
-36 -204 -88 -229 -116 -16 -17 -14 -20 40 -55 150 -95 413 -205 636 -264
l106 -28 46 177 46 176 -20 80 c-42 175 -45 390 -7 544 32 132 116 249 212
296 93 45 160 57 325 59 l155 3 53 57 c109 117 148 249 103 353 -12 28 -34 63
-49 77 l-28 27 -80 -30 c-44 -17 -118 -51 -166 -75 l-86 -44 -33 42 c-42 54
-88 93 -162 141 l-60 38 -55 -59 c-31 -33 -71 -89 -90 -124 -19 -36 -35 -66
-37 -68 -1 -2 -33 22 -71 52 -78 64 -239 148 -328 172 -36 10 -117 19 -202 21
l-143 5 0 -91z"/>
<path d="M3202 3422 l-31 -67 69 -67 c81 -79 188 -144 325 -197 88 -35 304
-101 329 -101 6 0 -26 24 -70 54 -94 65 -148 119 -183 182 -24 42 -33 49 -107
79 -116 46 -199 93 -254 142 l-48 43 -30 -68z"/>
<path d="M4734 3344 c-70 -91 -308 -265 -513 -374 -75 -40 -140 -87 -242 -174
-76 -65 -139 -122 -139 -126 0 -10 120 -94 205 -143 111 -64 258 -121 405
-156 127 -31 327 -61 404 -61 23 0 46 -3 49 -7 4 -3 -42 -34 -101 -68 -102
-58 -114 -62 -190 -68 -85 -7 -201 -44 -192 -62 11 -25 418 -192 669 -275 255
-84 693 -190 786 -190 14 0 25 -4 25 -9 0 -14 -81 -118 -184 -236 -52 -60 -96
-113 -96 -117 0 -12 151 -65 260 -92 172 -42 334 -59 565 -60 l210 -1 243 133
c134 74 246 132 248 130 2 -3 -93 -80 -210 -171 -225 -176 -240 -192 -287
-310 -22 -55 -34 -146 -21 -165 11 -16 198 18 481 88 113 28 208 47 212 43 4
-4 22 -43 40 -86 l32 -77 46 27 c59 34 147 102 188 145 l32 33 -85 575 c-47
316 -87 576 -89 578 -6 6 -65 -20 -320 -138 -350 -162 -486 -206 -621 -197
-108 6 -150 35 -229 155 -77 119 -91 132 -183 170 -209 87 -394 254 -517 466
l-50 85 -75 16 c-184 41 -450 141 -640 241 -128 68 -290 166 -290 175 0 26
178 141 257 166 29 9 53 20 53 25 0 4 -24 39 -54 78 l-55 70 -27 -36z"/>
<path d="M9925 2939 c-651 -27 -1229 -94 -1768 -205 -156 -32 -447 -103 -489
-119 -13 -5 -18 -2 -18 11 0 9 -2 15 -4 13 -2 -2 3 -63 12 -135 l17 -131 150
44 c746 214 1715 333 2725 333 740 0 1613 -108 2696 -333 l211 -44 16 116 c9
71 12 118 6 122 -12 7 -501 97 -784 144 -587 97 -1132 159 -1635 185 -221 11
-850 11 -1135 -1z"/>
<path d="M10280 1953 c-691 -12 -1355 -77 -1890 -183 -313 -62 -620 -142 -620
-162 0 -23 71 -571 75 -578 2 -3 15 -85 29 -181 38 -255 35 -242 54 -234 50
20 362 100 522 134 435 94 885 151 1435 182 283 17 1026 17 1235 1 577 -45
1116 -122 1785 -256 176 -36 321 -63 323 -61 8 8 135 996 129 1002 -16 15
-810 160 -1167 212 -554 82 -1276 137 -1675 129 -55 -1 -161 -3 -235 -5z"/>
<path d="M10270 769 c-639 -16 -1239 -93 -1761 -224 -166 -42 -471 -133 -482
-144 -4 -4 32 -26 80 -49 342 -158 901 -272 1617 -328 230 -18 219 -20 231 45
10 55 77 189 128 258 163 219 462 327 742 268 161 -34 342 -158 438 -299 45
-66 107 -207 107 -244 0 -12 7 -25 17 -29 37 -14 577 44 859 92 285 49 535
115 693 183 96 42 185 91 178 98 -7 7 -294 74 -527 124 -751 160 -1354 241
-1880 253 -91 2 -289 0 -440 -4z"/>
</g>
</svg>
