<svg width="37" height="36" viewBox="0 0 37 36" fill="none" xmlns="http://www.w3.org/2000/svg">
<path d="M8.19386 8.93285C8.12684 8.91609 8.05981 8.88257 8.00955 8.84905C7.95928 8.81553 7.90901 8.76525 7.87549 8.69822C7.84198 8.63118 7.82522 8.56414 7.80847 8.48034C7.79171 8.39654 7.79171 8.31274 7.80847 8.2457C7.82522 8.17866 7.84198 8.11162 7.89225 8.06134C7.92576 8.01106 7.97603 7.96078 8.04306 7.92726C8.11008 7.89375 8.17711 7.86023 8.26089 7.86023C8.34467 7.84347 8.4117 7.84347 8.47872 7.86023C8.54575 7.87699 8.61278 7.91051 8.66305 7.94402C8.71332 7.97754 8.76359 8.04458 8.7971 8.09486C8.83061 8.1619 8.84737 8.22894 8.86412 8.31274C8.88088 8.39654 8.88088 8.48034 8.86412 8.54738C8.84737 8.61442 8.83061 8.68145 8.7971 8.73173C8.76359 8.78201 8.71331 8.83229 8.64629 8.86581C8.57926 8.89933 8.51224 8.91609 8.42846 8.93285C8.32792 8.94961 8.26089 8.94961 8.19386 8.93285ZM8.57926 8.63118C8.61278 8.56414 8.62953 8.46358 8.61278 8.36302C8.59602 8.2457 8.56251 8.1619 8.49548 8.11162C8.44521 8.06134 8.36143 8.02782 8.26089 8.04458C8.16035 8.06134 8.09333 8.09486 8.05981 8.17866C8.0263 8.2457 8.00954 8.34626 8.0263 8.44682C8.04306 8.56414 8.07657 8.64794 8.1436 8.69822C8.19386 8.74849 8.27765 8.76525 8.36143 8.76525C8.44521 8.76525 8.54575 8.69821 8.57926 8.63118Z" fill="white"/>
<path d="M9.13174 7.75977C9.13174 7.9106 9.13174 7.97764 9.13174 8.12848C9.04796 8.14524 9.01445 8.14524 8.93066 8.162C8.94742 8.01116 8.96417 7.92736 8.98093 7.77653C9.04796 7.77653 9.08147 7.75977 9.13174 7.75977Z" fill="white"/>
<path d="M9.81874 7.86046C9.60091 7.89398 9.50037 7.89397 9.28254 7.92749C9.26578 7.86046 9.26578 7.81018 9.24902 7.74314C9.5674 7.69286 9.73496 7.6761 10.0533 7.64258C10.0533 7.70962 10.0701 7.74314 10.0701 7.81018C9.88577 8.11185 9.80199 8.26269 9.61767 8.56437C9.8355 8.53085 9.9528 8.51409 10.1874 8.49733C10.1874 8.58113 10.1874 8.61465 10.1874 8.68168C9.86901 8.7152 9.70145 8.74872 9.38308 8.78224C9.36632 8.7152 9.36632 8.68168 9.36632 8.63141C9.55064 8.31297 9.63442 8.16213 9.81874 7.86046Z" fill="white"/>
<path d="M10.6233 7.55944C10.7071 7.54269 10.7742 7.54269 10.8244 7.55944C10.8747 7.5762 10.925 7.57621 10.9585 7.60972C10.992 7.62648 11.0087 7.66 11.0255 7.69352C11.0423 7.72704 11.059 7.76056 11.059 7.79408C11.059 7.8276 11.059 7.87788 11.0423 7.9114C11.0255 7.94492 10.992 7.97844 10.9417 8.01196C10.9752 8.02872 11.0087 8.04548 11.0255 8.06224C11.0423 8.079 11.059 8.09576 11.0758 8.11252C11.0925 8.12928 11.0925 8.14604 11.1093 8.17956C11.1093 8.19632 11.126 8.22984 11.126 8.2466C11.126 8.29688 11.126 8.33039 11.126 8.38067C11.1093 8.41419 11.0925 8.46447 11.0758 8.48123C11.0423 8.51475 11.0087 8.53151 10.9585 8.56503C10.9082 8.58179 10.8412 8.59855 10.7742 8.61531C10.6066 8.63207 10.5228 8.64883 10.3552 8.66559C10.305 8.2466 10.2715 8.04548 10.2212 7.62648C10.3888 7.59296 10.4558 7.59296 10.6233 7.55944ZM10.8077 7.92816C10.8244 7.9114 10.8412 7.87788 10.8244 7.8276C10.8244 7.77732 10.8077 7.76056 10.7742 7.7438C10.7406 7.72704 10.6904 7.72704 10.6233 7.72704C10.5563 7.72704 10.5228 7.7438 10.4558 7.7438C10.4725 7.84436 10.4725 7.89464 10.4893 7.97844C10.5731 7.96168 10.6066 7.96168 10.6904 7.96168C10.7574 7.96168 10.7909 7.96168 10.8077 7.92816ZM10.8244 8.41419C10.8412 8.39743 10.8747 8.39743 10.8747 8.38067C10.8914 8.36391 10.8914 8.34715 10.9082 8.33039C10.9082 8.31364 10.9082 8.29688 10.9082 8.26336C10.9082 8.21308 10.8915 8.17956 10.8579 8.1628C10.8244 8.14604 10.7909 8.12928 10.7239 8.14604C10.6401 8.1628 10.5898 8.1628 10.5061 8.1628C10.5228 8.28012 10.5228 8.3304 10.5396 8.44771C10.6233 8.43095 10.6569 8.43095 10.7239 8.43095C10.7742 8.43095 10.8077 8.43095 10.8244 8.41419Z" fill="white"/>
<path d="M11.964 7.42578C11.964 7.49282 11.9808 7.5431 11.9808 7.61014C11.7797 7.6269 11.6624 7.64366 11.4613 7.66042C11.4781 7.74422 11.4781 7.7945 11.4781 7.89505C11.6791 7.8783 11.7629 7.86154 11.964 7.84478C11.964 7.91181 11.9808 7.96209 11.9808 8.02913C11.7797 8.04589 11.6959 8.06265 11.4948 8.07941C11.5116 8.17997 11.5116 8.23025 11.5283 8.33081C11.7462 8.31405 11.8635 8.29729 12.0813 8.28053C12.0813 8.34757 12.0813 8.39785 12.0813 8.46489C11.7797 8.49841 11.6289 8.51517 11.3273 8.54869C11.277 8.12969 11.2602 7.92857 11.21 7.50958C11.5116 7.47606 11.6624 7.4593 11.964 7.42578Z" fill="white"/>
<path d="M12.3998 7.39208C12.4165 7.55967 12.4165 7.64347 12.4333 7.81107C12.5841 7.62671 12.6511 7.54291 12.8019 7.35856C12.9025 7.35856 12.9527 7.3418 13.0533 7.3418C12.9192 7.50939 12.8522 7.59319 12.7182 7.76079C12.9025 8.01219 12.9863 8.12951 13.1706 8.3809C13.07 8.3809 13.0198 8.39766 12.9192 8.39766C12.7852 8.19655 12.7182 8.11275 12.5673 7.91163C12.5171 7.96191 12.5003 7.99543 12.4501 8.04571C12.4668 8.19655 12.4668 8.28034 12.4836 8.43118C12.3998 8.43118 12.3495 8.44794 12.249 8.44794C12.2155 8.02895 12.1987 7.82783 12.1484 7.40884C12.249 7.39208 12.2992 7.39208 12.3998 7.39208Z" fill="white"/>
<path d="M13.4385 7.30664C13.4721 7.72564 13.4888 7.92675 13.5223 8.34575C13.4385 8.34575 13.3883 8.36251 13.3045 8.36251C13.271 7.94351 13.2542 7.7424 13.2207 7.3234C13.2877 7.30664 13.338 7.30664 13.4385 7.30664Z" fill="white"/>
<path d="M13.9412 8.11288C13.9748 8.1464 14.0418 8.1464 14.1088 8.1464C14.1423 8.1464 14.1758 8.1464 14.1926 8.12964C14.2093 8.11288 14.2429 8.11288 14.2429 8.09612C14.2596 8.07936 14.2596 8.0626 14.2764 8.04584C14.2764 8.02908 14.2764 8.01232 14.2764 7.99556C14.2764 7.96204 14.2596 7.94528 14.2429 7.92852C14.2261 7.91176 14.1758 7.895 14.1256 7.87824C14.0753 7.87824 14.0418 7.86148 13.9748 7.86148C13.9245 7.86148 13.8742 7.84472 13.8239 7.82796C13.7737 7.8112 13.7402 7.79444 13.7067 7.77768C13.6731 7.76092 13.6564 7.7274 13.6396 7.69388C13.6229 7.66036 13.6061 7.61008 13.6061 7.5598C13.6061 7.50953 13.6061 7.45925 13.6229 7.42573C13.6396 7.39221 13.6731 7.35869 13.7067 7.32517C13.7402 7.29165 13.7904 7.27489 13.8407 7.25813C13.891 7.24137 13.958 7.22461 14.0083 7.22461C14.092 7.22461 14.1591 7.22461 14.2093 7.24137C14.2596 7.25813 14.3099 7.27489 14.3434 7.30841C14.3769 7.34193 14.4104 7.37545 14.4272 7.40897C14.4439 7.44249 14.4607 7.49277 14.4607 7.52629C14.3769 7.54305 14.3266 7.54305 14.2429 7.5598C14.2261 7.50953 14.2093 7.45925 14.1758 7.44249C14.1423 7.42573 14.0921 7.40897 14.025 7.40897C13.9915 7.40897 13.958 7.40897 13.9245 7.42573C13.9077 7.42573 13.8742 7.44249 13.8575 7.45925C13.8407 7.47601 13.8407 7.47601 13.8239 7.49277C13.8239 7.50953 13.8239 7.52629 13.8239 7.54305C13.8239 7.57656 13.8407 7.61008 13.8575 7.62684C13.8742 7.6436 13.9245 7.66036 13.9748 7.66036C14.0418 7.66036 14.0585 7.67712 14.1256 7.67712C14.2429 7.69388 14.3266 7.7274 14.3937 7.77768C14.4439 7.82796 14.4774 7.895 14.4942 7.99556C14.4942 8.04584 14.4942 8.07936 14.4775 8.12964C14.4607 8.16316 14.4439 8.19668 14.4104 8.2302C14.3769 8.26372 14.3266 8.28048 14.2764 8.29724C14.2261 8.314 14.1591 8.33075 14.092 8.33075C13.9412 8.34751 13.8239 8.314 13.7402 8.26372C13.6564 8.21344 13.6061 8.11288 13.5894 7.99556C13.6899 7.99556 13.7234 7.9788 13.8239 7.9788C13.8742 8.04584 13.9077 8.07936 13.9412 8.11288Z" fill="white"/>
<path d="M14.5612 7.42604C14.5612 7.34224 14.5612 7.30872 14.5444 7.24169C14.8963 7.22493 15.0806 7.20817 15.4325 7.19141C15.4325 7.27521 15.4325 7.30872 15.4325 7.37576C15.2985 7.37576 15.2314 7.39252 15.0974 7.39252C15.1142 7.72772 15.1142 7.91208 15.1309 8.24727C15.0471 8.24727 14.9969 8.24727 14.8963 8.26403C14.8796 7.92884 14.8628 7.74448 14.846 7.40928C14.7623 7.40928 14.6952 7.40928 14.5612 7.42604Z" fill="white"/>
<path d="M15.8512 8.19485C15.7842 8.17809 15.7339 8.14457 15.6837 8.0943C15.6334 8.04402 15.5999 7.99374 15.5664 7.9267C15.5329 7.85966 15.5329 7.79262 15.5161 7.69206C15.5161 7.60826 15.5161 7.52446 15.5496 7.45742C15.5664 7.39038 15.5999 7.32335 15.6502 7.27307C15.7004 7.22279 15.7507 7.18927 15.8177 7.15575C15.8848 7.12223 15.9518 7.10547 16.0356 7.10547C16.1193 7.10547 16.1864 7.10547 16.2534 7.13899C16.3204 7.15575 16.3707 7.18927 16.421 7.23955C16.4712 7.28983 16.5047 7.34011 16.5215 7.40714C16.555 7.47418 16.555 7.55798 16.555 7.64178C16.555 7.72558 16.555 7.80938 16.5215 7.87642C16.5047 7.94346 16.4712 8.0105 16.421 8.04402C16.3707 8.0943 16.3204 8.12782 16.2702 8.16133C16.2031 8.19485 16.1361 8.21161 16.0523 8.21161C15.9853 8.22837 15.9183 8.22837 15.8512 8.19485ZM16.2702 7.94346C16.3204 7.87642 16.3372 7.79262 16.3372 7.6753C16.3372 7.55798 16.3037 7.47418 16.2534 7.40714C16.2031 7.34011 16.1361 7.32335 16.0356 7.32335C15.935 7.32335 15.868 7.35687 15.8177 7.4239C15.7675 7.49094 15.7507 7.57474 15.7507 7.69206C15.7507 7.80938 15.7842 7.89318 15.8345 7.96022C15.8848 8.02726 15.9518 8.04402 16.0523 8.04402C16.1696 8.04402 16.2366 8.0105 16.2702 7.94346Z" fill="white"/>
<path d="M16.9574 7.13981C17.1417 7.40796 17.2423 7.54204 17.4266 7.8102C17.4266 7.54204 17.4266 7.3912 17.4099 7.12305C17.4936 7.12305 17.5439 7.12305 17.6277 7.12305C17.6277 7.54204 17.6277 7.74316 17.6444 8.16215C17.5607 8.16215 17.5271 8.16215 17.4434 8.16215C17.259 7.894 17.1753 7.75992 16.9742 7.49176C16.9742 7.75992 16.9742 7.894 16.9909 8.17891C16.9072 8.17891 16.8569 8.17891 16.7731 8.17891C16.7563 7.75992 16.7563 7.5588 16.7563 7.13981C16.8401 7.13981 16.8736 7.13981 16.9574 7.13981Z" fill="white"/>
<path d="M18.5993 7.12305C18.683 7.12305 18.7501 7.13981 18.8171 7.15657C18.8674 7.17333 18.9176 7.20685 18.9512 7.24037C18.9847 7.27388 19.0014 7.3074 19.0182 7.34092C19.0349 7.37444 19.0349 7.40796 19.0349 7.45824C19.0349 7.52528 19.0182 7.57556 19.0014 7.62584C18.9679 7.67612 18.9344 7.70964 18.8674 7.74316C18.9512 7.92752 19.0014 8.01132 19.0852 8.19567C18.9847 8.19567 18.9344 8.19567 18.8339 8.19567C18.7668 8.04483 18.7333 7.96104 18.6495 7.8102C18.5658 7.8102 18.5155 7.8102 18.4317 7.8102C18.4317 7.96104 18.4317 8.04483 18.4317 8.19567C18.3479 8.19567 18.2976 8.19567 18.2139 8.19567C18.2139 7.77668 18.2139 7.57556 18.2139 7.15657C18.3647 7.12305 18.4317 7.12305 18.5993 7.12305ZM18.6998 7.59232C18.7166 7.59232 18.7501 7.57556 18.7501 7.5588C18.7668 7.54204 18.7668 7.52528 18.7836 7.50852C18.7836 7.49176 18.7836 7.475 18.7836 7.44148C18.7836 7.42472 18.7836 7.40796 18.7668 7.3912C18.7668 7.37444 18.7501 7.35768 18.7333 7.34092C18.7166 7.32416 18.6998 7.32416 18.6663 7.3074C18.6328 7.3074 18.5993 7.29064 18.5658 7.29064C18.4987 7.29064 18.4652 7.29064 18.4149 7.29064C18.4149 7.40796 18.4149 7.45824 18.4149 7.57556C18.482 7.57556 18.5155 7.57556 18.5993 7.57556C18.6495 7.59232 18.6663 7.59232 18.6998 7.59232Z" fill="white"/>
<path d="M19.9567 7.13981C19.9567 7.20685 19.9567 7.25713 19.9567 7.32416C19.7556 7.32416 19.6383 7.32416 19.4372 7.3074C19.4372 7.3912 19.4372 7.44148 19.4372 7.54204C19.6383 7.54204 19.7221 7.54204 19.9232 7.5588C19.9232 7.62584 19.9232 7.67612 19.9232 7.74316C19.7221 7.74316 19.6383 7.74316 19.4372 7.7264C19.4372 7.82696 19.4372 7.87724 19.4372 7.9778C19.6551 7.9778 19.7724 7.9778 19.9902 7.99456C19.9734 8.06159 19.9734 8.11187 19.9567 8.17891C19.6551 8.17891 19.5043 8.16215 19.2026 8.16215C19.2026 7.74316 19.2194 7.54204 19.2194 7.12305C19.521 7.13981 19.6718 7.13981 19.9567 7.13981Z" fill="white"/>
<path d="M20.3423 7.99487C20.3758 8.02839 20.4428 8.04515 20.5099 8.04515C20.5434 8.04515 20.5769 8.04515 20.5936 8.04515C20.6104 8.04515 20.6439 8.02839 20.6607 8.01163C20.6774 7.99487 20.6942 7.97811 20.6942 7.96135C20.6942 7.94459 20.7109 7.92783 20.7109 7.91107C20.7109 7.87755 20.6942 7.86079 20.6774 7.82727C20.6607 7.81051 20.6104 7.77699 20.5601 7.77699C20.5099 7.76024 20.4764 7.76024 20.4261 7.74348C20.3758 7.72672 20.3255 7.70996 20.2753 7.6932C20.225 7.67644 20.1915 7.65968 20.1747 7.62616C20.1412 7.59264 20.1245 7.57588 20.1077 7.5256C20.091 7.49208 20.091 7.4418 20.091 7.39152C20.091 7.34124 20.1077 7.29096 20.1245 7.25744C20.1412 7.22392 20.1747 7.1904 20.2082 7.15688C20.2418 7.14012 20.292 7.1066 20.3423 7.1066C20.3926 7.08984 20.4596 7.08984 20.5099 7.08984C20.5936 7.08984 20.6607 7.1066 20.7109 7.12336C20.7612 7.14012 20.8115 7.17364 20.845 7.1904C20.8785 7.22392 20.8953 7.25744 20.912 7.29096C20.9288 7.32448 20.9288 7.37476 20.9455 7.40828C20.8617 7.40828 20.8115 7.42504 20.7277 7.42504C20.7109 7.37476 20.6942 7.32448 20.6607 7.29096C20.6272 7.25744 20.5769 7.25744 20.5099 7.24068C20.4764 7.24068 20.4428 7.24068 20.4093 7.24068C20.3758 7.24068 20.3591 7.25744 20.3423 7.25744C20.3255 7.2742 20.3088 7.2742 20.3088 7.29096C20.3088 7.30772 20.292 7.32448 20.292 7.34124C20.292 7.37476 20.3088 7.40828 20.3255 7.42504C20.3423 7.4418 20.3926 7.45856 20.4428 7.47532C20.5099 7.49208 20.5266 7.49208 20.5936 7.50884C20.7109 7.54236 20.7947 7.57588 20.845 7.62616C20.8953 7.67644 20.9288 7.76023 20.912 7.84403C20.912 7.89431 20.8953 7.92783 20.8785 7.96135C20.8617 7.99487 20.8282 8.02839 20.7947 8.06191C20.7612 8.09543 20.7109 8.11219 20.6607 8.12895C20.6104 8.14571 20.5434 8.14571 20.4764 8.14571C20.3255 8.14571 20.2082 8.11219 20.1412 8.04515C20.0574 7.97811 20.0239 7.89431 20.0239 7.76023C20.1245 7.76023 20.158 7.76023 20.2585 7.76023C20.292 7.92783 20.3088 7.96135 20.3423 7.99487Z" fill="white"/>
<path d="M21.5322 7.20735C21.616 7.20735 21.683 7.22411 21.7333 7.24087C21.7835 7.25763 21.8338 7.29115 21.8673 7.32467C21.9008 7.35819 21.9176 7.39171 21.9344 7.42522C21.9511 7.45874 21.9511 7.50902 21.9511 7.54254C21.9511 7.59282 21.9344 7.62634 21.9176 7.67662C21.9008 7.71014 21.8841 7.76042 21.8506 7.77718C21.8171 7.8107 21.7668 7.82746 21.7165 7.84422C21.6662 7.86098 21.5992 7.86098 21.5154 7.86098C21.4484 7.86098 21.4149 7.86098 21.3479 7.86098C21.3479 8.01182 21.3311 8.07886 21.3311 8.22969C21.2473 8.22969 21.1971 8.22969 21.1133 8.21293C21.13 7.79394 21.1468 7.59282 21.1636 7.17383C21.2976 7.19059 21.3814 7.19059 21.5322 7.20735ZM21.616 7.67662C21.6495 7.67662 21.6662 7.65986 21.683 7.6431C21.6998 7.62634 21.7165 7.60958 21.7165 7.59282C21.7165 7.57606 21.7333 7.5593 21.7333 7.52578C21.7333 7.50902 21.7333 7.4755 21.7333 7.45874C21.7333 7.44198 21.7165 7.42523 21.6998 7.40847C21.683 7.39171 21.6662 7.39171 21.6327 7.37495C21.5992 7.37495 21.5657 7.35819 21.5322 7.35819C21.4652 7.35819 21.4317 7.35819 21.3646 7.35819C21.3646 7.4755 21.3479 7.54254 21.3479 7.67662C21.4149 7.67662 21.4484 7.67662 21.5154 7.67662C21.549 7.69338 21.5825 7.69338 21.616 7.67662Z" fill="white"/>
<path d="M22.3363 7.24137C22.3195 7.49277 22.3195 7.61008 22.3028 7.86148C22.3028 7.94528 22.3028 8.01232 22.3363 8.0626C22.3698 8.11288 22.4201 8.12964 22.4871 8.12964C22.5709 8.12964 22.6211 8.11288 22.6547 8.07936C22.6882 8.04584 22.7049 7.9788 22.7217 7.87824C22.7384 7.62684 22.7384 7.50953 22.7552 7.25813C22.839 7.25813 22.8892 7.27489 22.9898 7.27489C22.973 7.52629 22.9563 7.6436 22.9395 7.895C22.9395 7.9788 22.9228 8.04584 22.8892 8.09612C22.8725 8.1464 22.839 8.19668 22.7887 8.2302C22.7552 8.26372 22.7049 8.28048 22.6379 8.29724C22.5876 8.314 22.5206 8.31399 22.4536 8.31399C22.3866 8.31399 22.3195 8.29724 22.2693 8.28048C22.219 8.26372 22.1687 8.2302 22.1352 8.19668C22.1017 8.16316 22.0682 8.11288 22.0514 8.04584C22.0347 7.99556 22.0347 7.91176 22.0347 7.84472C22.0514 7.59332 22.0514 7.47601 22.0682 7.22461C22.2022 7.24137 22.2357 7.24137 22.3363 7.24137Z" fill="white"/>
<path d="M23.593 7.3234C23.6768 7.3234 23.7438 7.34016 23.7941 7.35692C23.8444 7.37368 23.8779 7.4072 23.9114 7.42396C23.9449 7.45748 23.9617 7.491 23.9617 7.52452C23.9784 7.55804 23.9784 7.59156 23.9617 7.64184C23.9617 7.67536 23.9449 7.72564 23.9282 7.75915C23.9114 7.79267 23.8611 7.82619 23.8109 7.84295C23.8444 7.85971 23.8611 7.87647 23.8946 7.89323C23.9114 7.90999 23.9282 7.92675 23.9449 7.96027C23.9617 7.97703 23.9617 8.01055 23.9617 8.02731C23.9617 8.04407 23.9617 8.07759 23.9617 8.09435C23.9617 8.14463 23.9449 8.17815 23.9282 8.21167C23.9114 8.24519 23.8779 8.27871 23.8444 8.31223C23.8109 8.34575 23.7606 8.36251 23.7103 8.36251C23.66 8.37927 23.593 8.37927 23.5092 8.37927C23.3417 8.36251 23.2579 8.36251 23.0903 8.34575C23.1238 7.92675 23.1406 7.72564 23.1741 7.30664C23.3584 7.30664 23.4422 7.3234 23.593 7.3234ZM23.7103 7.72564C23.7271 7.70888 23.7438 7.67536 23.7438 7.64184C23.7438 7.59156 23.7271 7.5748 23.7103 7.54128C23.6768 7.52452 23.6265 7.50776 23.5595 7.50776C23.4925 7.50776 23.459 7.50776 23.3919 7.491C23.3919 7.59156 23.3752 7.64184 23.3752 7.72564C23.459 7.72564 23.4925 7.7424 23.5763 7.7424C23.6433 7.7424 23.6936 7.74239 23.7103 7.72564ZM23.6433 8.19491C23.6768 8.19491 23.6936 8.17815 23.7103 8.17815C23.7271 8.16139 23.7438 8.14463 23.7438 8.12787C23.7438 8.11111 23.7606 8.09435 23.7606 8.06083C23.7606 8.01055 23.7606 7.97703 23.7271 7.96027C23.7103 7.92675 23.6601 7.92675 23.593 7.90999C23.5092 7.90999 23.459 7.89323 23.3752 7.89323C23.3584 8.01055 23.3584 8.06083 23.3584 8.17815C23.4422 8.17815 23.4757 8.19491 23.5428 8.19491C23.5763 8.21167 23.6098 8.21167 23.6433 8.19491Z" fill="white"/>
<path d="M24.4137 7.40934C24.3802 7.74453 24.3635 7.92889 24.33 8.26409C24.531 8.28085 24.6316 8.29761 24.8494 8.31437C24.8327 8.38141 24.8159 8.43168 24.7991 8.49872C24.5143 8.4652 24.3635 8.4652 24.0786 8.43168C24.1121 8.01269 24.1289 7.81157 24.1624 7.39258C24.2797 7.39258 24.33 7.39258 24.4137 7.40934Z" fill="white"/>
<path d="M25.319 7.49137C25.2687 7.91036 25.252 8.11148 25.2017 8.53048C25.1179 8.51372 25.0677 8.51372 24.9839 8.51372C25.0342 8.09472 25.0509 7.8936 25.0844 7.47461C25.185 7.47461 25.2352 7.47461 25.319 7.49137Z" fill="white"/>
<path d="M25.771 7.54226C25.7542 7.70986 25.7375 7.79366 25.7207 7.96125C25.905 7.81042 25.9888 7.74338 26.1731 7.59254C26.2737 7.6093 26.324 7.6093 26.4245 7.62606C26.2569 7.76014 26.1731 7.82717 26.0223 7.97801C26.1564 8.26293 26.2234 8.39701 26.3407 8.68192C26.2402 8.66516 26.1899 8.66516 26.0894 8.6484C25.9888 8.43053 25.9386 8.32997 25.838 8.11209C25.7877 8.16237 25.7542 8.17913 25.6872 8.22941C25.6704 8.38025 25.6537 8.46405 25.6369 8.61488C25.5532 8.59812 25.5029 8.59812 25.4023 8.59812C25.4526 8.17913 25.4694 7.97801 25.5196 7.55902C25.6369 7.5255 25.6872 7.5255 25.771 7.54226Z" fill="white"/>
<path d="M27.1618 7.71125C27.2791 8.14701 27.3293 8.36489 27.4299 8.80064C27.3293 8.78388 27.2791 8.78388 27.1953 8.76712C27.1785 8.66656 27.1618 8.61628 27.145 8.51572C26.9942 8.49896 26.9104 8.4822 26.7596 8.46544C26.7093 8.54924 26.6926 8.59952 26.6423 8.70008C26.5418 8.68332 26.5083 8.68332 26.4077 8.66656C26.6255 8.26433 26.7261 8.07997 26.9439 7.67773C27.0277 7.69449 27.078 7.69449 27.1618 7.71125ZM27.0109 7.94589C26.9439 8.07997 26.9104 8.16377 26.8266 8.29785C26.9272 8.31461 26.9774 8.31461 27.0947 8.33137C27.0612 8.18053 27.0445 8.09673 27.0109 7.94589Z" fill="white"/>
<path d="M27.7821 8.64885C27.8157 8.68237 27.8659 8.69913 27.9497 8.71589C27.9832 8.71589 28.0167 8.71589 28.0335 8.71589C28.067 8.71589 28.0838 8.69913 28.1005 8.69913C28.1173 8.68237 28.134 8.68237 28.134 8.66561C28.1508 8.64885 28.1508 8.63209 28.1508 8.61533C28.1508 8.58181 28.1508 8.56505 28.134 8.53153C28.1173 8.49801 28.0838 8.48125 28.0167 8.46449C27.9665 8.44773 27.9329 8.43097 27.8827 8.41422C27.8324 8.39746 27.7821 8.3807 27.7486 8.34718C27.7151 8.33042 27.6816 8.2969 27.6481 8.26338C27.6146 8.22986 27.5978 8.19634 27.5978 8.16282C27.5811 8.1293 27.5811 8.07902 27.5978 8.02874C27.5978 7.97846 27.6146 7.94494 27.6481 7.89466C27.6816 7.86114 27.7151 7.82762 27.7486 7.81086C27.7821 7.7941 27.8324 7.77734 27.8827 7.77734C27.9329 7.77734 28 7.77734 28.0502 7.77734C28.134 7.7941 28.201 7.81086 28.2513 7.82762C28.3016 7.86114 28.3351 7.8779 28.3686 7.91142C28.4021 7.94494 28.4189 7.97846 28.4189 8.02874C28.4356 8.06226 28.4356 8.11254 28.4356 8.14606C28.3519 8.14606 28.3016 8.14606 28.2178 8.14606C28.2178 8.09578 28.201 8.0455 28.1675 8.01198C28.134 7.97846 28.1005 7.9617 28.0335 7.94494C28 7.94494 27.9665 7.94494 27.9329 7.94494C27.8994 7.94494 27.8827 7.94494 27.8659 7.9617C27.8492 7.9617 27.8324 7.97846 27.8324 7.99522C27.8324 8.01198 27.8157 8.02874 27.8157 8.02874C27.8157 8.06226 27.8157 8.09578 27.8324 8.11254C27.8492 8.1293 27.8827 8.16282 27.9497 8.17958C28 8.19634 28.0335 8.2131 28.1005 8.22986C28.2178 8.26338 28.3016 8.31366 28.3351 8.3807C28.3854 8.43097 28.4021 8.51477 28.3854 8.61533C28.3854 8.66561 28.3686 8.69913 28.3351 8.73265C28.3183 8.76617 28.2848 8.79969 28.2346 8.81645C28.201 8.83321 28.1508 8.84997 28.1005 8.86673C28.0502 8.86673 27.9832 8.86673 27.9162 8.86673C27.7654 8.84997 27.6648 8.79969 27.5978 8.73265C27.5308 8.66561 27.4973 8.56505 27.514 8.44773C27.5978 8.46449 27.6481 8.46449 27.7486 8.48125C27.7486 8.56505 27.7486 8.61533 27.7821 8.64885Z" fill="white"/>
<path d="M28.9049 7.96125C28.8379 8.38025 28.8044 8.58137 28.7374 9.00036C28.6536 8.9836 28.6033 8.9836 28.5195 8.96684C28.5866 8.54785 28.6201 8.34673 28.6871 7.92773C28.7709 7.94449 28.8044 7.94449 28.9049 7.96125Z" fill="white"/>
<path d="M1.70893 12.1005C1.6419 12.1005 1.57487 12.067 1.52461 12.0335C1.47434 12 1.42407 11.9497 1.3738 11.8994C1.34029 11.8324 1.30677 11.7654 1.27326 11.6816C1.2565 11.5978 1.23975 11.5307 1.23975 11.4469C1.23975 11.3799 1.2565 11.3128 1.29002 11.2458C1.32353 11.1788 1.35704 11.1452 1.42407 11.095C1.47434 11.0614 1.54136 11.0279 1.62515 10.9944C1.70893 10.9776 1.77595 10.9609 1.84298 10.9776C1.91001 10.9944 1.97703 11.0112 2.0273 11.0447C2.07757 11.0782 2.12784 11.1285 2.16135 11.1788C2.19486 11.2458 2.22838 11.3128 2.24513 11.3966C2.26189 11.4804 2.27865 11.5475 2.26189 11.6313C2.26189 11.6983 2.24513 11.7654 2.21162 11.8156C2.17811 11.8659 2.1446 11.9162 2.07757 11.9665C2.01054 12.0168 1.96027 12.0335 1.87649 12.0503C1.84298 12.1006 1.77595 12.1173 1.70893 12.1005ZM2.04406 11.7654C2.07757 11.6983 2.07757 11.5978 2.04406 11.4804C2.01054 11.3631 1.97703 11.2961 1.91 11.2458C1.84298 11.1955 1.77595 11.1788 1.67542 11.2123C1.59163 11.229 1.52461 11.2793 1.49109 11.3631C1.45758 11.4302 1.45758 11.5307 1.49109 11.6313C1.52461 11.7486 1.57488 11.8156 1.62515 11.8659C1.69217 11.9162 1.7592 11.933 1.85973 11.8994C1.96027 11.8827 2.0273 11.8324 2.04406 11.7654Z" fill="white"/>
<path d="M2.54709 10.8281C2.63087 11.1633 2.66438 11.3309 2.74817 11.6661C2.94924 11.6158 3.04978 11.5991 3.23411 11.5488C3.23411 11.6158 3.25086 11.6661 3.25086 11.7332C2.98276 11.8002 2.84871 11.8337 2.56385 11.9008C2.46331 11.4985 2.41304 11.2974 2.3125 10.8952C2.41304 10.8449 2.46331 10.8449 2.54709 10.8281Z" fill="white"/>
<path d="M3.40158 10.6094C3.50212 11.0116 3.55239 11.2127 3.63617 11.6317C3.55239 11.6485 3.50212 11.6652 3.41834 11.682C3.3178 11.2798 3.26753 11.0786 3.16699 10.6597C3.26753 10.6429 3.3178 10.6261 3.40158 10.6094Z" fill="white"/>
<path d="M3.51855 10.5761C3.61909 10.5594 3.66936 10.5426 3.7699 10.5258C3.90395 10.6767 3.97098 10.7437 4.08827 10.8946C4.13854 10.7102 4.17206 10.6096 4.22233 10.4253C4.32286 10.4085 4.35638 10.3918 4.45692 10.375C4.37313 10.6432 4.32287 10.7772 4.23908 11.0622C4.2726 11.2297 4.28935 11.3135 4.33962 11.4811C4.25584 11.4979 4.20557 11.5147 4.12179 11.5314C4.08827 11.3638 4.07152 11.28 4.02125 11.1124C3.83693 10.8946 3.73639 10.794 3.51855 10.5761Z" fill="white"/>
<path d="M4.82551 10.4918C4.80875 10.4247 4.80875 10.3744 4.79199 10.3074C5.12712 10.2404 5.31144 10.2068 5.64657 10.123C5.66333 10.1901 5.66333 10.2404 5.68009 10.3074C5.54603 10.3409 5.49577 10.3409 5.36171 10.3744C5.42874 10.7096 5.46225 10.8772 5.52928 11.2124C5.4455 11.2292 5.39523 11.246 5.31144 11.2627C5.24442 10.9275 5.2109 10.7599 5.14388 10.4247C5.00983 10.4415 4.95956 10.4582 4.82551 10.4918Z" fill="white"/>
<path d="M6.14922 10.0234C6.38381 10.4089 6.50111 10.5933 6.7357 10.9787C6.63516 10.9955 6.60165 11.0123 6.50111 11.029C6.45084 10.9452 6.41733 10.8949 6.36706 10.8111C6.21625 10.8447 6.14923 10.8447 5.99842 10.8782C5.98166 10.9787 5.98166 11.029 5.9649 11.1296C5.88112 11.1463 5.83085 11.1631 5.74707 11.1799C5.8141 10.7441 5.86436 10.5095 5.93139 10.0737C6.03193 10.057 6.06544 10.0402 6.14922 10.0234ZM6.09895 10.2916C6.0822 10.4424 6.06544 10.5262 6.04868 10.6771C6.14922 10.6603 6.19949 10.6435 6.30003 10.6268C6.21625 10.4927 6.16598 10.4257 6.09895 10.2916Z" fill="white"/>
<path d="M6.75235 9.92188C6.73559 10.0727 6.73559 10.1565 6.71883 10.3073C6.65181 10.3241 6.6183 10.3241 6.56803 10.3409C6.56803 10.19 6.55127 10.123 6.55127 9.97215C6.6183 9.93863 6.66857 9.92188 6.75235 9.92188Z" fill="white"/>
<path d="M7.13775 9.83984C7.20478 10.175 7.22154 10.3426 7.28856 10.6778C7.48964 10.6443 7.59018 10.6276 7.79126 10.594C7.79126 10.6778 7.79126 10.7114 7.79126 10.7784C7.52315 10.8287 7.37234 10.8454 7.10424 10.8957C7.03722 10.4767 6.98695 10.2756 6.91992 9.87336C7.0037 9.87336 7.05397 9.8566 7.13775 9.83984Z" fill="white"/>
<path d="M8.00934 9.70508C8.07636 10.1241 8.10988 10.3252 8.1769 10.7442C8.09312 10.7609 8.04285 10.7609 7.95907 10.7777C7.89204 10.3587 7.85853 10.1576 7.7915 9.7386C7.87529 9.72184 7.92556 9.72184 8.00934 9.70508Z" fill="white"/>
<path d="M8.49516 9.62009C8.64596 9.90501 8.72975 10.0558 8.88055 10.3575C8.94758 10.0391 8.98109 9.87149 9.03136 9.55305C9.1319 9.53629 9.18217 9.53629 9.29947 9.51953C9.34974 9.93853 9.38325 10.1396 9.45027 10.5586C9.36649 10.5754 9.33298 10.5754 9.2492 10.5922C9.21568 10.324 9.18217 10.1732 9.14866 9.90501C9.09839 10.1899 9.06488 10.3408 9.01461 10.6257C8.94758 10.6424 8.91407 10.6424 8.84704 10.6592C8.71299 10.391 8.64596 10.2737 8.49516 10.0056C8.54542 10.2737 8.56218 10.4246 8.59569 10.6927C8.51191 10.7095 8.4784 10.7095 8.39462 10.7262C8.32759 10.3072 8.29408 10.1061 8.22705 9.68713C8.32759 9.65361 8.37786 9.63685 8.49516 9.62009Z" fill="white"/>
<path d="M9.80249 10.2578C9.78573 10.4087 9.78573 10.4924 9.76897 10.6433C9.70195 10.66 9.66843 10.66 9.61816 10.66C9.61816 10.5092 9.61816 10.4422 9.61816 10.2913C9.68519 10.2746 9.7187 10.2578 9.80249 10.2578Z" fill="white"/>
<path d="M10.908 9.30273C10.9248 9.36977 10.9248 9.42005 10.9248 9.48709C10.7405 9.50385 10.6399 9.52061 10.4388 9.53737C10.4556 9.63793 10.4556 9.68821 10.4724 9.78877C10.6567 9.77201 10.7405 9.75525 10.9248 9.73849C10.9415 9.80553 10.9415 9.85581 10.9415 9.92285C10.7572 9.93961 10.6734 9.95637 10.4891 9.97313C10.5059 10.1407 10.5226 10.2245 10.5394 10.3921C10.4556 10.4089 10.4053 10.4089 10.3215 10.4256C10.2713 10.0066 10.2378 9.80553 10.1875 9.38653C10.4891 9.35301 10.6232 9.33625 10.908 9.30273Z" fill="white"/>
<path d="M11.5115 9.23633C11.7126 9.63856 11.8131 9.83968 12.0142 10.2419C11.9136 10.2587 11.8801 10.2587 11.7796 10.2587C11.7293 10.1581 11.7126 10.1246 11.6623 10.024C11.5115 10.0408 11.4445 10.0408 11.2936 10.0576C11.2769 10.1581 11.2601 10.2084 11.2434 10.309C11.1596 10.3257 11.1093 10.3257 11.0088 10.3425C11.1261 9.90672 11.1764 9.68884 11.2936 9.25309C11.3774 9.25309 11.4277 9.25309 11.5115 9.23633ZM11.4277 9.48772C11.3942 9.63856 11.3774 9.72236 11.3439 9.8732C11.4445 9.85644 11.4947 9.85644 11.5953 9.83968C11.5282 9.7056 11.4947 9.63856 11.4277 9.48772Z" fill="white"/>
<path d="M12.232 9.1686C12.4331 9.42 12.5336 9.55408 12.7347 9.80547C12.7179 9.53732 12.7012 9.40324 12.6677 9.11832C12.7514 9.11832 12.8017 9.10156 12.8855 9.10156C12.919 9.52056 12.9358 9.72167 12.9693 10.1407C12.8855 10.1407 12.852 10.1574 12.7682 10.1574C12.5671 9.90603 12.4666 9.77195 12.2655 9.52056C12.299 9.78871 12.299 9.92279 12.3325 10.1909C12.2487 10.1909 12.1985 10.2077 12.1147 10.2077C12.0812 9.78871 12.0477 9.5876 12.0142 9.1686C12.1147 9.1686 12.165 9.1686 12.232 9.1686Z" fill="white"/>
<path d="M13.5725 9.05028C13.6898 9.3352 13.7568 9.48603 13.8909 9.77095C13.9746 9.46927 14.0249 9.31844 14.1087 9.01676C14.2092 9.01676 14.2595 9 14.3433 9C14.2092 9.41899 14.1422 9.63687 14.0081 10.0726C13.9244 10.0726 13.8909 10.0894 13.8071 10.0894C13.6228 9.68715 13.5222 9.48603 13.3379 9.0838C13.4217 9.06704 13.4719 9.05028 13.5725 9.05028Z" fill="white"/>
<path d="M14.8459 8.9668C15.0303 9.36903 15.114 9.58691 15.2984 9.98914C15.1978 9.98914 15.1643 9.98914 15.0638 10.0059C15.0303 9.90534 15.0135 9.87182 14.9632 9.77127C14.8124 9.77127 14.7454 9.78803 14.5946 9.78803C14.5611 9.88858 14.5443 9.93886 14.5276 10.0394C14.4438 10.0394 14.3935 10.0394 14.293 10.0562C14.427 9.62043 14.494 9.41931 14.6281 8.98356C14.7119 8.98356 14.7621 8.98356 14.8459 8.9668ZM14.7454 9.21819C14.6951 9.36903 14.6784 9.45283 14.6449 9.60367C14.7454 9.60367 14.7957 9.58691 14.8962 9.58691C14.8292 9.45283 14.7957 9.36903 14.7454 9.21819Z" fill="white"/>
<path d="M15.9353 8.91797C15.952 9.33696 15.952 9.53808 15.9688 9.95707C15.885 9.95707 15.8347 9.95707 15.751 9.97383C15.7342 9.55484 15.7174 9.35372 15.7007 8.93473C15.7845 8.93473 15.8347 8.93473 15.9353 8.91797Z" fill="white"/>
<path d="M16.3541 8.89957C16.5384 9.16773 16.6389 9.30181 16.8065 9.56996C16.8065 9.30181 16.7897 9.15097 16.7897 8.88281C16.8735 8.88281 16.9238 8.88281 17.0076 8.88281C17.0243 9.30181 17.0243 9.50292 17.0243 9.92192C16.9405 9.92192 16.907 9.92192 16.8232 9.92192C16.6389 9.65376 16.5551 9.51968 16.3708 9.25153C16.3708 9.51968 16.3876 9.65376 16.3876 9.93868C16.3038 9.93868 16.2535 9.93868 16.1697 9.93868C16.153 9.51968 16.153 9.31857 16.1362 8.89957C16.22 8.91633 16.2703 8.91633 16.3541 8.89957Z" fill="white"/>
<path d="M17.4267 8.88281C17.611 9.15097 17.6948 9.28505 17.8791 9.56996C17.8791 9.30181 17.8791 9.15097 17.8791 8.88281C17.9629 8.88281 18.0131 8.88281 18.0969 8.88281C18.0969 9.30181 18.0969 9.50292 18.0969 9.92192C18.0131 9.92192 17.9796 9.92192 17.8958 9.92192C17.7115 9.65376 17.6277 9.51968 17.4434 9.25153C17.4434 9.51968 17.4434 9.65376 17.4602 9.93868C17.3764 9.93868 17.3261 9.93868 17.2423 9.93868C17.2423 9.51968 17.2256 9.31857 17.2256 8.89957C17.3094 8.88281 17.3429 8.88281 17.4267 8.88281Z" fill="white"/>
<path d="M18.5661 9.90466C18.4991 9.87114 18.4488 9.83762 18.4153 9.78734C18.365 9.73706 18.3315 9.68678 18.3148 9.61974C18.298 9.5527 18.2812 9.4689 18.2812 9.3851C18.2812 9.3013 18.298 9.21751 18.3148 9.15047C18.3315 9.08343 18.365 9.03315 18.4153 8.98287C18.4656 8.93259 18.5158 8.89907 18.5829 8.86555C18.6499 8.84879 18.7169 8.83203 18.8007 8.83203C18.8845 8.83203 18.9515 8.84879 19.0185 8.86555C19.0856 8.89907 19.1358 8.93259 19.1693 8.98287C19.2196 9.03315 19.2364 9.08343 19.2699 9.15047C19.2866 9.21751 19.3034 9.3013 19.3034 9.3851C19.3034 9.4689 19.2866 9.5527 19.2699 9.61974C19.2531 9.68678 19.2196 9.73706 19.1693 9.78734C19.1191 9.83762 19.0688 9.87114 19.0185 9.8879C18.9515 9.90466 18.8845 9.92142 18.8007 9.92142C18.7002 9.95494 18.6331 9.93818 18.5661 9.90466ZM18.985 9.67002C19.0353 9.60298 19.052 9.51918 19.052 9.40186C19.052 9.28454 19.0353 9.20075 18.985 9.13371C18.9348 9.06667 18.8677 9.03315 18.7839 9.03315C18.6834 9.03315 18.6164 9.06667 18.5661 9.13371C18.5158 9.20075 18.4991 9.28454 18.4991 9.40186C18.4991 9.51918 18.5158 9.60298 18.5661 9.67002C18.6164 9.73706 18.6834 9.77058 18.7672 9.77058C18.8677 9.77058 18.9348 9.73706 18.985 9.67002Z" fill="white"/>
<path d="M19.5713 8.88199C19.6719 9.18367 19.7221 9.33451 19.8059 9.61942C19.9232 9.33451 19.9735 9.18367 20.0908 8.88199C20.1913 8.88199 20.2416 8.88199 20.3254 8.88199C20.1578 9.30099 20.0573 9.50211 19.8897 9.9211C19.8059 9.9211 19.7724 9.9211 19.6886 9.9211C19.5378 9.50211 19.4708 9.28423 19.3032 8.86523C19.4205 8.88199 19.4708 8.88199 19.5713 8.88199Z" fill="white"/>
<path d="M20.8444 8.93391C20.9952 9.3529 21.0623 9.57078 21.1963 9.98978C21.0958 9.98978 21.0623 9.98978 20.9617 9.97302C20.9282 9.87246 20.9114 9.82218 20.8947 9.72162C20.7439 9.72162 20.6769 9.70486 20.526 9.70486C20.4925 9.80542 20.4758 9.8557 20.4255 9.9395C20.3417 9.9395 20.2915 9.9395 20.1909 9.9395C20.3585 9.5205 20.4423 9.31939 20.6266 8.90039C20.7271 8.91715 20.7606 8.91715 20.8444 8.93391ZM20.7271 9.16855C20.6769 9.31939 20.6433 9.38642 20.5931 9.53726C20.6936 9.53726 20.7439 9.53726 20.8444 9.55402C20.7942 9.40318 20.7774 9.31939 20.7271 9.16855Z" fill="white"/>
<path d="M21.1465 9.13553C21.1465 9.05173 21.1465 9.01821 21.1465 8.95117C21.4984 8.96793 21.6659 8.96793 22.0178 9.00145C22.0178 9.08525 22.0178 9.11877 22.0011 9.18581C21.867 9.18581 21.8 9.16905 21.6827 9.16905C21.6659 9.50424 21.6492 9.6886 21.6324 10.0238C21.5486 10.0238 21.4984 10.0238 21.4146 10.007C21.4313 9.67184 21.4313 9.48748 21.4481 9.15229C21.3308 9.13553 21.2805 9.13553 21.1465 9.13553Z" fill="white"/>
<path d="M22.3531 9.85506C22.3866 9.88858 22.4368 9.90534 22.5206 9.90534C22.5541 9.90534 22.5877 9.90534 22.6044 9.90534C22.6212 9.90534 22.6547 9.88858 22.6714 9.87183C22.6882 9.85507 22.7049 9.85507 22.7049 9.83831C22.7049 9.82155 22.7217 9.80479 22.7217 9.78803C22.7217 9.75451 22.7217 9.73775 22.6882 9.70423C22.6714 9.67071 22.6379 9.65395 22.5709 9.63719C22.5206 9.62043 22.4871 9.62043 22.4368 9.60367C22.3866 9.58691 22.3363 9.57015 22.3028 9.55339C22.2693 9.53663 22.2358 9.51987 22.2023 9.48635C22.1687 9.45283 22.152 9.43607 22.1352 9.38579C22.1185 9.35227 22.1185 9.30199 22.1185 9.25171C22.1185 9.20143 22.1352 9.15115 22.152 9.11764C22.1687 9.08412 22.2023 9.0506 22.2358 9.03384C22.2693 9.01708 22.3195 9.00032 22.3698 8.98356C22.4201 8.9668 22.4704 8.9668 22.5374 8.9668C22.6212 8.9668 22.6882 8.98356 22.7385 9.00032C22.7887 9.01708 22.8222 9.0506 22.8558 9.08412C22.8893 9.11763 22.906 9.15115 22.9228 9.18467C22.9395 9.21819 22.9395 9.26847 22.9395 9.30199C22.8558 9.30199 22.8055 9.30199 22.7217 9.31875C22.7217 9.26847 22.6882 9.21819 22.6714 9.18467C22.6379 9.15115 22.5877 9.13439 22.5374 9.13439C22.5039 9.13439 22.4704 9.13439 22.4368 9.13439C22.4201 9.13439 22.3866 9.15115 22.3698 9.15115C22.3531 9.16791 22.3363 9.16791 22.3363 9.18467C22.3363 9.20143 22.3196 9.21819 22.3196 9.21819C22.3196 9.25171 22.3196 9.28523 22.3531 9.30199C22.3698 9.31875 22.4033 9.33551 22.4704 9.35227C22.5206 9.36903 22.5541 9.36903 22.6212 9.38579C22.7385 9.41931 22.8222 9.45283 22.8725 9.51987C22.9228 9.57015 22.9395 9.65395 22.9395 9.73775C22.9395 9.78803 22.9228 9.82155 22.906 9.85506C22.8893 9.88858 22.8558 9.9221 22.8222 9.95562C22.7887 9.98914 22.7385 10.0059 22.6882 10.0059C22.6379 10.0227 22.5709 10.0227 22.5039 10.0227C22.3531 10.0059 22.2525 9.97238 22.1855 9.90534C22.1185 9.8383 22.085 9.73775 22.085 9.62043C22.1687 9.62043 22.219 9.62043 22.3028 9.63719C22.3028 9.77127 22.3196 9.82155 22.3531 9.85506Z" fill="white"/>
<path d="M23.3749 9.06754C23.3413 9.48654 23.3246 9.68765 23.2911 10.1066C23.2073 10.1066 23.157 10.0899 23.0732 10.0899C23.1068 9.67089 23.1235 9.46978 23.157 9.05078C23.2408 9.06754 23.2743 9.06754 23.3749 9.06754Z" fill="white"/>
<path d="M23.4922 9.08398C23.5927 9.08398 23.643 9.10074 23.7435 9.10074C23.8273 9.2851 23.8608 9.3689 23.9446 9.5365C24.0619 9.3689 24.1122 9.30186 24.2127 9.13426C24.3133 9.15102 24.3468 9.15102 24.4473 9.15102C24.2797 9.38566 24.196 9.50298 24.0284 9.73762C24.0116 9.90521 24.0116 9.98901 23.9949 10.1566C23.9111 10.1566 23.8608 10.1399 23.777 10.1399C23.7938 9.97225 23.7938 9.88845 23.8106 9.72086C23.6933 9.46946 23.6262 9.33538 23.4922 9.08398Z" fill="white"/>
<path d="M24.9163 9.2196C25.0336 9.65536 25.1006 9.87323 25.2012 10.309C25.1006 10.2922 25.0671 10.2922 24.9666 10.2922C24.9498 10.1917 24.9331 10.1414 24.8996 10.0408C24.7488 10.0241 24.6817 10.0241 24.5309 10.0073C24.4807 10.1079 24.4639 10.1414 24.4304 10.2419C24.3466 10.2252 24.2963 10.2252 24.1958 10.2252C24.3969 9.82295 24.4974 9.62184 24.6985 9.2196C24.799 9.20284 24.8325 9.20284 24.9163 9.2196ZM24.7823 9.45424C24.7153 9.60508 24.6817 9.67212 24.6147 9.80619C24.7153 9.82295 24.7655 9.82295 24.8661 9.83971C24.8325 9.68887 24.8158 9.60508 24.7823 9.45424Z" fill="white"/>
<path d="M25.6706 9.30192C25.6371 9.63711 25.6203 9.82147 25.57 10.1567C25.7711 10.1734 25.8717 10.1902 26.0727 10.2237C26.056 10.2907 26.0392 10.341 26.0225 10.4081C25.7376 10.3745 25.6036 10.3578 25.3354 10.3243C25.3857 9.90527 25.4025 9.70415 25.4527 9.28516C25.5365 9.28516 25.57 9.28516 25.6706 9.30192Z" fill="white"/>
<path d="M26.8605 9.43586C26.961 9.87162 27.0113 10.0895 27.1118 10.5252C27.0113 10.5085 26.9778 10.5085 26.8772 10.4917C26.8605 10.3912 26.8437 10.3409 26.827 10.2403C26.6762 10.2236 26.6091 10.2068 26.4583 10.1901C26.4081 10.2739 26.3913 10.3241 26.341 10.4247C26.2573 10.4079 26.207 10.4079 26.1064 10.3912C26.3075 9.98894 26.4248 9.80458 26.6426 9.40234C26.7432 9.4191 26.7767 9.43586 26.8605 9.43586ZM26.7264 9.6705C26.6594 9.80458 26.6259 9.88838 26.5421 10.0225C26.6427 10.0392 26.6929 10.0392 26.7935 10.056C26.7599 9.90514 26.7599 9.8381 26.7264 9.6705Z" fill="white"/>
<path d="M27.7649 9.57063C27.8487 9.58739 27.9157 9.60415 27.966 9.63767C28.0162 9.67119 28.0498 9.68795 28.0833 9.73823C28.1168 9.77175 28.1335 9.80527 28.1335 9.85554C28.1335 9.88906 28.1335 9.93934 28.1335 9.97286C28.1168 10.0399 28.1 10.0902 28.0665 10.1405C28.033 10.174 27.9827 10.2075 27.9325 10.241C27.9995 10.4254 28.0162 10.5259 28.0833 10.7103C27.9827 10.6935 27.9492 10.6935 27.8487 10.6768C27.7984 10.5092 27.7817 10.4254 27.7314 10.2578C27.6476 10.241 27.6141 10.241 27.5303 10.2243C27.5136 10.3751 27.4968 10.4589 27.48 10.6097C27.3963 10.593 27.346 10.593 27.2622 10.5762C27.3125 10.1572 27.346 9.9561 27.413 9.53711C27.5303 9.53711 27.6141 9.55387 27.7649 9.57063ZM27.7984 10.0399C27.8152 10.0399 27.8487 10.0231 27.8654 10.0231C27.8822 10.0064 27.899 9.98962 27.899 9.97286C27.899 9.9561 27.9157 9.93934 27.9157 9.90582C27.9157 9.88906 27.9157 9.8723 27.9157 9.85554C27.9157 9.83878 27.899 9.82203 27.899 9.80527C27.8822 9.78851 27.8654 9.77175 27.8487 9.77175C27.8319 9.75499 27.7984 9.75499 27.7481 9.75499C27.6811 9.73823 27.6644 9.73823 27.5973 9.73823C27.5806 9.85554 27.5806 9.90582 27.5638 10.0231C27.6308 10.0399 27.6644 10.0399 27.7314 10.0399C27.7481 10.0399 27.7817 10.0399 27.7984 10.0399Z" fill="white"/>
<path d="M28.8207 9.73778C28.871 10.0395 28.9045 10.2071 28.9547 10.5087C29.1055 10.2406 29.1893 10.0897 29.3401 9.82158C29.4407 9.83834 29.4909 9.83834 29.5747 9.8551C29.3401 10.2406 29.2228 10.4249 29.005 10.8104C28.9212 10.7936 28.8877 10.7936 28.8039 10.7769C28.7201 10.3411 28.6699 10.1233 28.5693 9.6875C28.6699 9.70426 28.7201 9.72102 28.8207 9.73778Z" fill="white"/>
<path d="M30.0776 9.95539C30.1614 10.3911 30.1949 10.609 30.2787 11.0615C30.1781 11.0448 30.1446 11.028 30.0441 11.0113C30.0273 10.9107 30.0273 10.8604 30.0106 10.7599C29.8598 10.7263 29.7927 10.7263 29.6419 10.6928C29.5917 10.7766 29.5581 10.8269 29.5079 10.9107C29.4241 10.8939 29.3738 10.8939 29.29 10.8772C29.5246 10.4917 29.6419 10.3073 29.8598 9.92188C29.9435 9.92188 29.9938 9.93863 30.0776 9.95539ZM29.91 10.1733C29.8262 10.3073 29.7927 10.3744 29.709 10.5252C29.8095 10.542 29.8598 10.5587 29.9603 10.5755C29.9603 10.4079 29.9435 10.3241 29.91 10.1733Z" fill="white"/>
<path d="M31.0495 10.324C30.8484 10.2905 30.7311 10.2569 30.53 10.2234C30.5468 10.1564 30.5468 10.1061 30.5635 10.0391C30.8819 10.1061 31.0327 10.1229 31.3511 10.1899C31.3343 10.2569 31.3343 10.2905 31.3176 10.3407C31.0495 10.5754 30.9154 10.6927 30.6641 10.9273C30.8819 10.9776 30.9992 10.9944 31.2003 11.0446C31.1835 11.1117 31.1668 11.1452 31.1333 11.229C30.8149 11.162 30.6641 11.1284 30.3457 11.0782C30.3625 11.0111 30.3625 10.9776 30.3792 10.9273C30.6473 10.6759 30.7814 10.5586 31.0495 10.324Z" fill="white"/>
<path d="M31.7198 10.2749C31.6361 10.6771 31.5858 10.895 31.502 11.2972C31.4182 11.2805 31.368 11.2637 31.2842 11.247C31.368 10.8447 31.4182 10.6268 31.502 10.2246C31.5858 10.2414 31.6361 10.2581 31.7198 10.2749Z" fill="white"/>
<path d="M32.306 10.408C32.3898 10.4248 32.4569 10.4583 32.5071 10.4751C32.5574 10.5086 32.5909 10.5421 32.6244 10.5756C32.6412 10.6091 32.6579 10.6427 32.6579 10.6929C32.6579 10.7265 32.6579 10.7767 32.6579 10.8103C32.6412 10.8773 32.6244 10.9276 32.5909 10.9611C32.5574 10.9946 32.5071 11.0281 32.4401 11.0449C32.4904 11.2292 32.5071 11.3298 32.5574 11.5309C32.4569 11.5142 32.4233 11.4974 32.3228 11.4806C32.2893 11.313 32.2725 11.2292 32.239 11.0616C32.1552 11.0449 32.1217 11.0281 32.0379 11.0114C32.0044 11.1622 31.9877 11.246 31.9542 11.3968C31.8704 11.3801 31.8201 11.3633 31.7363 11.3466C31.8201 10.9443 31.8704 10.7265 31.9542 10.3242C32.0882 10.3577 32.1552 10.3745 32.306 10.408ZM32.306 10.8773C32.3228 10.8773 32.3563 10.8773 32.3731 10.8605C32.3898 10.8438 32.4066 10.8438 32.4066 10.827C32.4233 10.8103 32.4233 10.7935 32.4233 10.7767C32.4233 10.76 32.4233 10.7432 32.4233 10.7265C32.4233 10.7097 32.4066 10.6929 32.4066 10.6762C32.3898 10.6594 32.3731 10.6427 32.3563 10.6259C32.3396 10.6091 32.306 10.6091 32.2558 10.5924C32.1887 10.5756 32.172 10.5756 32.105 10.5589C32.0882 10.6762 32.0715 10.7265 32.0379 10.8438C32.105 10.8605 32.1385 10.8605 32.2055 10.8773C32.2558 10.8773 32.2893 10.8773 32.306 10.8773Z" fill="white"/>
<path d="M33.1274 10.5932C33.0436 10.9284 33.0101 11.096 32.9263 11.4312C33.1274 11.4815 33.2279 11.4983 33.4122 11.5486C33.3787 11.6156 33.3787 11.6491 33.3452 11.7329C33.0771 11.6659 32.9431 11.6324 32.6582 11.5653C32.7587 11.1631 32.7923 10.962 32.8928 10.543C32.9933 10.5597 33.0268 10.5597 33.1274 10.5932Z" fill="white"/>
<path d="M33.9819 10.7925C33.8813 11.1947 33.8311 11.3958 33.7305 11.8148C33.6468 11.7981 33.5965 11.7813 33.5127 11.7645C33.6132 11.3623 33.6635 11.1612 33.764 10.7422C33.8478 10.7589 33.8981 10.7757 33.9819 10.7925Z" fill="white"/>
<path d="M34.9535 11.5314C34.9032 11.6989 34.8865 11.7827 34.8362 11.9503C34.7692 11.9839 34.7022 12.0006 34.6184 12.0174C34.5346 12.0174 34.4676 12.0174 34.3838 12.0006C34.3 11.9839 34.233 11.9503 34.1827 11.9001C34.1324 11.8665 34.0822 11.8163 34.0654 11.7492C34.0319 11.6989 34.0151 11.6319 34.0151 11.5649C34.0151 11.4978 34.0151 11.414 34.0319 11.347C34.0487 11.2632 34.0822 11.1962 34.1157 11.1291C34.1492 11.0621 34.1995 11.0286 34.2497 10.9783C34.3 10.9448 34.367 10.928 34.434 10.9112C34.5011 10.8945 34.5681 10.9112 34.6351 10.928C34.7022 10.9448 34.7524 10.9615 34.8027 10.995C34.853 11.0286 34.8865 11.0621 34.9032 11.0956C34.9367 11.1291 34.9535 11.1794 34.9535 11.2129C34.9703 11.2632 34.9703 11.2967 34.9703 11.347C34.8865 11.3302 34.8362 11.3302 34.7524 11.3135C34.7524 11.28 34.7524 11.2632 34.7524 11.2464C34.7524 11.2297 34.7357 11.2129 34.7357 11.1794C34.7189 11.1626 34.7022 11.1459 34.6854 11.1291C34.6686 11.1124 34.6351 11.1124 34.6016 11.0956C34.5178 11.0788 34.4508 11.0956 34.3838 11.1459C34.3335 11.1962 34.2832 11.28 34.2497 11.3973C34.2162 11.5146 34.2162 11.5984 34.2497 11.6654C34.2832 11.7325 34.3335 11.7827 34.434 11.8163C34.4843 11.833 34.5178 11.833 34.5513 11.833C34.5849 11.833 34.6184 11.833 34.6519 11.8163C34.6686 11.7492 34.6854 11.7157 34.7022 11.6487C34.6184 11.6319 34.5849 11.6151 34.5011 11.5984C34.5178 11.5314 34.5346 11.4978 34.5513 11.4308C34.7189 11.4643 34.8027 11.4978 34.9535 11.5314Z" fill="white"/>
<path d="M35.4732 11.1792C35.3559 11.5814 35.3057 11.7825 35.2051 12.1848C35.1214 12.168 35.0711 12.1513 34.9873 12.1345C35.1046 11.7323 35.1549 11.5311 35.2554 11.1289C35.3559 11.1457 35.3895 11.1624 35.4732 11.1792Z" fill="white"/>
<path d="M35.9759 16.8619H35.691L35.004 16.8452H34.7192H34.0657H33.764H33.63L33.8311 16.3759L34.3002 15.2698L34.6186 14.5156L34.4008 14.5323L34.0992 14.5491L33.4289 14.5826L33.1273 14.5994L32.3397 14.6329L31.9711 14.6497L32.6581 12.672L32.7084 12.5547C32.7084 12.5547 32.6916 12.5547 32.6749 12.5547C32.5241 12.5547 31.7533 12.5714 30.5133 12.7893C30.3457 12.8228 30.1949 12.8564 30.0106 12.8899C29.5917 12.9737 29.1225 13.091 28.603 13.2251L29.91 13.4932L30.3792 13.5938L30.8987 13.7111C30.8987 13.7111 30.4798 14.7502 29.91 16.4597C29.5917 17.3983 29.2398 18.5547 28.8711 19.8619C28.3349 21.7893 27.7987 24.0184 27.4301 26.3815C27.4133 26.4821 27.3966 26.5659 27.3798 26.6664C27.3798 26.6664 26.7598 26.6664 25.8215 26.7502C24.0453 26.9178 21.1129 27.4541 18.8843 28.9793C18.767 29.0463 18.6665 29.1301 18.5659 29.1971C18.4821 29.2642 18.3984 29.3145 18.3146 29.3815L18.0632 29.1971C17.9627 29.1133 17.8622 29.0463 17.7449 28.9793C15.3654 27.3368 12.1817 26.8508 10.4726 26.7167C9.71851 26.6497 9.24933 26.6664 9.24933 26.6664C9.23257 26.5826 9.21582 26.4821 9.19906 26.3815C8.61258 22.7614 7.67422 19.4094 6.92018 17.0631C6.92018 17.0631 6.92018 17.0631 6.92018 17.0463C6.55154 15.9066 6.21641 15.0016 5.99858 14.4318C5.81426 13.9625 5.71371 13.7111 5.71371 13.7111L5.86452 13.6776L6.33371 13.577L8.00935 13.2251C7.33909 13.0407 6.73586 12.9066 6.21641 12.8228C6.03209 12.7893 5.86452 12.7558 5.71371 12.739C4.60779 12.5547 3.95429 12.5547 3.92077 12.5547L4.65806 14.6664L3.92077 14.6329L3.13322 14.5994L2.8316 14.5826L2.16135 14.5491H2.02729L2.21161 15.0016L3.01593 16.8619H2.49647H2.19486L1.54136 16.8787H1.23974H0.552726H0.284622H0.184082C0.217595 16.929 0.267866 16.996 0.301379 17.0463C0.418675 17.2139 0.535968 17.3983 0.653263 17.5659C0.971636 18.0519 1.29001 18.5882 1.57487 19.1245C1.70892 19.3927 1.84297 19.6608 1.97703 19.929C2.32891 20.6497 2.66404 21.4038 2.98241 22.158C3.13322 22.5435 3.30078 22.9457 3.45159 23.3312C3.8705 24.4709 4.23915 25.577 4.55752 26.5826C4.60779 26.7502 4.65806 26.9178 4.70833 27.0687C4.85913 27.5547 4.99319 28.0072 5.11048 28.4262C5.27805 29.0295 5.4121 29.5491 5.51264 29.9513C5.56291 30.1692 5.61318 30.3368 5.62993 30.4709C5.6802 30.672 5.71371 30.7893 5.71371 30.7893C5.81425 30.7726 5.91479 30.7726 6.01533 30.7558C6.88667 30.6552 7.758 30.5714 8.6461 30.4876C8.7969 30.4709 8.96447 30.4709 9.11528 30.4541C9.76878 30.4038 10.4223 30.3536 11.059 30.3033C11.1931 30.2865 11.3439 30.2865 11.4779 30.2698C13.472 30.1357 15.4827 30.0687 17.4935 30.0687C17.7616 30.0519 18.0297 30.0519 18.2978 30.0519C18.5659 30.0519 18.834 30.0519 19.1189 30.0687C21.1297 30.0854 23.1404 30.1525 25.1345 30.2698C25.168 30.2698 25.2015 30.2698 25.235 30.2698C25.8717 30.3033 26.5085 30.3536 27.1452 30.4038C27.296 30.4038 27.4636 30.4206 27.6144 30.4374C28.4857 30.5044 29.3403 30.5882 30.2117 30.6888C30.4463 30.7055 30.6808 30.739 30.9154 30.7558C30.9154 30.7558 30.9489 30.6385 30.9992 30.4374C31.016 30.3368 31.0495 30.2195 31.083 30.0687C31.0998 30.0184 31.1165 29.9681 31.1165 29.9178C31.1668 29.7335 31.217 29.5323 31.2673 29.3145C31.4349 28.6944 31.6527 27.9234 31.9041 27.0351C32.0884 26.4318 32.2895 25.7949 32.5241 25.1245C32.6749 24.672 32.8424 24.186 33.0267 23.6999C33.3451 22.8452 33.697 21.9569 34.0824 21.1022C34.2165 20.7837 34.3673 20.4821 34.5181 20.1804C34.8197 19.5603 35.1381 18.9402 35.4732 18.3703C35.5905 18.1525 35.7245 17.9513 35.8418 17.7502C36.0429 17.4318 36.244 17.1301 36.4618 16.8452L35.9759 16.8619ZM8.9142 29.0631C8.76339 29.0966 8.61258 29.1301 8.46178 29.1804C7.47314 29.415 6.50127 29.6832 6.50127 29.6832C6.41749 29.2977 6.31695 28.9122 6.21641 28.5268C6.0656 27.9402 5.89804 27.3536 5.73047 26.8005C5.27805 25.2921 4.80887 23.9178 4.33968 22.7279C4.18888 22.3256 4.03807 21.9569 3.88726 21.605C3.53538 20.7502 3.20025 20.0128 2.91539 19.4262C2.76458 19.0742 2.61377 18.7893 2.49647 18.5379C2.22837 17.9849 2.06081 17.6832 2.06081 17.6832L2.34567 17.5826L2.63053 17.4821L3.25051 17.2642L3.3343 17.2307C3.45159 17.5323 3.56889 17.8508 3.68618 18.186C4.23915 19.7111 4.82562 21.5379 5.36183 23.2474V23.2642C5.74723 24.5212 6.09911 25.7111 6.40073 26.6832C6.8364 28.1748 7.13801 29.1971 7.13801 29.1971C7.4899 29.0631 7.99259 28.996 8.44502 28.9625C8.59583 28.9457 8.76339 28.9457 8.9142 28.9457C9.40014 28.929 9.75202 28.9457 9.75202 28.9457C9.50068 28.9457 9.21582 29.0128 8.9142 29.0631ZM10.7071 27.9402C9.91959 27.9234 9.23257 27.9402 8.74663 27.9569C8.56231 27.9569 8.4115 27.9737 8.27745 27.9737C8.05962 27.9904 7.92557 27.9904 7.92557 27.9904C7.80827 27.4709 7.69098 26.9513 7.57368 26.4485C6.3337 21.2698 4.97643 17.9513 4.2559 16.4262C3.93753 15.7558 3.75321 15.4374 3.75321 15.4374L4.07158 15.3201L4.92616 15.0351C6.19965 18.9234 7.02072 21.6552 7.54017 23.5491C7.54017 23.5659 7.54017 23.5659 7.54017 23.5826C7.89206 24.8899 8.12665 25.7782 8.2607 26.3983C8.46178 27.3201 8.47853 27.5882 8.47853 27.5882C8.5288 27.5882 8.59583 27.5714 8.66285 27.5714C9.33311 27.5212 10.0034 27.5044 10.6234 27.5379C13.0866 27.6552 15.1308 28.2586 15.399 28.3424C13.8406 28.0575 12.1147 27.9569 10.7071 27.9402ZM25.6371 27.9569C24.2966 27.9737 22.7215 28.091 21.2637 28.3592C21.5151 28.2754 23.375 27.7223 25.6874 27.5714C26.3074 27.5212 26.9442 27.5212 27.6144 27.5547C27.7652 27.5547 27.916 27.5714 28.0836 27.5882C28.1171 27.5882 28.1339 27.5882 28.1674 27.5882C28.1674 27.5882 28.1841 27.3201 28.3852 26.3983C28.7371 24.8899 29.5749 21.6385 31.7365 15.0519L32.2392 15.2195L32.9262 15.4541C32.9262 15.4541 32.4738 16.2418 31.8203 17.834C31.0662 19.6608 30.0441 22.51 29.1057 26.4485C28.9884 26.9513 28.8711 27.4541 28.7538 27.9904C28.7538 27.9904 28.4857 27.9737 28.0333 27.9569C27.8993 27.9402 27.7317 27.9402 27.5641 27.9402C27.0447 27.9402 26.3744 27.9234 25.6371 27.9569ZM34.5683 17.7502C34.451 17.9681 34.0992 18.6385 33.63 19.6608C33.4959 19.9625 33.3451 20.2809 33.1943 20.6497C32.8759 21.3703 32.5408 22.2083 32.1889 23.1301C32.0381 23.5323 31.8873 23.9681 31.7197 24.4206C31.4516 25.1748 31.2003 25.9625 30.9489 26.8005C30.6808 27.7223 30.4127 28.6776 30.1781 29.6832C30.1781 29.6832 30.0944 29.6664 29.9436 29.6329C29.5414 29.5156 28.6533 29.2977 27.849 29.1133C27.6982 29.0798 27.5474 29.0463 27.3966 29.0128C27.2458 28.9793 27.0782 28.9458 26.9442 28.929C26.9442 28.929 27.1285 28.9122 27.4133 28.929C27.5474 28.929 27.715 28.929 27.8825 28.9457C28.4355 28.9625 29.1057 29.0295 29.5749 29.1971C29.5749 29.1971 29.8598 28.1916 30.3122 26.6832C30.3792 26.4653 30.4463 26.2307 30.5133 25.996C31.0327 24.2698 31.703 22.0742 32.3565 20.0631C32.5241 19.5603 32.6916 19.0742 32.8592 18.605C33.0267 18.1189 33.1943 17.6497 33.3619 17.2307L33.697 17.348L33.9819 17.4485L34.6019 17.6664L34.6354 17.6832C34.6186 17.6664 34.6019 17.6999 34.5683 17.7502Z" fill="white"/>
<path d="M36.6464 8.99863V10.2891C36.2777 9.92042 35.8588 9.58523 35.4232 9.28355C35.2221 9.14947 35.021 9.03215 34.8199 8.89808C34.7194 8.8478 34.6356 8.79752 34.5351 8.74724C34.3172 8.62992 34.1162 8.52936 33.9151 8.4288C33.8145 8.37852 33.7308 8.345 33.6302 8.29472C33.3956 8.19416 33.1778 8.09361 32.96 8.00981C32.1054 7.65785 31.3681 7.43997 30.9492 7.33942C30.7481 7.28914 30.6308 7.25562 30.6308 7.25562C30.5805 7.23886 30.5303 7.2221 30.48 7.2221C29.8768 7.0545 29.2568 6.90366 28.6535 6.78634C25.1514 6.04891 21.5153 5.83104 18.4154 5.83104H18.3316C15.1311 5.81428 11.3609 6.04891 7.75824 6.85338C7.20528 6.9707 6.65232 7.10478 6.11611 7.25562C6.11611 7.25562 6.03233 7.27238 5.88152 7.3059C5.76422 7.33942 5.61342 7.37294 5.41234 7.42321C4.90964 7.57405 4.18911 7.80869 3.41832 8.14389C3.20048 8.24444 2.96589 8.345 2.74806 8.46232C2.64752 8.49584 2.56374 8.54612 2.4632 8.5964C2.26212 8.71372 2.04429 8.81428 1.84321 8.94836C1.74267 8.99863 1.65889 9.06567 1.55835 9.13271C1.35727 9.26679 1.1562 9.40087 0.955118 9.53495C0.871336 9.60199 0.770796 9.66903 0.687013 9.75282C0.469179 9.92042 0.268102 10.1048 0.0670248 10.3059C0.0502684 10.3227 0.0167565 10.3562 0 10.3729V9.08243C2.11131 6.87014 6.09935 5.96511 6.09935 5.96511C10.1712 4.84221 14.6284 4.54053 18.3148 4.55729H18.3986C22.085 4.54053 26.5255 4.84221 30.6141 5.96511C30.6476 5.96511 34.5183 6.83662 36.6464 8.99863Z" fill="white"/>
<path d="M10.6572 31.9941L11.6291 35.983H14.2096V32.4634H18.3484H22.4873L22.4705 35.983H25.0678L26.0397 31.9941H10.6572Z" fill="white"/>
<path d="M27.3632 33.301C27.4805 32.7312 27.7318 32.5468 27.7318 32.5468C28.0837 32.1781 29.6756 32.2116 29.6756 32.2116L36.6463 32.5803C35.9425 32.0105 33.9485 31.7256 33.9485 31.7256C31.6193 31.4574 29.2902 31.2563 26.9275 31.1055L25.7378 35.9993H36.6295V35.1446L26.961 34.8429L27.3632 33.301Z" fill="white"/>
<path d="M9.33337 33.301C9.21608 32.7312 8.96473 32.5468 8.96473 32.5468C8.61285 32.1781 7.02098 32.2116 7.02098 32.2116L0.050293 32.5803C0.754064 32.0105 2.74808 31.7256 2.74808 31.7256C5.07723 31.4574 7.40638 31.2563 9.76904 31.1055L10.9587 35.9993H0.0670479V35.1446L9.73553 34.8429L9.33337 33.301Z" fill="white"/>
<path d="M21.2972 32.832V35.9829L20.6605 35.7482L20.694 33.1337L20.761 33.0667L18.3984 33.0834L16.0357 33.0667L16.1027 33.1337L16.1363 35.7482L15.4995 35.9829V32.832L15.8011 32.9996V32.832H18.3984H20.9956V32.9996L21.2972 32.832Z" fill="white"/>
<path d="M25.9892 31.9953H25.939V31.9785L25.9892 31.9953Z" fill="white"/>
<path d="M31.9552 30.0001L32.0725 29.2124L32.4579 26.4973L32.6925 26.1286L32.4076 28.0224L32.1395 29.8325C32.1395 29.8325 32.0725 30.1341 32.2568 30.1174L36.6302 30.9386V31.2068L32.1227 30.3185C32.1395 30.3353 31.9217 30.3017 31.9552 30.0001ZM33.1281 25.961L33.2287 25.3241L33.48 24.9386L33.4297 25.2235L32.793 29.4135C32.793 29.4135 32.7595 29.6314 32.9103 29.6481L36.647 30.3353V30.5867L32.793 29.866C32.793 29.866 32.5752 29.8157 32.5919 29.514L33.1281 25.961ZM33.2789 28.9442L34.0162 24.0671L34.2508 23.6984L33.4633 28.8436C33.4633 28.8436 33.413 29.1286 33.5973 29.1118L36.6302 29.6649V29.933L33.413 29.3129C33.4297 29.2962 33.2287 29.2124 33.2789 28.9442ZM33.9659 28.3744L34.8205 22.7934L35.0551 22.4414L34.1503 28.2906C34.1503 28.2906 34.0832 28.5922 34.3178 28.5922L36.647 29.028V29.2962L34.1503 28.7934C34.1503 28.7934 33.9157 28.7431 33.9659 28.3744Z" fill="white"/>
<path d="M35.1385 27.6378C35.1385 27.6378 35.0715 27.973 35.4066 27.9897L36.6298 28.1071V28.4423L35.0715 28.2579C35.0715 28.2579 34.6358 28.1741 34.6693 27.8557L35.6747 22.3585L35.9261 21.0009L36.4455 20.1797L36.0266 22.6266L35.7417 24.2858L36.6298 24.6378V24.8557L35.6915 24.487L35.4904 25.6099L36.6298 26.0624V26.2635L35.4569 25.811L35.172 27.4367L35.1385 27.6378Z" fill="white"/>
<path d="M4.72501 30.0001L4.60772 29.2124L4.22232 26.4973L3.98773 26.1286L4.27259 28.0224L4.54069 29.8325C4.54069 29.8325 4.60772 30.1341 4.4234 30.1174L0.0499606 30.9386V31.2068L4.55745 30.3353C4.55745 30.3353 4.75853 30.3017 4.72501 30.0001ZM3.56882 25.961L3.46828 25.3241L3.21693 24.9386L3.2672 25.2235L3.90395 29.4135C3.90395 29.4135 3.93746 29.6314 3.78665 29.6481L0.0499606 30.3353V30.5867L3.90395 29.866C3.90395 29.866 4.12178 29.8157 4.10502 29.514L3.56882 25.961ZM3.40125 28.9442L2.66397 24.0671L2.42938 23.6984L3.21693 28.8436C3.21693 28.8436 3.2672 29.1286 3.08288 29.1118L0.0499606 29.6649V29.933L3.2672 29.3129C3.2672 29.2962 3.46828 29.2124 3.40125 28.9442ZM2.71424 28.3744L1.85966 22.7934L1.62507 22.4414L2.52991 28.2906C2.52991 28.2906 2.59694 28.5922 2.36235 28.5922L0.0332031 29.028V29.2962L2.52991 28.7934C2.54667 28.7934 2.78126 28.7431 2.71424 28.3744Z" fill="white"/>
<path d="M1.54162 27.6378C1.54162 27.6378 1.60864 27.973 1.27351 27.9897L0.050293 28.1071V28.4423L1.60864 28.2579C1.60864 28.2579 2.04431 28.1741 2.0108 27.8557L1.00541 22.3585L0.754064 21.0009L0.234613 20.1797L0.653524 22.6266L0.938383 24.2858L0.050293 24.6378V24.8557L0.988653 24.487L1.18973 25.6099L0.050293 26.0624V26.2635L1.22325 25.811L1.5081 27.4367L1.54162 27.6378Z" fill="white"/>
<path d="M14.235 24.4846C14.4462 24.239 14.4184 23.8687 14.1729 23.6574C13.9274 23.4461 13.5571 23.4739 13.3459 23.7194C13.1346 23.965 13.1624 24.3353 13.4079 24.5466C13.6534 24.7579 14.0237 24.7301 14.235 24.4846Z" fill="white"/>
<path d="M12.7604 23.0196C13.0356 22.8487 13.1203 22.4871 12.9495 22.2118C12.7787 21.9366 12.4171 21.8519 12.1419 22.0227C11.8667 22.1935 11.782 22.5552 11.9528 22.8305C12.1236 23.1057 12.4852 23.1904 12.7604 23.0196Z" fill="white"/>
<path d="M11.7761 21.1825C12.0899 21.1022 12.2791 20.7826 12.1988 20.4687C12.1185 20.1549 11.799 19.9656 11.4852 20.0459C11.1714 20.1263 10.9821 20.4458 11.0624 20.7597C11.1428 21.0736 11.4623 21.2629 11.7761 21.1825Z" fill="white"/>
<path d="M12.0145 18.5834C12.0321 18.2599 11.7841 17.9834 11.4607 17.9659C11.1373 17.9483 10.8609 18.1963 10.8433 18.5198C10.8258 18.8432 11.0737 19.1197 11.3971 19.1373C11.7205 19.1548 11.997 18.9069 12.0145 18.5834Z" fill="white"/>
<path d="M12.4019 16.7342C12.5157 16.4309 12.3621 16.0927 12.0589 15.9789C11.7557 15.865 11.4176 16.0186 11.3037 16.3219C11.1899 16.6252 11.3435 16.9634 11.6467 17.0772C11.95 17.1911 12.288 17.0375 12.4019 16.7342Z" fill="white"/>
<path d="M13.3316 15.0734C13.5312 14.8183 13.4862 14.4496 13.2311 14.25C12.976 14.0503 12.6074 14.0953 12.4078 14.3505C12.2082 14.6057 12.2532 14.9743 12.5083 15.174C12.7634 15.3736 13.132 15.3286 13.3316 15.0734Z" fill="white"/>
<path d="M14.7082 13.7734C14.9751 13.59 15.0428 13.2248 14.8594 12.9578C14.676 12.6908 14.3109 12.623 14.0439 12.8065C13.777 12.9899 13.7092 13.3551 13.8927 13.6221C14.0761 13.8892 14.4412 13.9569 14.7082 13.7734Z" fill="white"/>
<path d="M16.4247 12.9442C16.7345 12.8493 16.9086 12.5213 16.8138 12.2115C16.719 11.9018 16.391 11.7275 16.0813 11.8224C15.7716 11.9172 15.5974 12.2453 15.6922 12.555C15.7871 12.8648 16.115 13.039 16.4247 12.9442Z" fill="white"/>
<path d="M18.8786 12.0963C18.8811 11.7723 18.6206 11.5077 18.2967 11.5052C17.9728 11.5027 17.7082 11.7633 17.7057 12.0872C17.7032 12.4112 17.9637 12.6759 18.2876 12.6784C18.6115 12.6808 18.8761 12.4202 18.8786 12.0963Z" fill="white"/>
<path d="M20.8994 12.6073C20.999 12.299 20.8299 11.9684 20.5217 11.8688C20.2135 11.7692 19.883 11.9383 19.7834 12.2465C19.6838 12.5548 19.8529 12.8854 20.1611 12.9851C20.4693 13.0847 20.7998 12.9156 20.8994 12.6073Z" fill="white"/>
<path d="M22.6827 13.6911C22.8702 13.4269 22.8081 13.0607 22.544 12.8732C22.2798 12.6857 21.9137 12.7478 21.7262 13.0119C21.5387 13.2761 21.6008 13.6423 21.8649 13.8298C22.129 14.0174 22.4951 13.9552 22.6827 13.6911Z" fill="white"/>
<path d="M24.0499 15.2643C24.3081 15.0686 24.3587 14.7007 24.1631 14.4425C23.9675 14.1843 23.5996 14.1336 23.3414 14.3293C23.0833 14.525 23.0326 14.8929 23.2283 15.1511C23.4239 15.4093 23.7918 15.46 24.0499 15.2643Z" fill="white"/>
<path d="M24.881 17.1725C25.186 17.0633 25.3447 16.7276 25.2356 16.4225C25.1264 16.1175 24.7907 15.9588 24.4858 16.0679C24.1808 16.1771 24.0221 16.5129 24.1312 16.8179C24.2404 17.1229 24.5761 17.2817 24.881 17.1725Z" fill="white"/>
<path d="M25.0881 19.2374C25.4117 19.2248 25.6639 18.9522 25.6513 18.6285C25.6388 18.3048 25.3662 18.0525 25.0425 18.0651C24.7189 18.0777 24.4667 18.3503 24.4793 18.674C24.4919 18.9977 24.7645 19.2499 25.0881 19.2374Z" fill="white"/>
<path d="M25.3986 20.8753C25.4838 20.5627 25.2995 20.2403 24.987 20.1551C24.6745 20.07 24.3521 20.2543 24.267 20.5669C24.1818 20.8794 24.3661 21.2019 24.6786 21.287C24.9911 21.3722 25.3135 21.1879 25.3986 20.8753Z" fill="white"/>
<path d="M24.486 22.9275C24.661 22.655 24.582 22.2921 24.3095 22.117C24.0369 21.9419 23.6741 22.021 23.4991 22.2936C23.324 22.5661 23.4031 22.929 23.6756 23.1041C23.9481 23.2792 24.3109 23.2001 24.486 22.9275Z" fill="white"/>
<path d="M22.9976 24.6132C23.2463 24.4057 23.2798 24.0358 23.0724 23.787C22.8649 23.5382 22.4951 23.5047 22.2463 23.7122C21.9976 23.9197 21.9641 24.2896 22.1715 24.5384C22.379 24.7872 22.7488 24.8207 22.9976 24.6132Z" fill="white"/>
<path d="M15.3348 22.9588C15.4917 22.7764 15.471 22.5013 15.2887 22.3443C15.1063 22.1873 14.8312 22.208 14.6743 22.3904C14.5174 22.5728 14.538 22.8479 14.7204 23.0049C14.9028 23.1619 15.1778 23.1412 15.3348 22.9588Z" fill="white"/>
<path d="M14.2554 21.9092C14.4599 21.7823 14.5228 21.5136 14.3959 21.3092C14.269 21.1047 14.0004 21.0418 13.796 21.1687C13.5915 21.2956 13.5286 21.5642 13.6555 21.7687C13.7824 21.9732 14.051 22.0361 14.2554 21.9092Z" fill="white"/>
<path d="M13.5473 20.5663C13.7805 20.5066 13.921 20.2693 13.8614 20.0361C13.8017 19.803 13.5644 19.6623 13.3313 19.722C13.0982 19.7817 12.9576 20.0191 13.0172 20.2522C13.0769 20.4854 13.3142 20.626 13.5473 20.5663Z" fill="white"/>
<path d="M13.7281 18.6727C13.7412 18.4324 13.557 18.227 13.3167 18.214C13.0765 18.2009 12.8711 18.3851 12.8581 18.6254C12.8451 18.8657 13.0292 19.0711 13.2695 19.0842C13.5097 19.0972 13.7151 18.913 13.7281 18.6727Z" fill="white"/>
<path d="M14.0074 17.3338C14.092 17.1085 13.9779 16.8573 13.7526 16.7728C13.5274 16.6882 13.2762 16.8023 13.1917 17.0276C13.1071 17.2529 13.2212 17.5041 13.4464 17.5887C13.6717 17.6732 13.9229 17.5591 14.0074 17.3338Z" fill="white"/>
<path d="M14.6818 16.1137C14.83 15.9242 14.7966 15.6503 14.6071 15.502C14.4176 15.3537 14.1438 15.3872 13.9955 15.5767C13.8472 15.7663 13.8807 16.0401 14.0702 16.1884C14.2597 16.3367 14.5335 16.3033 14.6818 16.1137Z" fill="white"/>
<path d="M15.6758 15.1747C15.8741 15.0384 15.9244 14.7671 15.7881 14.5687C15.6519 14.3704 15.3806 14.3201 15.1823 14.4564C14.984 14.5926 14.9337 14.8639 15.07 15.0623C15.2062 15.2606 15.4774 15.3109 15.6758 15.1747Z" fill="white"/>
<path d="M16.9173 14.5788C17.1474 14.5083 17.2768 14.2647 17.2063 14.0345C17.1359 13.8044 16.8923 13.675 16.6622 13.7455C16.4321 13.8159 16.3027 14.0596 16.3732 14.2897C16.4436 14.5198 16.6872 14.6493 16.9173 14.5788Z" fill="white"/>
<path d="M18.717 13.9557C18.7188 13.7151 18.5253 13.5185 18.2847 13.5166C18.0441 13.5148 17.8475 13.7084 17.8456 13.949C17.8438 14.1897 18.0373 14.3863 18.278 14.3881C18.5186 14.39 18.7151 14.1964 18.717 13.9557Z" fill="white"/>
<path d="M20.194 14.3299C20.268 14.1009 20.1424 13.8553 19.9134 13.7813C19.6845 13.7073 19.4389 13.833 19.3649 14.0619C19.2909 14.2909 19.4166 14.5366 19.6455 14.6106C19.8744 14.6846 20.12 14.5589 20.194 14.3299Z" fill="white"/>
<path d="M21.4808 15.1121C21.6201 14.9159 21.5739 14.6438 21.3777 14.5045C21.1815 14.3652 20.9096 14.4113 20.7703 14.6076C20.631 14.8038 20.6771 15.0758 20.8733 15.2151C21.0695 15.3545 21.3415 15.3083 21.4808 15.1121Z" fill="white"/>
<path d="M22.4707 16.2712C22.6624 16.1259 22.7001 15.8526 22.5548 15.6608C22.4094 15.4689 22.1362 15.4313 21.9444 15.5767C21.7526 15.722 21.715 15.9953 21.8603 16.1871C22.0056 16.3789 22.2789 16.4166 22.4707 16.2712Z" fill="white"/>
<path d="M23.0705 17.6522C23.2971 17.5711 23.415 17.3217 23.3339 17.0951C23.2528 16.8685 23.0034 16.7506 22.7769 16.8317C22.5503 16.9128 22.4324 17.1622 22.5135 17.3888C22.5946 17.6154 22.844 17.7333 23.0705 17.6522Z" fill="white"/>
<path d="M23.2221 19.1547C23.4625 19.1453 23.6498 18.9428 23.6405 18.7023C23.6311 18.4619 23.4287 18.2745 23.1882 18.2839C22.9478 18.2932 22.7605 18.4957 22.7698 18.7362C22.7792 18.9767 22.9817 19.164 23.2221 19.1547Z" fill="white"/>
<path d="M23.4659 20.34C23.5292 20.1078 23.3923 19.8683 23.1601 19.805C22.928 19.7417 22.6885 19.8786 22.6253 20.1108C22.562 20.343 22.6989 20.5825 22.9311 20.6458C23.1632 20.7091 23.4027 20.5721 23.4659 20.34Z" fill="white"/>
<path d="M22.7928 21.8465C22.9228 21.644 22.8641 21.3744 22.6617 21.2444C22.4592 21.1143 22.1897 21.1731 22.0597 21.3755C21.9296 21.578 21.9883 21.8476 22.1908 21.9777C22.3932 22.1077 22.6628 22.049 22.7928 21.8465Z" fill="white"/>
<path d="M21.7066 23.0582C21.8914 22.904 21.9163 22.6293 21.7622 22.4444C21.6081 22.2596 21.3333 22.2347 21.1486 22.3889C20.9638 22.543 20.9389 22.8178 21.093 23.0026C21.2471 23.1875 21.5219 23.2123 21.7066 23.0582Z" fill="white"/>
<path d="M16.4041 21.4629C16.5006 21.3507 16.4879 21.1814 16.3757 21.0848C16.2635 20.9882 16.0942 21.0009 15.9976 21.1131C15.901 21.2254 15.9137 21.3947 16.026 21.4913C16.1382 21.5879 16.3075 21.5752 16.4041 21.4629Z" fill="white"/>
<path d="M15.7264 20.7948C15.8522 20.7167 15.8909 20.5514 15.8128 20.4255C15.7347 20.2997 15.5694 20.261 15.4436 20.3391C15.3178 20.4172 15.2791 20.5825 15.3572 20.7083C15.4353 20.8342 15.6006 20.8729 15.7264 20.7948Z" fill="white"/>
<path d="M15.2838 19.9511C15.4273 19.9144 15.5138 19.7683 15.4771 19.6248C15.4404 19.4814 15.2943 19.3948 15.1509 19.4315C15.0074 19.4683 14.9209 19.6144 14.9576 19.7578C14.9943 19.9013 15.1404 19.9879 15.2838 19.9511Z" fill="white"/>
<path d="M15.3825 18.7652C15.3905 18.6174 15.2771 18.491 15.1293 18.4829C14.9815 18.4749 14.8551 18.5883 14.8471 18.7362C14.839 18.884 14.9524 19.0104 15.1002 19.0184C15.2481 19.0265 15.3744 18.9131 15.3825 18.7652Z" fill="white"/>
<path d="M15.5684 17.9081C15.6204 17.7695 15.5502 17.6149 15.4116 17.5628C15.273 17.5108 15.1184 17.581 15.0664 17.7197C15.0143 17.8583 15.0845 18.0129 15.2232 18.0649C15.3618 18.117 15.5163 18.0468 15.5684 17.9081Z" fill="white"/>
<path d="M15.9899 17.1388C16.0811 17.0222 16.0605 16.8536 15.9439 16.7624C15.8273 16.6711 15.6588 16.6917 15.5675 16.8083C15.4763 16.925 15.4969 17.0935 15.6135 17.1848C15.7301 17.276 15.8986 17.2554 15.9899 17.1388Z" fill="white"/>
<path d="M16.6194 16.546C16.7414 16.4622 16.7723 16.2952 16.6885 16.1732C16.6046 16.0511 16.4377 16.0201 16.3157 16.104C16.1937 16.1879 16.1627 16.3548 16.2466 16.4769C16.3304 16.5989 16.4973 16.6299 16.6194 16.546Z" fill="white"/>
<path d="M17.4075 16.1784C17.5491 16.1351 17.6287 15.9851 17.5854 15.8435C17.542 15.7019 17.3921 15.6223 17.2505 15.6656C17.1089 15.709 17.0293 15.8589 17.0726 16.0006C17.116 16.1422 17.2659 16.2218 17.4075 16.1784Z" fill="white"/>
<path d="M18.548 15.7887C18.5492 15.6406 18.4301 15.5196 18.282 15.5185C18.1339 15.5174 18.013 15.6365 18.0118 15.7846C18.0107 15.9327 18.1298 16.0537 18.2779 16.0548C18.4259 16.0559 18.5469 15.9368 18.548 15.7887Z" fill="white"/>
<path d="M19.4745 16.0094C19.52 15.8685 19.4427 15.7173 19.3018 15.6718C19.1609 15.6262 19.0098 15.7035 18.9643 15.8445C18.9187 15.9854 18.996 16.1365 19.1369 16.1821C19.2778 16.2276 19.4289 16.1503 19.4745 16.0094Z" fill="white"/>
<path d="M20.2755 16.5137C20.3613 16.3929 20.3329 16.2255 20.2121 16.1398C20.0914 16.0541 19.924 16.0825 19.8383 16.2032C19.7526 16.324 19.781 16.4914 19.9017 16.5771C20.0225 16.6628 20.1898 16.6345 20.2755 16.5137Z" fill="white"/>
<path d="M20.9121 17.2401C21.0301 17.1506 21.0532 16.9824 20.9638 16.8644C20.8744 16.7464 20.7062 16.7232 20.5882 16.8126C20.4702 16.9021 20.447 17.0703 20.5364 17.1883C20.6259 17.3064 20.794 17.3295 20.9121 17.2401Z" fill="white"/>
<path d="M21.2896 18.1138C21.429 18.0639 21.5015 17.9104 21.4516 17.771C21.4017 17.6315 21.2483 17.5589 21.1089 17.6089C20.9695 17.6588 20.8969 17.8123 20.9468 17.9517C20.9967 18.0911 21.1502 18.1637 21.2896 18.1138Z" fill="white"/>
<path d="M21.3893 19.0528C21.5372 19.0471 21.6525 18.9224 21.6468 18.7745C21.641 18.6265 21.5164 18.5112 21.3685 18.5169C21.2205 18.5227 21.1052 18.6473 21.111 18.7953C21.1167 18.9433 21.2413 19.0586 21.3893 19.0528Z" fill="white"/>
<path d="M21.5336 19.8159C21.5725 19.673 21.4883 19.5256 21.3454 19.4867C21.2026 19.4477 21.0552 19.532 21.0163 19.6749C20.9774 19.8178 21.0616 19.9652 21.2045 20.0041C21.3473 20.043 21.4947 19.9588 21.5336 19.8159Z" fill="white"/>
<path d="M21.1014 20.7517C21.1814 20.6271 21.1453 20.4612 21.0207 20.3812C20.8961 20.3011 20.7303 20.3373 20.6503 20.4619C20.5702 20.5865 20.6064 20.7524 20.731 20.8324C20.8555 20.9124 21.0214 20.8763 21.1014 20.7517Z" fill="white"/>
<path d="M20.4302 21.5175C20.5439 21.4226 20.5592 21.2535 20.4644 21.1398C20.3695 21.026 20.2005 21.0107 20.0868 21.1056C19.973 21.2004 19.9577 21.3695 20.0526 21.4833C20.1474 21.597 20.3165 21.6123 20.4302 21.5175Z" fill="white"/>
<path d="M19.8567 24.4016H16.6394C16.5724 24.4016 16.5054 24.3513 16.5054 24.2675V23.4798C16.5054 23.4127 16.5556 23.3457 16.6394 23.3457H19.8567C19.9237 23.3457 19.9907 23.396 19.9907 23.4798V24.2675C19.9907 24.3345 19.9237 24.4016 19.8567 24.4016Z" fill="white"/>
<path d="M19.5718 25.6419H16.9243C16.874 25.6419 16.8237 25.5916 16.8237 25.5413V24.8877C16.8237 24.8374 16.874 24.7871 16.9243 24.7871H19.5718C19.6221 24.7871 19.6723 24.8374 19.6723 24.8877V25.5413C19.6723 25.5916 19.6388 25.6419 19.5718 25.6419Z" fill="white"/>
<path d="M19.1698 26.6463H17.3266C17.2763 26.6463 17.2261 26.596 17.2261 26.5458V26.1435C17.2261 26.0932 17.2763 26.043 17.3266 26.043H19.1698C19.2201 26.043 19.2704 26.0932 19.2704 26.1435V26.5458C19.2704 26.596 19.2201 26.6463 19.1698 26.6463Z" fill="white"/>
<path d="M18.2144 19.0053C18.2144 19.0053 17.9128 18.0332 16.8906 18.1673C16.8906 18.1673 17.1755 19.1729 18.0971 19.3069V23.3628H18.3987V19.2734C18.3987 19.2734 19.6387 19.022 19.8733 17.3461C19.8733 17.3461 18.4657 17.279 18.2144 19.0053ZM18.2814 19.3572C18.0636 18.9382 17.6447 18.6366 17.6447 18.6366C18.0636 18.8209 18.2311 19.1058 18.2311 19.1058C18.3987 18.603 18.9684 18.1673 18.9684 18.1673C18.4155 18.7706 18.2814 19.3572 18.2814 19.3572Z" fill="white"/>
<path d="M18.2645 5.32961V0.234637C18.2645 0.234637 18.1472 0.167598 18.3483 0C18.3483 0 18.5326 0.150838 18.432 0.234637V5.32961H18.2645Z" fill="white"/>
<path d="M22.0345 2.11336V2.86755C20.8615 2.16364 19.6886 3.57146 18.5156 2.86755V2.11336C19.6886 2.81727 20.8615 1.40945 22.0345 2.11336Z" fill="white"/>
<path d="M18.5156 0.386795V1.14099C19.6886 1.8449 20.8615 0.437075 22.0345 1.14099V0.386795C20.8615 -0.317115 19.6886 1.09071 18.5156 0.386795ZM19.2194 1.24154C19.2026 1.24154 19.1859 1.24154 19.1691 1.24154C19.0183 1.24154 18.8843 1.07395 18.8843 0.923108C18.8843 0.77227 19.0016 0.671711 19.1691 0.688471C19.1859 0.688471 19.2026 0.688471 19.2194 0.688471C19.0853 0.705231 18.9848 0.80579 18.9848 0.939868C18.9848 1.07395 19.0853 1.20802 19.2194 1.24154ZM19.3534 1.22478C19.3367 1.22478 19.3367 1.20802 19.3199 1.20802C19.3032 1.22478 19.3032 1.22478 19.2864 1.24154C19.2864 1.22478 19.2864 1.20802 19.3032 1.20802C19.2864 1.20802 19.2864 1.19126 19.2697 1.19126H19.3032C19.3032 1.1745 19.3032 1.15774 19.3199 1.15774C19.3199 1.1745 19.3199 1.1745 19.3367 1.19126C19.3535 1.19126 19.3702 1.19126 19.3702 1.19126C19.3534 1.19126 19.3535 1.20802 19.3367 1.22478C19.3535 1.20802 19.3534 1.20802 19.3534 1.22478ZM19.588 1.20802C19.5713 1.20802 19.5713 1.19126 19.5545 1.19126C19.5378 1.19126 19.5378 1.20802 19.521 1.22478C19.521 1.20802 19.521 1.19126 19.5378 1.19126C19.521 1.19126 19.521 1.1745 19.5043 1.1745C19.521 1.1745 19.5378 1.1745 19.5378 1.1745C19.5378 1.15774 19.5378 1.14099 19.5545 1.14099C19.5545 1.15774 19.5545 1.15774 19.5713 1.1745C19.588 1.1745 19.6048 1.1745 19.6048 1.1745C19.588 1.1745 19.588 1.19126 19.5713 1.20802C19.5713 1.1745 19.588 1.19126 19.588 1.20802ZM19.5713 0.939868C19.5713 0.956628 19.5713 0.956628 19.588 0.973387C19.5713 0.973387 19.5713 0.956628 19.5545 0.956628C19.5378 0.973387 19.5378 0.973387 19.521 0.990147C19.521 0.973387 19.521 0.956628 19.5378 0.956628C19.521 0.956628 19.521 0.939868 19.5043 0.939868C19.521 0.939868 19.5378 0.939868 19.5378 0.939868C19.5378 0.923108 19.5378 0.906348 19.5545 0.906348C19.5545 0.923108 19.5545 0.923108 19.5713 0.939868C19.588 0.939868 19.6048 0.939868 19.6048 0.939868C19.6048 0.923108 19.588 0.923108 19.5713 0.939868ZM19.8226 1.15774C19.8059 1.15774 19.8059 1.14099 19.7891 1.14099C19.7724 1.15774 19.7724 1.15774 19.7556 1.1745C19.7556 1.15774 19.7556 1.14099 19.7724 1.14099C19.7556 1.14099 19.7556 1.12423 19.7388 1.12423C19.7556 1.12423 19.7724 1.12423 19.7724 1.12423C19.7724 1.10747 19.7724 1.09071 19.7891 1.07395C19.7891 1.09071 19.8059 1.09071 19.8059 1.10747C19.8226 1.10747 19.8394 1.10747 19.8394 1.09071C19.8226 1.10747 19.8226 1.10747 19.8059 1.12423C19.8059 1.12423 19.8059 1.14099 19.8226 1.15774ZM19.8059 0.889589C19.8059 0.906348 19.8059 0.906348 19.8226 0.923108C19.8059 0.923108 19.8059 0.906348 19.7891 0.906348C19.7724 0.923108 19.7724 0.923108 19.7556 0.939868C19.7556 0.923108 19.7556 0.906348 19.7724 0.906348C19.7556 0.906348 19.7556 0.889589 19.7388 0.889589C19.7556 0.889589 19.7724 0.889589 19.7724 0.889589C19.7724 0.872829 19.7724 0.856069 19.7891 0.856069C19.7891 0.872829 19.8059 0.872829 19.8059 0.889589C19.8226 0.889589 19.8394 0.889588 19.8394 0.872829C19.8226 0.872829 19.8226 0.889589 19.8059 0.889589ZM19.8059 0.671711C19.8059 0.688471 19.8059 0.688471 19.8226 0.705231C19.8059 0.705231 19.8059 0.688471 19.7891 0.688471C19.7724 0.705231 19.7724 0.705231 19.7556 0.721991C19.7556 0.705231 19.7556 0.688471 19.7724 0.688471C19.7556 0.688471 19.7556 0.671711 19.7388 0.671711C19.7556 0.671711 19.7724 0.671711 19.7724 0.671711C19.7724 0.654952 19.7724 0.638192 19.7891 0.621432C19.7891 0.638192 19.8059 0.638192 19.8059 0.654952C19.8226 0.654952 19.8394 0.654952 19.8394 0.638192C19.8226 0.638192 19.8226 0.654952 19.8059 0.671711ZM20.0572 1.09071C20.0405 1.09071 20.0405 1.09071 20.0237 1.07395C20.007 1.09071 20.007 1.09071 19.9902 1.10747C19.9902 1.09071 19.9902 1.07395 20.007 1.07395C19.9902 1.07395 19.9902 1.05719 19.9734 1.05719C19.9902 1.05719 20.007 1.05719 20.007 1.04043C20.007 1.02367 20.007 1.00691 20.0237 0.990147C20.0237 1.00691 20.0405 1.00691 20.0405 1.02367C20.0572 1.02367 20.074 1.02367 20.074 1.00691C20.0572 1.02367 20.0572 1.02367 20.0405 1.04043C20.0405 1.07395 20.0405 1.09071 20.0572 1.09071ZM20.0405 0.839309C20.0405 0.856069 20.0405 0.856069 20.0572 0.872829C20.0405 0.872829 20.0405 0.856069 20.0237 0.856069C20.007 0.872829 20.007 0.872829 19.9902 0.889589C19.9902 0.872829 19.9902 0.856069 20.007 0.839309C19.9902 0.839309 19.9902 0.822549 19.9734 0.822549C19.9902 0.822549 20.007 0.822549 20.007 0.80579C20.007 0.78903 20.007 0.77227 20.0237 0.77227C20.0237 0.78903 20.0405 0.78903 20.0405 0.80579C20.0572 0.80579 20.074 0.80579 20.074 0.78903C20.0572 0.80579 20.0405 0.822549 20.0405 0.839309ZM20.0405 0.604672C20.0405 0.621432 20.0405 0.621432 20.0572 0.638192C20.0405 0.638192 20.0405 0.621432 20.0237 0.621432C20.007 0.638192 20.007 0.638192 19.9902 0.654952C19.9902 0.638192 19.9902 0.621432 20.007 0.621432C19.9902 0.621432 19.9902 0.604672 19.9734 0.604672C19.9902 0.604672 20.007 0.604672 20.007 0.587913C20.007 0.571153 20.007 0.554393 20.0237 0.537633C20.0237 0.554393 20.0405 0.554393 20.0405 0.571153C20.0572 0.571153 20.074 0.571153 20.074 0.554393C20.0572 0.587913 20.0405 0.604672 20.0405 0.604672ZM20.2751 1.02367C20.2583 1.02367 20.2583 1.02367 20.2415 1.00691C20.2248 1.02367 20.2248 1.02367 20.208 1.04043C20.208 1.02367 20.208 1.00691 20.2248 0.990147C20.208 0.990147 20.208 0.973387 20.1913 0.973387C20.208 0.973387 20.2248 0.973387 20.2248 0.956628C20.2248 0.939868 20.2248 0.923108 20.2415 0.906348C20.2415 0.923108 20.2583 0.923108 20.2583 0.939868C20.2751 0.939868 20.2918 0.939868 20.2918 0.923108C20.2751 0.939868 20.2751 0.939868 20.2583 0.956628C20.2751 1.00691 20.2751 1.00691 20.2751 1.02367ZM20.2583 0.77227C20.2583 0.78903 20.2751 0.78903 20.2751 0.80579C20.2583 0.80579 20.2583 0.78903 20.2415 0.78903C20.2248 0.80579 20.2248 0.80579 20.208 0.822549C20.208 0.80579 20.208 0.78903 20.2248 0.78903C20.208 0.78903 20.208 0.77227 20.1913 0.77227C20.208 0.77227 20.2248 0.77227 20.2248 0.75551C20.2248 0.738751 20.2248 0.721991 20.2415 0.705231C20.2415 0.721991 20.2583 0.721991 20.2583 0.738751C20.2751 0.738751 20.2918 0.738751 20.2918 0.721991L20.2583 0.77227ZM20.2583 0.537633C20.2583 0.554393 20.2751 0.554393 20.2751 0.571153C20.2583 0.571153 20.2583 0.571153 20.2415 0.554393C20.2248 0.571153 20.2248 0.571153 20.208 0.587913C20.208 0.571153 20.208 0.554393 20.2248 0.537633C20.208 0.537633 20.208 0.520873 20.1913 0.520873C20.208 0.520873 20.2248 0.520873 20.2248 0.504114C20.2248 0.487354 20.2248 0.470594 20.2415 0.453834C20.2415 0.470594 20.2583 0.470594 20.2583 0.487354C20.2751 0.487354 20.2918 0.487354 20.2918 0.470594C20.2918 0.520873 20.2751 0.520873 20.2583 0.537633Z" fill="white"/>
<path d="M22.0345 1.24226V1.99645C20.8615 1.29254 19.6886 2.70036 18.5156 1.99645V1.24226C19.6886 1.94617 20.8615 0.538353 22.0345 1.24226Z" fill="white"/>
</svg>
