<svg width="24" height="24" viewBox="0 0 24 24" fill="none" xmlns="http://www.w3.org/2000/svg">
<path d="M11.19 1.26625L4.19 4.37625C3.47 4.69625 3 5.41625 3 6.20625V10.9062C3 16.4563 6.84 21.6462 12 22.9062C17.16 21.6462 21 16.4563 21 10.9062V6.20625C21 5.41625 20.53 4.69625 19.81 4.37625L12.81 1.26625C12.3 1.03625 11.7 1.03625 11.19 1.26625ZM9.29 16.1963L6.7 13.6062C6.31 13.2162 6.31 12.5863 6.7 12.1962C7.09 11.8062 7.72 11.8062 8.11 12.1962L10 14.0763L15.88 8.19625C16.27 7.80625 16.9 7.80625 17.29 8.19625C17.68 8.58625 17.68 9.21625 17.29 9.60625L10.7 16.1963C10.32 16.5863 9.68 16.5863 9.29 16.1963Z" fill="white"/>
</svg>
