<svg xmlns="http://www.w3.org/2000/svg" xmlns:xlink="http://www.w3.org/1999/xlink" version="1.1" x="0px" y="0px" viewBox="0 0 100 125" enable-background="new 0 0 100 100" xml:space="preserve"><g><circle fill="#000000" cx="32.5" cy="34" r="5"/></g><g><circle fill="#000000" cx="67.5" cy="34" r="5"/></g><g><path fill="#000000" d="M72.5,40h-8.965L51.776,28.241c-0.003-0.003-0.006-0.006-0.009-0.009c-0.427-0.428-0.971-0.667-1.528-0.721   c-0.717-0.069-1.458,0.172-2.008,0.721c-0.003,0.002-0.005,0.006-0.008,0.009L36.465,40H27.5c-2.762,0-5,2.238-5,5v10   c0,2.762,2.238,5,5,5v19.999h10V60V46.035l12.5-12.5l12.5,12.5V60v19.999h10V60c2.761,0,5-2.238,5-5V45   C77.5,42.238,75.261,40,72.5,40z"/></g><g><circle fill="#000000" cx="50.004" cy="50" r="4.5"/></g><g><path fill="#000000" d="M54.504,60c0-2.485-2.015-4.5-4.5-4.5s-4.5,2.015-4.5,4.5v8h2v12h5V68h2V60z"/></g><text x="0" y="115" fill="#000000" font-size="5px" font-weight="bold" font-family="'Helvetica Neue', Helvetica, Arial-Unicode, Arial, Sans-serif">Created by Egon Låstad</text><text x="0" y="120" fill="#000000" font-size="5px" font-weight="bold" font-family="'Helvetica Neue', Helvetica, Arial-Unicode, Arial, Sans-serif">from the Noun Project</text></svg>