<svg width="252" height="50" viewBox="0 0 252 50" fill="none" xmlns="http://www.w3.org/2000/svg">
<path d="M10.9564 12.8768C10.8668 12.8544 10.7772 12.8096 10.71 12.7648C10.6428 12.7199 10.5756 12.6527 10.5307 12.5631C10.4859 12.4734 10.4635 12.3838 10.4411 12.2717C10.4187 12.1597 10.4187 12.0476 10.4411 11.958C10.4635 11.8684 10.4859 11.7787 10.5531 11.7115C10.598 11.6443 10.6652 11.577 10.7548 11.5322C10.8444 11.4874 10.934 11.4426 11.0461 11.4426C11.1581 11.4202 11.2477 11.4202 11.3373 11.4426C11.4269 11.465 11.5166 11.5098 11.5838 11.5546C11.651 11.5995 11.7182 11.6891 11.763 11.7563C11.8078 11.846 11.8302 11.9356 11.8526 12.0476C11.875 12.1597 11.875 12.2717 11.8526 12.3614C11.8302 12.451 11.8078 12.5407 11.763 12.6079C11.7182 12.6751 11.651 12.7423 11.5614 12.7872C11.4718 12.832 11.3821 12.8544 11.2701 12.8768C11.1357 12.8992 11.0461 12.8992 10.9564 12.8768ZM11.4718 12.4734C11.5166 12.3838 11.539 12.2493 11.5166 12.1149C11.4942 11.958 11.4494 11.846 11.3597 11.7787C11.2925 11.7115 11.1805 11.6667 11.0461 11.6891C10.9116 11.7115 10.822 11.7563 10.7772 11.8684C10.7324 11.958 10.71 12.0925 10.7324 12.2269C10.7548 12.3838 10.7996 12.4958 10.8892 12.5631C10.9564 12.6303 11.0685 12.6527 11.1805 12.6527C11.2925 12.6527 11.4269 12.5631 11.4718 12.4734Z" fill="white"/>
<path d="M12.2108 11.3086C12.2108 11.5103 12.2108 11.5999 12.2108 11.8016C12.0987 11.824 12.0539 11.824 11.9419 11.8464C11.9643 11.6447 11.9867 11.5327 12.0091 11.331C12.0987 11.331 12.1435 11.3086 12.2108 11.3086Z" fill="white"/>
<path d="M13.1294 11.4427C12.8382 11.4875 12.7038 11.4875 12.4125 11.5323C12.3901 11.4427 12.3901 11.3755 12.3677 11.2858C12.7934 11.2186 13.0174 11.1962 13.4431 11.1514C13.4431 11.241 13.4655 11.2858 13.4655 11.3755C13.2191 11.7788 13.107 11.9805 12.8606 12.3839C13.1519 12.3391 13.3087 12.3167 13.6224 12.2943C13.6224 12.4063 13.6224 12.4511 13.6224 12.5408C13.1967 12.5856 12.9726 12.6304 12.5469 12.6752C12.5245 12.5856 12.5245 12.5408 12.5245 12.4735C12.771 12.0477 12.883 11.8461 13.1294 11.4427Z" fill="white"/>
<path d="M14.2052 11.0393C14.3172 11.0169 14.4068 11.0169 14.4741 11.0393C14.5413 11.0617 14.6085 11.0617 14.6533 11.1065C14.6981 11.1289 14.7205 11.1737 14.7429 11.2185C14.7653 11.2634 14.7877 11.3082 14.7877 11.353C14.7877 11.3978 14.7877 11.4651 14.7653 11.5099C14.7429 11.5547 14.6981 11.5995 14.6309 11.6443C14.6757 11.6667 14.7205 11.6891 14.7429 11.7116C14.7653 11.734 14.7877 11.7564 14.8101 11.7788C14.8325 11.8012 14.8325 11.8236 14.855 11.8684C14.855 11.8908 14.8774 11.9357 14.8774 11.9581C14.8774 12.0253 14.8774 12.0701 14.8774 12.1373C14.855 12.1822 14.8325 12.2494 14.8101 12.2718C14.7653 12.3166 14.7205 12.339 14.6533 12.3838C14.5861 12.4063 14.4965 12.4287 14.4068 12.4511C14.1828 12.4735 14.0708 12.4959 13.8467 12.5183C13.7795 11.9581 13.7347 11.6891 13.6675 11.1289C13.8915 11.0841 13.9812 11.0841 14.2052 11.0393ZM14.4517 11.5323C14.4741 11.5099 14.4965 11.4651 14.4741 11.3978C14.4741 11.3306 14.4517 11.3082 14.4068 11.2858C14.362 11.2634 14.2948 11.2634 14.2052 11.2634C14.1156 11.2634 14.0708 11.2858 13.9812 11.2858C14.0036 11.4202 14.0036 11.4875 14.026 11.5995C14.138 11.5771 14.1828 11.5771 14.2948 11.5771C14.3844 11.5771 14.4293 11.5771 14.4517 11.5323ZM14.4741 12.1822C14.4965 12.1597 14.5413 12.1597 14.5413 12.1373C14.5637 12.1149 14.5637 12.0925 14.5861 12.0701C14.5861 12.0477 14.5861 12.0253 14.5861 11.9805C14.5861 11.9132 14.5637 11.8684 14.5189 11.846C14.4741 11.8236 14.4293 11.8012 14.3396 11.8236C14.2276 11.846 14.1604 11.846 14.0484 11.846C14.0708 12.0029 14.0708 12.0701 14.0932 12.227C14.2052 12.2046 14.25 12.2046 14.3396 12.2046C14.4068 12.2046 14.4517 12.2046 14.4741 12.1822Z" fill="white"/>
<path d="M15.9975 10.8604C15.9975 10.95 16.0199 11.0172 16.0199 11.1069C15.751 11.1293 15.5942 11.1517 15.3253 11.1741C15.3477 11.2861 15.3477 11.3534 15.3477 11.4878C15.6166 11.4654 15.7286 11.443 15.9975 11.4206C15.9975 11.5102 16.0199 11.5775 16.0199 11.6671C15.751 11.6895 15.639 11.7119 15.3701 11.7343C15.3925 11.8688 15.3926 11.936 15.415 12.0705C15.7062 12.0481 15.8631 12.0256 16.1543 12.0032C16.1543 12.0929 16.1543 12.1601 16.1543 12.2497C15.751 12.2946 15.5494 12.317 15.1461 12.3618C15.0789 11.8016 15.0565 11.5326 14.9893 10.9724C15.3925 10.9276 15.5942 10.9052 15.9975 10.8604Z" fill="white"/>
<path d="M16.5802 10.8153C16.6026 11.0394 16.6026 11.1514 16.625 11.3755C16.8267 11.129 16.9163 11.017 17.1179 10.7705C17.2524 10.7705 17.3196 10.748 17.454 10.748C17.2748 10.9721 17.1852 11.0842 17.0059 11.3083C17.2524 11.6444 17.3644 11.8013 17.6109 12.1374C17.4764 12.1374 17.4092 12.1598 17.2748 12.1598C17.0955 11.8909 17.0059 11.7789 16.8043 11.51C16.7371 11.5772 16.7146 11.622 16.6474 11.6892C16.6698 11.8909 16.6698 12.003 16.6922 12.2047C16.5802 12.2047 16.513 12.2271 16.3786 12.2271C16.3338 11.6668 16.3114 11.3979 16.2441 10.8377C16.3786 10.8153 16.4458 10.8153 16.5802 10.8153Z" fill="white"/>
<path d="M17.969 10.7031C18.0138 11.2634 18.0362 11.5323 18.081 12.0925C17.969 12.0925 17.9018 12.1149 17.7898 12.1149C17.7449 11.5547 17.7225 11.2858 17.6777 10.7255C17.7674 10.7031 17.8346 10.7031 17.969 10.7031Z" fill="white"/>
<path d="M18.6414 11.7795C18.6862 11.8243 18.7758 11.8243 18.8655 11.8243C18.9103 11.8243 18.9551 11.8243 18.9775 11.8019C18.9999 11.7795 19.0447 11.7795 19.0447 11.7571C19.0671 11.7347 19.0671 11.7123 19.0895 11.6899C19.0895 11.6675 19.0895 11.645 19.0895 11.6226C19.0895 11.5778 19.0671 11.5554 19.0447 11.533C19.0223 11.5106 18.9551 11.4882 18.8879 11.4658C18.8206 11.4658 18.7758 11.4434 18.6862 11.4434C18.619 11.4434 18.5518 11.421 18.4846 11.3985C18.4174 11.3761 18.3725 11.3537 18.3277 11.3313C18.2829 11.3089 18.2605 11.2641 18.2381 11.2193C18.2157 11.1744 18.1933 11.1072 18.1933 11.04C18.1933 10.9728 18.1933 10.9055 18.2157 10.8607C18.2381 10.8159 18.2829 10.7711 18.3277 10.7263C18.3725 10.6814 18.4398 10.659 18.507 10.6366C18.5742 10.6142 18.6638 10.5918 18.731 10.5918C18.8431 10.5918 18.9327 10.5918 18.9999 10.6142C19.0671 10.6366 19.1343 10.659 19.1791 10.7038C19.2239 10.7487 19.2687 10.7935 19.2912 10.8383C19.3136 10.8831 19.336 10.9504 19.336 10.9952C19.2239 11.0176 19.1567 11.0176 19.0447 11.04C19.0223 10.9728 18.9999 10.9055 18.9551 10.8831C18.9103 10.8607 18.8431 10.8383 18.7534 10.8383C18.7086 10.8383 18.6638 10.8383 18.619 10.8607C18.5966 10.8607 18.5518 10.8831 18.5294 10.9055C18.507 10.9279 18.507 10.9279 18.4846 10.9504C18.4846 10.9728 18.4846 10.9952 18.4846 11.0176C18.4846 11.0624 18.507 11.1072 18.5294 11.1296C18.5518 11.152 18.619 11.1744 18.6862 11.1744C18.7758 11.1744 18.7982 11.1969 18.8879 11.1969C19.0447 11.2193 19.1567 11.2641 19.2463 11.3313C19.3136 11.3985 19.3584 11.4882 19.3808 11.6226C19.3808 11.6899 19.3808 11.7347 19.3584 11.8019C19.336 11.8467 19.3136 11.8916 19.2687 11.9364C19.2239 11.9812 19.1567 12.0036 19.0895 12.026C19.0223 12.0484 18.9327 12.0708 18.8431 12.0708C18.6414 12.0932 18.4846 12.0484 18.3725 11.9812C18.2605 11.914 18.1933 11.7795 18.1709 11.6226C18.3053 11.6226 18.3501 11.6002 18.4846 11.6002C18.5518 11.6899 18.5966 11.7347 18.6414 11.7795Z" fill="white"/>
<path d="M19.4702 10.8606C19.4702 10.7486 19.4702 10.7037 19.4478 10.6141C19.9183 10.5917 20.1647 10.5693 20.6352 10.5469C20.6352 10.6589 20.6352 10.7037 20.6352 10.7934C20.456 10.7934 20.3664 10.8158 20.1871 10.8158C20.2095 11.264 20.2095 11.5105 20.2319 11.9587C20.1199 11.9587 20.0527 11.9587 19.9183 11.9811C19.8959 11.5329 19.8734 11.2864 19.851 10.8382C19.739 10.8382 19.6494 10.8382 19.4702 10.8606Z" fill="white"/>
<path d="M21.1952 11.8912C21.1056 11.8688 21.0383 11.824 20.9711 11.7567C20.9039 11.6895 20.8591 11.6223 20.8143 11.5326C20.7695 11.443 20.7695 11.3534 20.7471 11.2189C20.7471 11.1069 20.7471 10.9948 20.7919 10.9052C20.8143 10.8155 20.8591 10.7259 20.9263 10.6587C20.9935 10.5914 21.0607 10.5466 21.1504 10.5018C21.24 10.457 21.3296 10.4346 21.4416 10.4346C21.5537 10.4346 21.6433 10.4346 21.7329 10.4794C21.8225 10.5018 21.8897 10.5466 21.9569 10.6138C22.0242 10.6811 22.069 10.7483 22.0914 10.8379C22.1362 10.9276 22.1362 11.0396 22.1362 11.1517C22.1362 11.2637 22.1362 11.3758 22.0914 11.4654C22.069 11.555 22.0242 11.6447 21.9569 11.6895C21.8897 11.7567 21.8225 11.8016 21.7553 11.8464C21.6657 11.8912 21.5761 11.9136 21.464 11.9136C21.3744 11.936 21.2848 11.936 21.1952 11.8912ZM21.7553 11.555C21.8225 11.4654 21.8449 11.3534 21.8449 11.1965C21.8449 11.0396 21.8001 10.9276 21.7329 10.8379C21.6657 10.7483 21.5761 10.7259 21.4416 10.7259C21.3072 10.7259 21.2176 10.7707 21.1504 10.8604C21.0832 10.95 21.0607 11.062 21.0607 11.2189C21.0607 11.3758 21.1056 11.4878 21.1728 11.5775C21.24 11.6671 21.3296 11.6895 21.464 11.6895C21.6209 11.6895 21.7105 11.6447 21.7553 11.555Z" fill="white"/>
<path d="M22.6741 10.4794C22.9206 10.838 23.055 11.0173 23.3015 11.3758C23.3015 11.0173 23.3015 10.8156 23.2791 10.457C23.3911 10.457 23.4583 10.457 23.5703 10.457C23.5703 11.0173 23.5703 11.2862 23.5927 11.8464C23.4807 11.8464 23.4359 11.8464 23.3239 11.8464C23.0774 11.4879 22.9654 11.3086 22.6965 10.95C22.6965 11.3086 22.6965 11.4879 22.719 11.8688C22.6069 11.8688 22.5397 11.8688 22.4277 11.8688C22.4053 11.3086 22.4053 11.0397 22.4053 10.4794C22.5173 10.4794 22.5621 10.4794 22.6741 10.4794Z" fill="white"/>
<path d="M24.8698 10.457C24.9818 10.457 25.0715 10.4794 25.1611 10.5019C25.2283 10.5243 25.2955 10.5691 25.3403 10.6139C25.3851 10.6587 25.4075 10.7035 25.4299 10.7484C25.4523 10.7932 25.4523 10.838 25.4523 10.9052C25.4523 10.9949 25.4299 11.0621 25.4075 11.1293C25.3627 11.1965 25.3179 11.2414 25.2283 11.2862C25.3403 11.5327 25.4075 11.6447 25.5196 11.8912C25.3851 11.8912 25.3179 11.8912 25.1835 11.8912C25.0939 11.6896 25.0491 11.5775 24.937 11.3758C24.825 11.3758 24.7578 11.3758 24.6458 11.3758C24.6458 11.5775 24.6458 11.6896 24.6458 11.8912C24.5337 11.8912 24.4665 11.8912 24.3545 11.8912C24.3545 11.331 24.3545 11.0621 24.3545 10.5019C24.5561 10.457 24.6458 10.457 24.8698 10.457ZM25.0042 11.0845C25.0266 11.0845 25.0715 11.0621 25.0715 11.0397C25.0939 11.0173 25.0939 10.9949 25.1163 10.9725C25.1163 10.95 25.1163 10.9276 25.1163 10.8828C25.1163 10.8604 25.1163 10.838 25.0939 10.8156C25.0939 10.7932 25.0715 10.7708 25.0491 10.7484C25.0266 10.7259 25.0042 10.7259 24.9594 10.7035C24.9146 10.7035 24.8698 10.6811 24.825 10.6811C24.7354 10.6811 24.6906 10.6811 24.6234 10.6811C24.6234 10.838 24.6234 10.9052 24.6234 11.0621C24.713 11.0621 24.7578 11.0621 24.8698 11.0621C24.937 11.0845 24.9594 11.0845 25.0042 11.0845Z" fill="white"/>
<path d="M26.685 10.4794C26.685 10.5691 26.685 10.6363 26.685 10.7259C26.4161 10.7259 26.2593 10.7259 25.9904 10.7035C25.9904 10.8156 25.9904 10.8828 25.9904 11.0173C26.2593 11.0173 26.3713 11.0173 26.6402 11.0397C26.6402 11.1293 26.6402 11.1965 26.6402 11.2862C26.3713 11.2862 26.2593 11.2862 25.9904 11.2638C25.9904 11.3982 25.9904 11.4655 25.9904 11.5999C26.2817 11.5999 26.4385 11.5999 26.7298 11.6223C26.7074 11.712 26.7074 11.7792 26.685 11.8688C26.2817 11.8688 26.08 11.8464 25.6768 11.8464C25.6768 11.2862 25.6992 11.0173 25.6992 10.457C26.1025 10.4794 26.3041 10.4794 26.685 10.4794Z" fill="white"/>
<path d="M27.2001 11.6222C27.2449 11.667 27.3345 11.6895 27.4242 11.6895C27.469 11.6895 27.5138 11.6895 27.5362 11.6895C27.5586 11.6895 27.6034 11.667 27.6258 11.6446C27.6482 11.6222 27.6706 11.5998 27.6706 11.5774C27.6706 11.555 27.693 11.5326 27.693 11.5102C27.693 11.4654 27.6706 11.4429 27.6482 11.3981C27.6258 11.3757 27.5586 11.3309 27.4914 11.3309C27.4242 11.3085 27.3794 11.3085 27.3121 11.2861C27.2449 11.2637 27.1777 11.2413 27.1105 11.2189C27.0433 11.1964 26.9985 11.174 26.9761 11.1292C26.9313 11.0844 26.9088 11.062 26.8864 10.9948C26.864 10.9499 26.864 10.8827 26.864 10.8155C26.864 10.7483 26.8864 10.681 26.9088 10.6362C26.9313 10.5914 26.9761 10.5466 27.0209 10.5017C27.0657 10.4793 27.1329 10.4345 27.2001 10.4345C27.2673 10.4121 27.357 10.4121 27.4242 10.4121C27.5362 10.4121 27.6258 10.4345 27.693 10.4569C27.7602 10.4793 27.8275 10.5242 27.8723 10.5466C27.9171 10.5914 27.9395 10.6362 27.9619 10.681C27.9843 10.7258 27.9843 10.7931 28.0067 10.8379C27.8947 10.8379 27.8275 10.8603 27.7154 10.8603C27.693 10.7931 27.6706 10.7258 27.6258 10.681C27.581 10.6362 27.5138 10.6362 27.4242 10.6138C27.3794 10.6138 27.3345 10.6138 27.2897 10.6138C27.2449 10.6138 27.2225 10.6362 27.2001 10.6362C27.1777 10.6586 27.1553 10.6586 27.1553 10.681C27.1553 10.7034 27.1329 10.7258 27.1329 10.7483C27.1329 10.7931 27.1553 10.8379 27.1777 10.8603C27.2001 10.8827 27.2673 10.9051 27.3345 10.9275C27.4242 10.9499 27.4466 10.9499 27.5362 10.9723C27.693 11.0172 27.8051 11.062 27.8723 11.1292C27.9395 11.1964 27.9843 11.3085 27.9619 11.4205C27.9619 11.4878 27.9395 11.5326 27.9171 11.5774C27.8947 11.6222 27.8499 11.667 27.8051 11.7119C27.7602 11.7567 27.693 11.7791 27.6258 11.8015C27.5586 11.8239 27.469 11.8239 27.3794 11.8239C27.1777 11.8239 27.0209 11.7791 26.9313 11.6895C26.8192 11.5998 26.7744 11.4878 26.7744 11.3085C26.9088 11.3085 26.9537 11.3085 27.0881 11.3085C27.1329 11.5326 27.1553 11.5774 27.2001 11.6222Z" fill="white"/>
<path d="M28.7911 10.5692C28.9031 10.5692 28.9927 10.5916 29.0599 10.6141C29.1272 10.6365 29.1944 10.6813 29.2392 10.7261C29.284 10.7709 29.3064 10.8157 29.3288 10.8606C29.3512 10.9054 29.3512 10.9726 29.3512 11.0174C29.3512 11.0847 29.3288 11.1295 29.3064 11.1967C29.284 11.2415 29.2616 11.3087 29.2168 11.3312C29.172 11.376 29.1048 11.3984 29.0375 11.4208C28.9703 11.4432 28.8807 11.4432 28.7687 11.4432C28.6791 11.4432 28.6343 11.4432 28.5446 11.4432C28.5446 11.6449 28.5222 11.7345 28.5222 11.9362C28.4102 11.9362 28.343 11.9362 28.231 11.9138C28.2534 11.3536 28.2758 11.0847 28.2982 10.5244C28.4774 10.5468 28.5894 10.5468 28.7911 10.5692ZM28.9031 11.1967C28.9479 11.1967 28.9703 11.1743 28.9927 11.1519C29.0151 11.1295 29.0375 11.1071 29.0375 11.0847C29.0375 11.0622 29.0599 11.0398 29.0599 10.995C29.0599 10.9726 29.0599 10.9278 29.0599 10.9054C29.0599 10.883 29.0375 10.8606 29.0151 10.8381C28.9927 10.8157 28.9703 10.8157 28.9255 10.7933C28.8807 10.7933 28.8359 10.7709 28.7911 10.7709C28.7015 10.7709 28.6567 10.7709 28.567 10.7709C28.567 10.9278 28.5446 11.0174 28.5446 11.1967C28.6343 11.1967 28.6791 11.1967 28.7687 11.1967C28.8135 11.2191 28.8583 11.2191 28.9031 11.1967Z" fill="white"/>
<path d="M29.8662 10.6142C29.8438 10.9504 29.8438 11.1072 29.8214 11.4434C29.8214 11.5554 29.8214 11.645 29.8662 11.7123C29.911 11.7795 29.9782 11.8019 30.0678 11.8019C30.1799 11.8019 30.2471 11.7795 30.2919 11.7347C30.3367 11.6899 30.3591 11.6002 30.3815 11.4658C30.4039 11.1296 30.4039 10.9728 30.4263 10.6366C30.5383 10.6366 30.6056 10.659 30.74 10.659C30.7176 10.9952 30.6952 11.152 30.6728 11.4882C30.6728 11.6002 30.6504 11.6899 30.6056 11.7571C30.5831 11.8243 30.5383 11.8916 30.4711 11.9364C30.4263 11.9812 30.3591 12.0036 30.2695 12.026C30.2023 12.0484 30.1126 12.0484 30.023 12.0484C29.9334 12.0484 29.8438 12.026 29.7766 12.0036C29.7094 11.9812 29.6421 11.9364 29.5973 11.8916C29.5525 11.8467 29.5077 11.7795 29.4853 11.6899C29.4629 11.6226 29.4629 11.5106 29.4629 11.421C29.4853 11.0848 29.4853 10.9279 29.5077 10.5918C29.6869 10.6142 29.7318 10.6142 29.8662 10.6142Z" fill="white"/>
<path d="M31.5467 10.7255C31.6587 10.7255 31.7483 10.7479 31.8155 10.7704C31.8827 10.7928 31.9276 10.8376 31.9724 10.86C32.0172 10.9048 32.0396 10.9496 32.0396 10.9944C32.062 11.0393 32.062 11.0841 32.0396 11.1513C32.0396 11.1961 32.0172 11.2634 31.9948 11.3082C31.9724 11.353 31.9051 11.3978 31.8379 11.4202C31.8827 11.4426 31.9051 11.465 31.95 11.4875C31.9724 11.5099 31.9948 11.5323 32.0172 11.5771C32.0396 11.5995 32.0396 11.6443 32.0396 11.6667C32.0396 11.6891 32.0396 11.734 32.0396 11.7564C32.0396 11.8236 32.0172 11.8684 31.9948 11.9132C31.9724 11.9581 31.9276 12.0029 31.8827 12.0477C31.8379 12.0925 31.7707 12.1149 31.7035 12.1149C31.6363 12.1373 31.5467 12.1373 31.4346 12.1373C31.2106 12.1149 31.0986 12.1149 30.8745 12.0925C30.9193 11.5323 30.9417 11.2634 30.9865 10.7031C31.233 10.7031 31.345 10.7255 31.5467 10.7255ZM31.7035 11.2634C31.7259 11.241 31.7483 11.1961 31.7483 11.1513C31.7483 11.0841 31.7259 11.0617 31.7035 11.0169C31.6587 10.9944 31.5915 10.972 31.5019 10.972C31.4122 10.972 31.3674 10.972 31.2778 10.9496C31.2778 11.0841 31.2554 11.1513 31.2554 11.2634C31.3674 11.2634 31.4122 11.2858 31.5243 11.2858C31.6139 11.2858 31.6811 11.2858 31.7035 11.2634ZM31.6139 11.8908C31.6587 11.8908 31.6811 11.8684 31.7035 11.8684C31.7259 11.846 31.7483 11.8236 31.7483 11.8012C31.7483 11.7788 31.7707 11.7564 31.7707 11.7116C31.7707 11.6443 31.7707 11.5995 31.7259 11.5771C31.7035 11.5323 31.6363 11.5323 31.5467 11.5099C31.4346 11.5099 31.3674 11.4875 31.2554 11.4875C31.233 11.6443 31.233 11.7116 31.233 11.8684C31.345 11.8684 31.3898 11.8908 31.4794 11.8908C31.5243 11.9132 31.5691 11.9132 31.6139 11.8908Z" fill="white"/>
<path d="M32.6444 10.8378C32.5996 11.286 32.5772 11.5325 32.5324 11.9807C32.8012 12.0031 32.9357 12.0255 33.2269 12.048C33.2045 12.1376 33.1821 12.2048 33.1597 12.2945C32.7788 12.2496 32.5772 12.2496 32.1963 12.2048C32.2411 11.6446 32.2635 11.3757 32.3083 10.8154C32.4652 10.8154 32.5324 10.8154 32.6444 10.8378Z" fill="white"/>
<path d="M33.8544 10.9501C33.7871 11.5104 33.7647 11.7793 33.6975 12.3395C33.5855 12.3171 33.5183 12.3171 33.4062 12.3171C33.4735 11.7569 33.4959 11.488 33.5407 10.9277C33.6751 10.9277 33.7423 10.9277 33.8544 10.9501Z" fill="white"/>
<path d="M34.4592 11.0176C34.4368 11.2417 34.4144 11.3538 34.392 11.5779C34.6385 11.3762 34.7505 11.2866 34.9969 11.0849C35.1314 11.1073 35.1986 11.1073 35.333 11.1297C35.109 11.309 34.9969 11.3986 34.7953 11.6003C34.9745 11.9813 35.0642 12.1605 35.221 12.5415C35.0866 12.5191 35.0194 12.5191 34.8849 12.4967C34.7505 12.2054 34.6833 12.0709 34.5488 11.7796C34.4816 11.8468 34.4368 11.8692 34.3472 11.9364C34.3248 12.1381 34.3024 12.2502 34.28 12.4519C34.168 12.4295 34.1007 12.4295 33.9663 12.4295C34.0335 11.8692 34.0559 11.6003 34.1231 11.0401C34.28 10.9952 34.3472 10.9952 34.4592 11.0176Z" fill="white"/>
<path d="M36.3188 11.2411C36.4756 11.8238 36.5428 12.1151 36.6773 12.6977C36.5428 12.6753 36.4756 12.6753 36.3636 12.6529C36.3412 12.5185 36.3188 12.4512 36.2964 12.3168C36.0947 12.2944 35.9827 12.2719 35.7811 12.2495C35.7138 12.3616 35.6914 12.4288 35.6242 12.5633C35.4898 12.5409 35.445 12.5409 35.3105 12.5185C35.6018 11.9806 35.7362 11.7341 36.0275 11.1963C36.1395 11.2187 36.2068 11.2187 36.3188 11.2411ZM36.1171 11.5548C36.0275 11.7341 35.9827 11.8462 35.8707 12.0254C36.0051 12.0479 36.0723 12.0479 36.2292 12.0703C36.1843 11.8686 36.1619 11.7565 36.1171 11.5548Z" fill="white"/>
<path d="M37.1479 12.4964C37.1927 12.5412 37.2599 12.5636 37.3719 12.586C37.4167 12.586 37.4616 12.586 37.484 12.586C37.5288 12.586 37.5512 12.5636 37.5736 12.5636C37.596 12.5412 37.6184 12.5412 37.6184 12.5188C37.6408 12.4964 37.6408 12.4739 37.6408 12.4515C37.6408 12.4067 37.6408 12.3843 37.6184 12.3395C37.596 12.2947 37.5512 12.2723 37.4616 12.2498C37.3943 12.2274 37.3495 12.205 37.2823 12.1826C37.2151 12.1602 37.1479 12.1378 37.1031 12.093C37.0583 12.0706 37.0134 12.0258 36.9686 11.9809C36.9238 11.9361 36.9014 11.8913 36.9014 11.8465C36.879 11.8017 36.879 11.7344 36.9014 11.6672C36.9014 11.6 36.9238 11.5551 36.9686 11.4879C37.0134 11.4431 37.0583 11.3983 37.1031 11.3759C37.1479 11.3535 37.2151 11.3311 37.2823 11.3311C37.3495 11.3311 37.4392 11.3311 37.5064 11.3311C37.6184 11.3535 37.708 11.3759 37.7752 11.3983C37.8424 11.4431 37.8873 11.4655 37.9321 11.5103C37.9769 11.5552 37.9993 11.6 37.9993 11.6672C38.0217 11.712 38.0217 11.7792 38.0217 11.8241C37.9097 11.8241 37.8424 11.8241 37.7304 11.8241C37.7304 11.7568 37.708 11.6896 37.6632 11.6448C37.6184 11.6 37.5736 11.5776 37.484 11.5552C37.4392 11.5552 37.3943 11.5552 37.3495 11.5552C37.3047 11.5552 37.2823 11.5551 37.2599 11.5776C37.2375 11.5776 37.2151 11.6 37.2151 11.6224C37.2151 11.6448 37.1927 11.6672 37.1927 11.6672C37.1927 11.712 37.1927 11.7568 37.2151 11.7792C37.2375 11.8017 37.2823 11.8465 37.3719 11.8689C37.4392 11.8913 37.484 11.9137 37.5736 11.9361C37.7304 11.9809 37.8424 12.0482 37.8873 12.1378C37.9545 12.205 37.9769 12.3171 37.9545 12.4515C37.9545 12.5188 37.9321 12.5636 37.8873 12.6084C37.8648 12.6532 37.82 12.698 37.7528 12.7204C37.708 12.7429 37.6408 12.7653 37.5736 12.7877C37.5064 12.7877 37.4167 12.7877 37.3271 12.7877C37.1255 12.7653 36.991 12.698 36.9014 12.6084C36.8118 12.5188 36.767 12.3843 36.7894 12.2274C36.9014 12.2498 36.9686 12.2498 37.1031 12.2723C37.1031 12.3843 37.1031 12.4515 37.1479 12.4964Z" fill="white"/>
<path d="M38.6491 11.578C38.5595 12.1383 38.5147 12.4072 38.4251 12.9674C38.313 12.945 38.2458 12.945 38.1338 12.9226C38.2234 12.3624 38.2682 12.0934 38.3578 11.5332C38.4699 11.5556 38.5147 11.5556 38.6491 11.578Z" fill="white"/>
<path d="M2.28555 17.1123C2.19593 17.1123 2.1063 17.0675 2.03909 17.0226C1.97187 16.9778 1.90466 16.9106 1.83744 16.8434C1.79263 16.7537 1.74782 16.6641 1.70301 16.552C1.68061 16.44 1.6582 16.3504 1.6582 16.2383C1.6582 16.1487 1.68061 16.059 1.72542 15.9694C1.77023 15.8798 1.81504 15.8349 1.90466 15.7677C1.97188 15.7229 2.0615 15.6781 2.17352 15.6333C2.28555 15.6108 2.37517 15.5884 2.46479 15.6108C2.55441 15.6333 2.64403 15.6557 2.71124 15.7005C2.77846 15.7453 2.84567 15.8125 2.89048 15.8798C2.93529 15.9694 2.98011 16.059 3.00251 16.1711C3.02492 16.2831 3.04732 16.3728 3.02492 16.4848C3.02492 16.5745 3.00251 16.6641 2.9577 16.7313C2.91289 16.7986 2.86808 16.8658 2.77846 16.933C2.68884 17.0002 2.62162 17.0226 2.5096 17.0451C2.46479 17.1123 2.37517 17.1347 2.28555 17.1123ZM2.73365 16.6641C2.77846 16.5745 2.77846 16.44 2.73365 16.2831C2.68884 16.1263 2.64403 16.0366 2.55441 15.9694C2.46479 15.9022 2.37517 15.8798 2.24074 15.9246C2.12871 15.947 2.03909 16.0142 1.99428 16.1263C1.94947 16.2159 1.94947 16.3504 1.99428 16.4848C2.03909 16.6417 2.10631 16.7313 2.17352 16.7986C2.26314 16.8658 2.35276 16.8882 2.48719 16.8434C2.62162 16.821 2.71124 16.7537 2.73365 16.6641Z" fill="white"/>
<path d="M3.40596 15.4092C3.51798 15.8574 3.56279 16.0815 3.67482 16.5297C3.94368 16.4624 4.07811 16.44 4.32457 16.3728C4.32457 16.4624 4.34697 16.5297 4.34697 16.6193C3.98849 16.7089 3.80925 16.7538 3.42836 16.8434C3.29393 16.3056 3.22672 16.0366 3.09229 15.4988C3.22672 15.4316 3.29393 15.4316 3.40596 15.4092Z" fill="white"/>
<path d="M4.54854 15.1182C4.68297 15.656 4.75018 15.9249 4.86221 16.4851C4.75018 16.5076 4.68297 16.53 4.57094 16.5524C4.43651 16.0145 4.36929 15.7456 4.23486 15.1854C4.36929 15.163 4.43651 15.1406 4.54854 15.1182Z" fill="white"/>
<path d="M4.70508 15.0736C4.83951 15.0512 4.90672 15.0288 5.04115 15.0064C5.2204 15.2081 5.31001 15.2977 5.46685 15.4994C5.53407 15.2529 5.57888 15.1184 5.64609 14.8719C5.78052 14.8495 5.82533 14.8271 5.95976 14.8047C5.84774 15.1632 5.78052 15.3425 5.6685 15.7235C5.71331 15.9476 5.73571 16.0596 5.80293 16.2837C5.6909 16.3061 5.62369 16.3285 5.51166 16.3509C5.46685 16.1269 5.44445 16.0148 5.37723 15.7907C5.13078 15.4994 4.99634 15.3649 4.70508 15.0736Z" fill="white"/>
<path d="M6.45302 14.9618C6.43061 14.8721 6.43061 14.8049 6.4082 14.7153C6.85631 14.6256 7.10276 14.5808 7.55087 14.4688C7.57327 14.5584 7.57327 14.6256 7.59567 14.7153C7.41643 14.7601 7.34922 14.7601 7.16998 14.8049C7.2596 15.2531 7.30441 15.4772 7.39403 15.9254C7.282 15.9478 7.21479 15.9702 7.10276 15.9926C7.01314 15.5444 6.96833 15.3203 6.87871 14.8721C6.69947 14.8945 6.63226 14.9169 6.45302 14.9618Z" fill="white"/>
<path d="M8.22278 14.334C8.53645 14.8494 8.69329 15.0959 9.00696 15.6113C8.87253 15.6337 8.82772 15.6561 8.69329 15.6786C8.62607 15.5665 8.58126 15.4993 8.51405 15.3872C8.3124 15.4321 8.22278 15.4321 8.02114 15.4769C7.99873 15.6113 7.99873 15.6786 7.97632 15.813C7.8643 15.8354 7.79708 15.8578 7.68506 15.8802C7.77468 15.2976 7.84189 14.9839 7.93151 14.4012C8.06594 14.3788 8.11075 14.3564 8.22278 14.334ZM8.15556 14.6925C8.13316 14.8942 8.11075 15.0063 8.08835 15.208C8.22278 15.1855 8.28999 15.1631 8.42442 15.1407C8.3124 14.9615 8.24518 14.8718 8.15556 14.6925Z" fill="white"/>
<path d="M9.02912 14.1992C9.00671 14.4009 9.00671 14.513 8.98431 14.7146C8.89468 14.737 8.84988 14.737 8.78266 14.7595C8.78266 14.5578 8.76025 14.4681 8.76025 14.2664C8.84987 14.2216 8.91709 14.1992 9.02912 14.1992Z" fill="white"/>
<path d="M9.54468 14.0869C9.6343 14.5351 9.65671 14.7592 9.74633 15.2074C10.0152 15.1626 10.1496 15.1402 10.4185 15.0953C10.4185 15.2074 10.4185 15.2522 10.4185 15.3418C10.06 15.4091 9.85835 15.4315 9.49987 15.4987C9.41025 14.9385 9.34304 14.6696 9.25342 14.1317C9.36544 14.1317 9.43266 14.1093 9.54468 14.0869Z" fill="white"/>
<path d="M10.7097 13.9082C10.7993 14.4684 10.8442 14.7374 10.9338 15.2976C10.8217 15.32 10.7545 15.32 10.6425 15.3424C10.5529 14.7822 10.5081 14.5133 10.4185 13.953C10.5305 13.9306 10.5977 13.9306 10.7097 13.9082Z" fill="white"/>
<path d="M11.3595 13.7956C11.5611 14.1766 11.6731 14.3782 11.8748 14.7816C11.9644 14.3558 12.0092 14.1317 12.0764 13.706C12.2109 13.6835 12.2781 13.6835 12.4349 13.6611C12.5021 14.2214 12.5469 14.4903 12.6366 15.0505C12.5245 15.0729 12.4797 15.0729 12.3677 15.0953C12.3229 14.7368 12.2781 14.5351 12.2333 14.1766C12.166 14.5575 12.1212 14.7592 12.054 15.1402C11.9644 15.1626 11.9196 15.1626 11.83 15.185C11.6507 14.8264 11.5611 14.6696 11.3595 14.311C11.4267 14.6696 11.4491 14.8712 11.4939 15.2298C11.3819 15.2522 11.3371 15.2522 11.225 15.2746C11.1354 14.7144 11.0906 14.4455 11.001 13.8852C11.1354 13.8404 11.2026 13.818 11.3595 13.7956Z" fill="white"/>
<path d="M13.1073 14.6475C13.0849 14.8491 13.0849 14.9612 13.0625 15.1629C12.9729 15.1853 12.9281 15.1853 12.8608 15.1853C12.8608 14.9836 12.8608 14.894 12.8608 14.6923C12.9505 14.6699 12.9953 14.6475 13.1073 14.6475Z" fill="white"/>
<path d="M14.586 13.3701C14.6084 13.4598 14.6084 13.527 14.6084 13.6166C14.3619 13.639 14.2275 13.6614 13.9586 13.6839C13.981 13.8183 13.981 13.8855 14.0034 14.02C14.2499 13.9976 14.3619 13.9752 14.6084 13.9528C14.6308 14.0424 14.6308 14.1096 14.6308 14.1993C14.3843 14.2217 14.2723 14.2441 14.0258 14.2665C14.0483 14.4906 14.0707 14.6026 14.0931 14.8267C13.981 14.8491 13.9138 14.8491 13.8018 14.8716C13.7346 14.3113 13.6898 14.0424 13.6226 13.4822C14.0259 13.4373 14.2051 13.4149 14.586 13.3701Z" fill="white"/>
<path d="M15.3924 13.2803C15.6612 13.8181 15.7957 14.087 16.0645 14.6248C15.9301 14.6473 15.8853 14.6473 15.7509 14.6473C15.6836 14.5128 15.6612 14.468 15.594 14.3335C15.3924 14.3559 15.3027 14.3559 15.1011 14.3783C15.0787 14.5128 15.0563 14.58 15.0339 14.7145C14.9219 14.7369 14.8546 14.7369 14.7202 14.7593C14.8771 14.1767 14.9443 13.8853 15.1011 13.3027C15.2131 13.3027 15.2803 13.3027 15.3924 13.2803ZM15.2803 13.6164C15.2355 13.8181 15.2131 13.9302 15.1683 14.1318C15.3027 14.1094 15.37 14.1094 15.5044 14.087C15.4148 13.9077 15.37 13.8181 15.2803 13.6164Z" fill="white"/>
<path d="M16.3562 13.1912C16.6251 13.5273 16.7595 13.7066 17.0284 14.0428C17.006 13.6842 16.9835 13.5049 16.9387 13.124C17.0508 13.124 17.118 13.1016 17.23 13.1016C17.2748 13.6618 17.2972 13.9307 17.342 14.491C17.23 14.491 17.1852 14.5134 17.0732 14.5134C16.8043 14.1772 16.6699 13.9979 16.401 13.6618C16.4458 14.0204 16.4458 14.1996 16.4906 14.5582C16.3786 14.5582 16.3114 14.5806 16.1994 14.5806C16.1546 14.0204 16.1098 13.7514 16.0649 13.1912C16.1994 13.1912 16.2666 13.1912 16.3562 13.1912Z" fill="white"/>
<path d="M18.1481 13.034C18.305 13.415 18.3946 13.6167 18.5738 13.9976C18.6859 13.5943 18.7531 13.3926 18.8651 12.9892C18.9995 12.9892 19.0668 12.9668 19.1788 12.9668C18.9995 13.527 18.9099 13.8184 18.7307 14.401C18.6187 14.401 18.5738 14.4234 18.4618 14.4234C18.2154 13.8856 18.0809 13.6167 17.8345 13.0788C17.9465 13.0564 18.0137 13.034 18.1481 13.034Z" fill="white"/>
<path d="M19.8512 12.9219C20.0976 13.4597 20.2097 13.751 20.4561 14.2889C20.3217 14.2889 20.2769 14.2889 20.1425 14.3113C20.0976 14.1768 20.0752 14.132 20.008 13.9975C19.8064 13.9975 19.7168 14.0199 19.5151 14.0199C19.4703 14.1544 19.4479 14.2216 19.4255 14.3561C19.3135 14.3561 19.2462 14.3561 19.1118 14.3785C19.2911 13.7958 19.3807 13.5269 19.5599 12.9443C19.6719 12.9443 19.7392 12.9443 19.8512 12.9219ZM19.7168 13.258C19.6495 13.4597 19.6271 13.5718 19.5823 13.7734C19.7168 13.7734 19.784 13.751 19.9184 13.751C19.8288 13.5718 19.784 13.4597 19.7168 13.258Z" fill="white"/>
<path d="M21.3073 12.8545C21.3297 13.4147 21.3297 13.6836 21.3521 14.2439C21.2401 14.2439 21.1729 14.2439 21.0609 14.2663C21.0385 13.7061 21.0161 13.4371 20.9937 12.8769C21.1057 12.8769 21.1729 12.8769 21.3073 12.8545Z" fill="white"/>
<path d="M21.8674 12.832C22.1139 13.1905 22.2483 13.3698 22.4724 13.7284C22.4724 13.3698 22.45 13.1681 22.45 12.8096C22.562 12.8096 22.6292 12.8096 22.7412 12.8096C22.7636 13.3698 22.7636 13.6387 22.7636 14.199C22.6516 14.199 22.6068 14.199 22.4948 14.199C22.2483 13.8404 22.1363 13.6611 21.8898 13.3026C21.8898 13.6611 21.9122 13.8404 21.9122 14.2214C21.8002 14.2214 21.733 14.2214 21.621 14.2214C21.5986 13.6611 21.5986 13.3922 21.5762 12.832C21.6882 12.8544 21.7554 12.8544 21.8674 12.832Z" fill="white"/>
<path d="M23.3016 12.8096C23.548 13.1681 23.6601 13.3474 23.9065 13.7284C23.9065 13.3698 23.9065 13.1681 23.9065 12.8096C24.0185 12.8096 24.0858 12.8096 24.1978 12.8096C24.1978 13.3698 24.1978 13.6387 24.1978 14.199C24.0858 14.199 24.0409 14.199 23.9289 14.199C23.6825 13.8404 23.5704 13.6611 23.324 13.3026C23.324 13.6611 23.324 13.8404 23.3464 14.2214C23.2344 14.2214 23.1671 14.2214 23.0551 14.2214C23.0551 13.6611 23.0327 13.3922 23.0327 12.832C23.1447 12.8096 23.1895 12.8096 23.3016 12.8096Z" fill="white"/>
<path d="M24.8252 14.1774C24.7356 14.1326 24.6684 14.0877 24.6236 14.0205C24.5564 13.9533 24.5116 13.8861 24.4891 13.7964C24.4667 13.7068 24.4443 13.5947 24.4443 13.4827C24.4443 13.3706 24.4667 13.2586 24.4891 13.1689C24.5116 13.0793 24.5564 13.0121 24.6236 12.9448C24.6908 12.8776 24.758 12.8328 24.8476 12.788C24.9373 12.7656 25.0269 12.7432 25.1389 12.7432C25.2509 12.7432 25.3405 12.7656 25.4302 12.788C25.5198 12.8328 25.587 12.8776 25.6318 12.9448C25.699 13.0121 25.7214 13.0793 25.7662 13.1689C25.7886 13.2586 25.811 13.3706 25.811 13.4827C25.811 13.5947 25.7886 13.7068 25.7662 13.7964C25.7438 13.8861 25.699 13.9533 25.6318 14.0205C25.5646 14.0877 25.4974 14.1326 25.4302 14.155C25.3405 14.1774 25.2509 14.1998 25.1389 14.1998C25.0045 14.2446 24.9148 14.2222 24.8252 14.1774ZM25.3854 13.8636C25.4526 13.774 25.475 13.662 25.475 13.5051C25.475 13.3482 25.4526 13.2362 25.3854 13.1465C25.3181 13.0569 25.2285 13.0121 25.1165 13.0121C24.9821 13.0121 24.8924 13.0569 24.8252 13.1465C24.758 13.2362 24.7356 13.3482 24.7356 13.5051C24.7356 13.662 24.758 13.774 24.8252 13.8636C24.8924 13.9533 24.9821 13.9981 25.0941 13.9981C25.2285 13.9981 25.3181 13.9533 25.3854 13.8636Z" fill="white"/>
<path d="M26.1695 12.8105C26.3039 13.2139 26.3712 13.4156 26.4832 13.7965C26.64 13.4156 26.7072 13.2139 26.8641 12.8105C26.9985 12.8105 27.0657 12.8105 27.1777 12.8105C26.9537 13.3707 26.8193 13.6396 26.5952 14.1999C26.4832 14.1999 26.4384 14.1999 26.3264 14.1999C26.1247 13.6396 26.0351 13.3483 25.811 12.7881C25.9679 12.8105 26.0351 12.8105 26.1695 12.8105Z" fill="white"/>
<path d="M27.8719 12.8769C28.0735 13.4371 28.1631 13.7284 28.3424 14.2887C28.2079 14.2887 28.1631 14.2887 28.0287 14.2662C27.9839 14.1318 27.9615 14.0646 27.9391 13.9301C27.7374 13.9301 27.6478 13.9077 27.4461 13.9077C27.4013 14.0421 27.3789 14.1094 27.3117 14.2214C27.1997 14.2214 27.1325 14.2214 26.998 14.2214C27.2221 13.6612 27.3341 13.3923 27.5806 12.832C27.715 12.8544 27.7598 12.8544 27.8719 12.8769ZM27.715 13.1906C27.6478 13.3923 27.603 13.4819 27.5358 13.6836C27.6702 13.6836 27.7374 13.6836 27.8719 13.706C27.8046 13.5043 27.7822 13.3923 27.715 13.1906Z" fill="white"/>
<path d="M28.2754 13.1459C28.2754 13.0339 28.2754 12.9891 28.2754 12.8994C28.7459 12.9218 28.97 12.9218 29.4405 12.9666C29.4405 13.0787 29.4405 13.1235 29.4181 13.2131C29.2388 13.2131 29.1492 13.1907 28.9924 13.1907C28.97 13.6389 28.9475 13.8854 28.9251 14.3336C28.8131 14.3336 28.7459 14.3336 28.6339 14.3112C28.6563 13.863 28.6563 13.6165 28.6787 13.1683C28.5218 13.1459 28.4546 13.1459 28.2754 13.1459Z" fill="white"/>
<path d="M29.8888 14.1096C29.9336 14.1544 30.0008 14.1768 30.1128 14.1768C30.1576 14.1768 30.2024 14.1768 30.2248 14.1768C30.2472 14.1768 30.292 14.1544 30.3145 14.132C30.3369 14.1096 30.3593 14.1096 30.3593 14.0872C30.3593 14.0648 30.3817 14.0424 30.3817 14.0199C30.3817 13.9751 30.3817 13.9527 30.3369 13.9079C30.3145 13.8631 30.2696 13.8407 30.18 13.8183C30.1128 13.7958 30.068 13.7958 30.0008 13.7734C29.9336 13.751 29.8663 13.7286 29.8215 13.7062C29.7767 13.6838 29.7319 13.6614 29.6871 13.6166C29.6423 13.5718 29.6199 13.5493 29.5975 13.4821C29.5751 13.4373 29.5751 13.3701 29.5751 13.3028C29.5751 13.2356 29.5975 13.1684 29.6199 13.1236C29.6423 13.0787 29.6871 13.0339 29.7319 13.0115C29.7767 12.9891 29.8439 12.9667 29.9112 12.9443C29.9784 12.9219 30.0456 12.9219 30.1352 12.9219C30.2472 12.9219 30.3369 12.9443 30.4041 12.9667C30.4713 12.9891 30.5161 13.0339 30.5609 13.0787C30.6057 13.1236 30.6281 13.1684 30.6505 13.2132C30.6729 13.258 30.6729 13.3252 30.6729 13.3701C30.5609 13.3701 30.4937 13.3701 30.3817 13.3925C30.3817 13.3252 30.3369 13.258 30.3145 13.2132C30.2696 13.1684 30.2024 13.146 30.1352 13.146C30.0904 13.146 30.0456 13.146 30.0008 13.146C29.9784 13.146 29.9336 13.1684 29.9112 13.1684C29.8888 13.1908 29.8664 13.1908 29.8664 13.2132C29.8664 13.2356 29.8439 13.258 29.8439 13.258C29.8439 13.3028 29.8439 13.3477 29.8888 13.3701C29.9112 13.3925 29.956 13.4149 30.0456 13.4373C30.1128 13.4597 30.1576 13.4597 30.2472 13.4821C30.4041 13.5269 30.5161 13.5718 30.5833 13.6614C30.6505 13.7286 30.6729 13.8407 30.6729 13.9527C30.6729 14.0199 30.6505 14.0648 30.6281 14.1096C30.6057 14.1544 30.5609 14.1992 30.5161 14.244C30.4713 14.2889 30.4041 14.3113 30.3369 14.3113C30.2696 14.3337 30.18 14.3337 30.0904 14.3337C29.8888 14.3113 29.7543 14.2664 29.6647 14.1768C29.5751 14.0872 29.5303 13.9527 29.5303 13.7958C29.6423 13.7958 29.7095 13.7958 29.8215 13.8183C29.8215 13.9975 29.8439 14.0648 29.8888 14.1096Z" fill="white"/>
<path d="M31.2553 13.0566C31.2105 13.6168 31.1881 13.8857 31.1433 14.446C31.0313 14.446 30.9641 14.4236 30.8521 14.4236C30.8969 13.8633 30.9193 13.5944 30.9641 13.0342C31.0761 13.0566 31.1209 13.0566 31.2553 13.0566Z" fill="white"/>
<path d="M31.4121 13.0791C31.5465 13.0791 31.6138 13.1015 31.7482 13.1015C31.8602 13.348 31.905 13.4601 32.0171 13.6842C32.1739 13.4601 32.2411 13.3704 32.3755 13.1463C32.51 13.1687 32.5548 13.1687 32.6892 13.1687C32.4652 13.4825 32.3531 13.6393 32.1291 13.9531C32.1067 14.1772 32.1067 14.2892 32.0843 14.5133C31.9722 14.5133 31.905 14.4909 31.793 14.4909C31.8154 14.2668 31.8154 14.1548 31.8378 13.9307C31.681 13.5945 31.5914 13.4152 31.4121 13.0791Z" fill="white"/>
<path d="M33.3164 13.258C33.4733 13.8407 33.5629 14.132 33.6973 14.7146C33.5629 14.6922 33.5181 14.6922 33.3837 14.6922C33.3613 14.5578 33.3388 14.4905 33.294 14.3561C33.0924 14.3337 33.0028 14.3337 32.8011 14.3113C32.7339 14.4457 32.7115 14.4905 32.6667 14.625C32.5547 14.6026 32.4875 14.6026 32.353 14.6026C32.6219 14.0648 32.7563 13.7958 33.0252 13.258C33.1596 13.2356 33.2044 13.2356 33.3164 13.258ZM33.1372 13.5718C33.0476 13.7734 33.0028 13.8631 32.9132 14.0424C33.0476 14.0648 33.1148 14.0648 33.2492 14.0872C33.2044 13.8855 33.182 13.7734 33.1372 13.5718Z" fill="white"/>
<path d="M34.3251 13.3701C34.2802 13.8183 34.2578 14.0648 34.1906 14.513C34.4595 14.5354 34.5939 14.5578 34.8628 14.6026C34.8404 14.6922 34.818 14.7595 34.7956 14.8491C34.4147 14.8043 34.2354 14.7819 33.877 14.737C33.9442 14.1768 33.9666 13.9079 34.0338 13.3477C34.1458 13.3477 34.1906 13.3477 34.3251 13.3701Z" fill="white"/>
<path d="M35.9155 13.5497C36.0499 14.1324 36.1171 14.4237 36.2515 15.0063C36.1171 14.9839 36.0723 14.9839 35.9379 14.9615C35.9155 14.827 35.893 14.7598 35.8706 14.6254C35.669 14.603 35.5794 14.5805 35.3777 14.5581C35.3105 14.6702 35.2881 14.7374 35.2209 14.8719C35.1089 14.8495 35.0417 14.8495 34.9072 14.827C35.1761 14.2892 35.3329 14.0427 35.6242 13.5049C35.7586 13.5273 35.8034 13.5497 35.9155 13.5497ZM35.7362 13.8634C35.6466 14.0427 35.6018 14.1548 35.4898 14.334C35.6242 14.3564 35.6914 14.3564 35.8258 14.3789C35.781 14.1772 35.781 14.0875 35.7362 13.8634Z" fill="white"/>
<path d="M37.1253 13.7284C37.2373 13.7508 37.3269 13.7732 37.3941 13.8181C37.4614 13.8629 37.5062 13.8853 37.551 13.9525C37.5958 13.9973 37.6182 14.0421 37.6182 14.1094C37.6182 14.1542 37.6182 14.2214 37.6182 14.2662C37.5958 14.3559 37.5734 14.4231 37.5286 14.4903C37.4838 14.5352 37.4165 14.58 37.3493 14.6248C37.439 14.8713 37.4614 15.0058 37.551 15.2523C37.4165 15.2299 37.3717 15.2299 37.2373 15.2074C37.1701 14.9833 37.1477 14.8713 37.0805 14.6472C36.9684 14.6248 36.9236 14.6248 36.8116 14.6024C36.7892 14.8041 36.7668 14.9161 36.7444 15.1178C36.6324 15.0954 36.5652 15.0954 36.4531 15.073C36.5203 14.5127 36.5651 14.2438 36.6548 13.6836C36.8116 13.6836 36.9236 13.706 37.1253 13.7284ZM37.1701 14.3559C37.1925 14.3559 37.2373 14.3335 37.2597 14.3335C37.2821 14.3111 37.3045 14.2887 37.3045 14.2662C37.3045 14.2438 37.3269 14.2214 37.3269 14.1766C37.3269 14.1542 37.3269 14.1318 37.3269 14.1094C37.3269 14.087 37.3045 14.0646 37.3045 14.0421C37.2821 14.0197 37.2597 13.9973 37.2373 13.9973C37.2149 13.9749 37.1701 13.9749 37.1029 13.9749C37.0133 13.9525 36.9908 13.9525 36.9012 13.9525C36.8788 14.1094 36.8788 14.1766 36.8564 14.3335C36.946 14.3559 36.9908 14.3559 37.0805 14.3559C37.1029 14.3559 37.1477 14.3559 37.1701 14.3559Z" fill="white"/>
<path d="M38.5368 13.953C38.604 14.3563 38.6488 14.5804 38.716 14.9838C38.9177 14.6253 39.0297 14.4236 39.2313 14.065C39.3658 14.0874 39.433 14.0874 39.545 14.1098C39.2313 14.6253 39.0745 14.8718 38.7832 15.3872C38.6712 15.3648 38.6264 15.3648 38.5144 15.3424C38.4023 14.7597 38.3351 14.4684 38.2007 13.8857C38.3351 13.9082 38.4023 13.9306 38.5368 13.953Z" fill="white"/>
<path d="M40.2171 14.244C40.3291 14.8267 40.3739 15.118 40.486 15.7231C40.3515 15.7007 40.3067 15.6782 40.1723 15.6558C40.1499 15.5214 40.1499 15.4542 40.1275 15.3197C39.9258 15.2749 39.8362 15.2749 39.6346 15.2301C39.5674 15.3421 39.5225 15.4093 39.4553 15.5214C39.3433 15.499 39.2761 15.499 39.1641 15.4766C39.4777 14.9611 39.6346 14.7146 39.9258 14.1992C40.0379 14.1992 40.1051 14.2216 40.2171 14.244ZM39.993 14.5354C39.881 14.7146 39.8362 14.8043 39.7242 15.006C39.8586 15.0284 39.9258 15.0508 40.0603 15.0732C40.0603 14.8491 40.0379 14.737 39.993 14.5354Z" fill="white"/>
<path d="M41.5172 14.7374C41.2483 14.6926 41.0915 14.6478 40.8226 14.6029C40.845 14.5133 40.845 14.4461 40.8674 14.3564C41.2931 14.4461 41.4948 14.4685 41.9205 14.5581C41.8981 14.6478 41.8981 14.6926 41.8757 14.7598C41.5172 15.0736 41.3379 15.2304 41.0019 15.5442C41.2931 15.6114 41.45 15.6338 41.7188 15.701C41.6964 15.7907 41.674 15.8355 41.6292 15.9475C41.2035 15.8579 41.0019 15.8131 40.5762 15.7458C40.5986 15.6562 40.5986 15.6114 40.621 15.5442C40.9795 15.208 41.1587 15.0511 41.5172 14.7374Z" fill="white"/>
<path d="M42.4131 14.6698C42.3011 15.2076 42.2339 15.4989 42.1218 16.0368C42.0098 16.0143 41.9426 15.9919 41.8306 15.9695C41.9426 15.4317 42.0098 15.1404 42.1218 14.6025C42.2339 14.6249 42.3011 14.6474 42.4131 14.6698Z" fill="white"/>
<path d="M43.1973 14.8494C43.3093 14.8718 43.399 14.9166 43.4662 14.939C43.5334 14.9838 43.5782 15.0286 43.623 15.0734C43.6454 15.1183 43.6678 15.1631 43.6678 15.2303C43.6678 15.2751 43.6678 15.3424 43.6678 15.3872C43.6454 15.4768 43.623 15.544 43.5782 15.5889C43.5334 15.6337 43.4662 15.6785 43.3766 15.7009C43.4438 15.9474 43.4662 16.0819 43.5334 16.3508C43.399 16.3284 43.3542 16.306 43.2197 16.2836C43.1749 16.0595 43.1525 15.9474 43.1077 15.7233C42.9957 15.7009 42.9509 15.6785 42.8388 15.6561C42.794 15.8578 42.7716 15.9698 42.7268 16.1715C42.6148 16.1491 42.5476 16.1267 42.4355 16.1043C42.5476 15.5665 42.6148 15.2751 42.7268 14.7373C42.9061 14.7821 42.9957 14.8045 43.1973 14.8494ZM43.1973 15.4768C43.2197 15.4768 43.2645 15.4768 43.2869 15.4544C43.3093 15.432 43.3318 15.432 43.3318 15.4096C43.3542 15.3872 43.3542 15.3648 43.3542 15.3424C43.3542 15.32 43.3542 15.2975 43.3542 15.2751C43.3542 15.2527 43.3318 15.2303 43.3318 15.2079C43.3093 15.1855 43.2869 15.1631 43.2645 15.1407C43.2421 15.1183 43.1973 15.1183 43.1301 15.0959C43.0405 15.0734 43.0181 15.0734 42.9285 15.051C42.9061 15.2079 42.8836 15.2751 42.8388 15.432C42.9285 15.4544 42.9733 15.4544 43.0629 15.4768C43.1301 15.4768 43.1749 15.4768 43.1973 15.4768Z" fill="white"/>
<path d="M44.2953 15.0955C44.1833 15.5437 44.1385 15.7678 44.0264 16.216C44.2953 16.2833 44.4297 16.3057 44.6762 16.3729C44.6314 16.4625 44.6314 16.5074 44.5866 16.6194C44.2281 16.5298 44.0489 16.4849 43.668 16.3953C43.8024 15.8575 43.8472 15.5886 43.9816 15.0283C44.1161 15.0507 44.1609 15.0507 44.2953 15.0955Z" fill="white"/>
<path d="M45.4379 15.3651C45.3035 15.9029 45.2362 16.1718 45.1018 16.7321C44.9898 16.7097 44.9226 16.6872 44.8105 16.6648C44.945 16.127 45.0122 15.8581 45.1466 15.2979C45.2586 15.3203 45.3259 15.3427 45.4379 15.3651Z" fill="white"/>
<path d="M46.7371 16.3502C46.6699 16.5743 46.6475 16.6863 46.5803 16.9104C46.4907 16.9552 46.401 16.9776 46.289 17C46.177 17 46.0874 17 45.9753 16.9776C45.8633 16.9552 45.7737 16.9104 45.7065 16.8432C45.6393 16.7983 45.572 16.7311 45.5496 16.6415C45.5048 16.5742 45.4824 16.4846 45.4824 16.395C45.4824 16.3053 45.4824 16.1933 45.5048 16.1036C45.5272 15.9916 45.572 15.902 45.6169 15.8123C45.6617 15.7227 45.7289 15.6779 45.7961 15.6106C45.8633 15.5658 45.9529 15.5434 46.0425 15.521C46.1322 15.4986 46.2218 15.521 46.3114 15.5434C46.401 15.5658 46.4682 15.5882 46.5355 15.633C46.6027 15.6779 46.6475 15.7227 46.6699 15.7675C46.7147 15.8123 46.7371 15.8796 46.7371 15.9244C46.7595 15.9916 46.7595 16.0364 46.7595 16.1036C46.6475 16.0812 46.5803 16.0812 46.4683 16.0588C46.4683 16.014 46.4683 15.9916 46.4683 15.9692C46.4683 15.9468 46.4458 15.9244 46.4458 15.8796C46.4234 15.8571 46.401 15.8347 46.3786 15.8123C46.3562 15.7899 46.3114 15.7899 46.2666 15.7675C46.1546 15.7451 46.065 15.7675 45.9753 15.8347C45.9081 15.902 45.8409 16.014 45.7961 16.1709C45.7513 16.3277 45.7513 16.4398 45.7961 16.5294C45.8409 16.6191 45.9081 16.6863 46.0425 16.7311C46.1098 16.7535 46.1546 16.7535 46.1994 16.7535C46.2442 16.7535 46.289 16.7535 46.3338 16.7311C46.3562 16.6415 46.3786 16.5967 46.401 16.507C46.289 16.4846 46.2442 16.4622 46.1322 16.4398C46.1546 16.3502 46.177 16.3053 46.1994 16.2157C46.4234 16.2605 46.5355 16.3053 46.7371 16.3502Z" fill="white"/>
<path d="M47.432 15.8797C47.2751 16.4176 47.2079 16.6865 47.0735 17.2243C46.9615 17.2019 46.8943 17.1795 46.7822 17.1571C46.9391 16.6192 47.0063 16.3503 47.1407 15.8125C47.2751 15.8349 47.3199 15.8573 47.432 15.8797Z" fill="white"/>
<path d="M48.1039 23.476H47.723L46.8044 23.4536H46.4235H45.5497H45.1464H44.9672L45.2361 22.8262L45.8634 21.3471L46.2891 20.3387L45.9978 20.3611L45.5945 20.3835L44.6983 20.4284L44.295 20.4508L43.242 20.4956L42.7491 20.518L43.6677 17.8737L43.7349 17.7168C43.7349 17.7168 43.7125 17.7168 43.6901 17.7168C43.4885 17.7168 42.4578 17.7392 40.7998 18.0305C40.5758 18.0753 40.3741 18.1202 40.1277 18.165C39.5676 18.277 38.9402 18.4339 38.2457 18.6132L39.9933 18.9717L40.6206 19.1062L41.3152 19.2631C41.3152 19.2631 40.755 20.6524 39.9933 22.9382C39.5676 24.1932 39.0971 25.7394 38.6041 27.4874C37.8872 30.0645 37.1702 33.0449 36.6773 36.2047C36.6549 36.3391 36.6325 36.4512 36.6101 36.5856C36.6101 36.5856 35.7811 36.5856 34.5264 36.6977C32.1515 36.9218 28.2306 37.6389 25.2507 39.6782C25.0939 39.7678 24.9594 39.8798 24.825 39.9695C24.713 40.0591 24.6009 40.1263 24.4889 40.216L24.1528 39.9695C24.0184 39.8574 23.884 39.7678 23.7271 39.6782C20.5456 37.482 16.2886 36.8321 14.0033 36.6529C12.9951 36.5632 12.3678 36.5856 12.3678 36.5856C12.3453 36.4736 12.3229 36.3391 12.3005 36.2047C11.5164 31.3642 10.2617 26.8823 9.25344 23.745C9.25344 23.745 9.25344 23.745 9.25344 23.7226C8.76053 22.1987 8.31243 20.9886 8.02116 20.2267C7.7747 19.5992 7.64027 19.2631 7.64027 19.2631L7.84192 19.2182L8.46926 19.0838L10.7098 18.6132C9.81357 18.3667 9.00698 18.1874 8.31242 18.0753C8.06597 18.0305 7.84192 17.9857 7.64027 17.9633C6.16153 17.7168 5.28773 17.7168 5.24292 17.7168L6.22875 20.5404L5.24292 20.4956L4.18988 20.4508L3.78659 20.4284L2.89039 20.3835H2.71114L2.9576 20.9886L4.03305 23.476H3.33849H2.9352L2.0614 23.4985H1.65811H0.739497H0.381014H0.246582C0.291392 23.5657 0.35861 23.6553 0.403421 23.7226C0.560256 23.9466 0.71709 24.1932 0.873926 24.4173C1.29962 25.0671 1.72532 25.7842 2.10621 26.5013C2.28545 26.8599 2.46469 27.2184 2.64393 27.577C3.11444 28.5406 3.56254 29.549 3.98824 30.5575C4.18989 31.0729 4.41393 31.6107 4.61558 32.1261C5.17571 33.65 5.66862 35.129 6.09432 36.4736C6.16153 36.6977 6.22875 36.9218 6.29596 37.1235C6.49761 37.7733 6.67685 38.3784 6.83369 38.9386C7.05774 39.7454 7.23698 40.4401 7.37141 40.9779C7.43862 41.2692 7.50584 41.4933 7.52824 41.6726C7.59546 41.9415 7.64027 42.0984 7.64027 42.0984C7.7747 42.076 7.90913 42.076 8.04356 42.0536C9.20863 41.9191 10.3737 41.8071 11.5612 41.695C11.7628 41.6726 11.9869 41.6726 12.1885 41.6502C13.0623 41.583 13.9361 41.5157 14.7875 41.4485C14.9667 41.4261 15.1684 41.4261 15.3476 41.4037C18.0138 41.2244 20.7025 41.1348 23.3911 41.1348C23.7496 41.1124 24.108 41.1124 24.4665 41.1124C24.825 41.1124 25.1835 41.1124 25.5644 41.1348C28.253 41.1572 30.9416 41.2468 33.6078 41.4037C33.6526 41.4037 33.6974 41.4037 33.7422 41.4037C34.5936 41.4485 35.445 41.5157 36.2964 41.583C36.4981 41.583 36.7221 41.6054 36.9238 41.6278C38.0888 41.7174 39.2315 41.8295 40.3966 41.9639C40.7102 41.9863 41.0239 42.0312 41.3376 42.0536C41.3376 42.0536 41.3824 41.8967 41.4496 41.6278C41.472 41.4933 41.5168 41.3365 41.5616 41.1348C41.584 41.0675 41.6064 41.0003 41.6064 40.9331C41.6736 40.6866 41.7409 40.4177 41.8081 40.1263C42.0321 39.2972 42.3234 38.2664 42.6595 37.0786C42.9059 36.2719 43.1748 35.4203 43.4885 34.524C43.6901 33.9189 43.9142 33.269 44.1606 32.6191C44.5863 31.4763 45.0568 30.2886 45.5721 29.1457C45.7514 28.7199 45.953 28.3165 46.1547 27.9131C46.558 27.084 46.9837 26.2548 47.4318 25.4929C47.5886 25.2016 47.7678 24.9327 47.9247 24.6638C48.1935 24.238 48.4624 23.8346 48.7537 23.4536L48.1039 23.476ZM11.9196 39.7902C11.718 39.835 11.5164 39.8798 11.3147 39.9471C9.99281 40.2608 8.69331 40.6194 8.69331 40.6194C8.58129 40.1039 8.44685 39.5885 8.31242 39.0731C8.11078 38.2888 7.88673 37.5044 7.66268 36.7649C7.05774 34.7481 6.43039 32.9105 5.80305 31.3194C5.60141 30.7816 5.39976 30.2886 5.19811 29.818C4.72761 28.6751 4.2795 27.689 3.89862 26.9047C3.69697 26.4341 3.49532 26.0531 3.33849 25.717C2.98001 24.9775 2.75596 24.5741 2.75596 24.5741L3.13684 24.4397L3.51773 24.3052L4.34672 24.0139L4.45874 23.9691C4.61558 24.3724 4.77242 24.7982 4.92925 25.2464C5.66862 27.2857 6.4528 29.7283 7.16976 32.0141V32.0365C7.68508 33.7172 8.15559 35.3083 8.55888 36.608C9.14141 38.6025 9.54471 39.9695 9.54471 39.9695C10.0152 39.7902 10.6874 39.7006 11.2923 39.6557C11.494 39.6333 11.718 39.6333 11.9196 39.6333C12.5694 39.6109 13.0399 39.6333 13.0399 39.6333C12.7038 39.6333 12.3229 39.723 11.9196 39.7902ZM14.317 38.2888C13.264 38.2663 12.3453 38.2888 11.6956 38.3112C11.4491 38.3112 11.2475 38.3336 11.0683 38.3336C10.777 38.356 10.5977 38.356 10.5977 38.356C10.4409 37.6613 10.2841 36.9666 10.1272 36.2943C8.46926 29.3698 6.65445 24.9327 5.69103 22.8934C5.26533 21.997 5.01887 21.5712 5.01887 21.5712L5.44457 21.4144L6.58723 21.0334C8.29002 26.2324 9.38787 29.8852 10.0824 32.4175C10.0824 32.4399 10.0824 32.4399 10.0824 32.4623C10.5529 34.2102 10.8666 35.3979 11.0459 36.2271C11.3147 37.4596 11.3371 37.8182 11.3371 37.8182C11.4043 37.8182 11.494 37.7957 11.5836 37.7957C12.4798 37.7285 13.376 37.7061 14.205 37.7509C17.4985 37.9078 20.232 38.7145 20.5904 38.8266C18.5068 38.4456 16.199 38.3112 14.317 38.2888ZM34.28 38.3112C32.4875 38.3336 30.3815 38.4904 28.4322 38.849C28.7683 38.7369 31.2553 37.9974 34.3472 37.7957C35.1762 37.7285 36.0276 37.7285 36.9238 37.7733C37.1254 37.7733 37.327 37.7958 37.5511 37.8182C37.5959 37.8182 37.6183 37.8182 37.6631 37.8182C37.6631 37.8182 37.6855 37.4596 37.9544 36.2271C38.4249 34.2102 39.5452 29.8628 42.4354 21.0558L43.1076 21.2799L44.0262 21.5936C44.0262 21.5936 43.4212 22.6469 42.5474 24.7758C41.5392 27.2184 40.1725 31.0281 38.9178 36.2943C38.761 36.9666 38.6041 37.6389 38.4473 38.356C38.4473 38.356 38.0888 38.3336 37.4839 38.3112C37.3046 38.2888 37.0806 38.2888 36.8565 38.2888C36.162 38.2888 35.2658 38.2664 34.28 38.3112ZM46.2219 24.6638C46.065 24.9551 45.5945 25.8515 44.9672 27.2184C44.788 27.6218 44.5863 28.0476 44.3847 28.5406C43.959 29.5042 43.5109 30.6247 43.0404 31.8572C42.8387 32.395 42.6371 32.9777 42.413 33.5828C42.0545 34.5912 41.7185 35.6444 41.3824 36.7649C41.0239 37.9974 40.6654 39.2748 40.3517 40.6194C40.3517 40.6194 40.2397 40.5969 40.0381 40.5521C39.5003 40.3953 38.3129 40.1039 37.2374 39.8574C37.0358 39.8126 36.8341 39.7678 36.6325 39.723C36.4308 39.6782 36.2068 39.6333 36.0276 39.6109C36.0276 39.6109 36.274 39.5885 36.6549 39.6109C36.8341 39.6109 37.0582 39.6109 37.2822 39.6333C38.0216 39.6557 38.9178 39.7454 39.5452 39.9695C39.5452 39.9695 39.926 38.6249 40.531 36.608C40.6206 36.3167 40.7102 36.003 40.7998 35.6893C41.4944 33.3811 42.3906 30.4454 43.2644 27.7563C43.4885 27.084 43.7125 26.4341 43.9366 25.8066C44.1606 25.1568 44.3847 24.5293 44.6087 23.9691L45.0568 24.1259L45.4377 24.2604L46.2667 24.5517L46.3115 24.5741C46.2891 24.5517 46.2667 24.5965 46.2219 24.6638Z" fill="white"/>
<path d="M49 12.9667V14.6923C48.5071 14.1993 47.947 13.7511 47.3644 13.3477C47.0956 13.1684 46.8267 13.0116 46.5578 12.8323C46.4234 12.7651 46.3114 12.6978 46.1769 12.6306C45.8857 12.4737 45.6168 12.3393 45.348 12.2048C45.2135 12.1376 45.1015 12.0928 44.9671 12.0255C44.6534 11.8911 44.3621 11.7566 44.0709 11.6446C42.9282 11.174 41.9424 10.8827 41.3823 10.7482C41.1134 10.681 40.9566 10.6362 40.9566 10.6362C40.8893 10.6137 40.8221 10.5913 40.7549 10.5913C39.9483 10.3672 39.1193 10.1656 38.3127 10.0087C33.6301 9.02267 28.7682 8.73134 24.6232 8.73134H24.5112C20.2318 8.70893 15.1907 9.02267 10.3736 10.0983C9.6342 10.2552 8.89483 10.4345 8.17787 10.6362C8.17787 10.6362 8.06584 10.6586 7.86419 10.7034C7.70736 10.7482 7.50572 10.793 7.23685 10.8602C6.5647 11.0619 5.60128 11.3757 4.57064 11.8239C4.27938 11.9583 3.9657 12.0928 3.67444 12.2496C3.54001 12.2945 3.42798 12.3617 3.29355 12.4289C3.02469 12.5858 2.73342 12.7202 2.46456 12.8995C2.33013 12.9667 2.21811 13.0564 2.08368 13.146C1.81482 13.3253 1.54595 13.5046 1.27709 13.6839C1.16507 13.7735 1.03063 13.8631 0.918608 13.9752C0.627341 14.1993 0.358481 14.4458 0.0896191 14.7147C0.067214 14.7371 0.0224051 14.7819 0 14.8043V13.0788C2.82305 10.1207 8.15546 8.91062 8.15546 8.91062C13.5999 7.40918 19.5597 7.00581 24.4888 7.02822H24.6008C29.5299 7.00581 35.4673 7.40918 40.9342 8.91062C40.979 8.91062 46.1545 10.0759 49 12.9667Z" fill="white"/>
<path d="M14.25 43.7119L15.5495 49.0454H18.9999V44.3394H24.5339H30.068L30.0456 49.0454H33.5184L34.8179 43.7119H14.25Z" fill="white"/>
<path d="M36.5874 45.4601C36.7442 44.6981 37.0803 44.4516 37.0803 44.4516C37.5508 43.9586 39.6793 44.0034 39.6793 44.0034L48.9998 44.4965C48.0588 43.7345 45.3926 43.3536 45.3926 43.3536C42.2783 42.995 39.1639 42.7261 36.0048 42.5244L34.4141 49.068H48.9774V47.9251L36.0496 47.5217L36.5874 45.4601Z" fill="white"/>
<path d="M12.4798 45.4601C12.323 44.6981 11.9869 44.4516 11.9869 44.4516C11.5164 43.9586 9.38791 44.0034 9.38791 44.0034L0.0673828 44.4965C1.0084 43.7345 3.6746 43.3536 3.6746 43.3536C6.78892 42.995 9.90323 42.7261 13.0624 42.5244L14.6531 49.068H0.0897859V47.9251L13.0175 47.5217L12.4798 45.4601Z" fill="white"/>
<path d="M28.4768 44.833V49.046L27.6254 48.7323L27.6702 45.2364L27.7598 45.1467L24.6007 45.1692L21.4416 45.1467L21.5312 45.2364L21.576 48.7323L20.7246 49.046V44.833L21.1279 45.0571V44.833H24.6007H28.0735V45.0571L28.4768 44.833Z" fill="white"/>
<path d="M34.7503 43.7128H34.6831V43.6904L34.7503 43.7128Z" fill="white"/>
<path d="M42.7264 41.0462L42.8832 39.9929L43.3985 36.3626L43.7122 35.8696L43.3313 38.4018L42.9728 40.8221C42.9728 40.8221 42.8832 41.2254 43.1297 41.203L48.9774 42.3011V42.6596L42.9504 41.4719C42.9728 41.4944 42.6816 41.4495 42.7264 41.0462ZM44.2947 35.6455L44.4292 34.7939L44.7652 34.2785L44.698 34.6594L43.8466 40.2618C43.8466 40.2618 43.8018 40.5531 44.0035 40.5756L48.9998 41.4944V41.8305L43.8466 40.8669C43.8466 40.8669 43.5554 40.7997 43.5778 40.3963L44.2947 35.6455ZM44.4964 39.6344L45.4822 33.1132L45.7959 32.6202L44.7428 39.4999C44.7428 39.4999 44.6756 39.8809 44.9221 39.8585L48.9774 40.598V40.9565L44.6756 40.1274C44.698 40.105 44.4292 39.9929 44.4964 39.6344ZM45.415 38.8724L46.5577 31.4101L46.8713 30.9395L45.6614 38.7604C45.6614 38.7604 45.5718 39.1638 45.8855 39.1638L48.9998 39.7464V40.105L45.6614 39.4327C45.6614 39.4327 45.3478 39.3654 45.415 38.8724Z" fill="white"/>
<path d="M46.9833 37.8863C46.9833 37.8863 46.8937 38.3345 47.3418 38.3569L48.9774 38.5138V38.962L46.8937 38.7155C46.8937 38.7155 46.3112 38.6034 46.356 38.1776L47.7003 30.8273L48.0364 29.0121L48.7309 27.9141L48.1708 31.1859L47.7899 33.4044L48.9774 33.875V34.1663L47.7227 33.6733L47.4538 35.1748L48.9774 35.7798V36.0487L47.409 35.4437L47.0281 37.6174L46.9833 37.8863Z" fill="white"/>
<path d="M6.31835 41.0462L6.16152 39.9929L5.6462 36.3626L5.33253 35.8696L5.71342 38.4018L6.0719 40.8221C6.0719 40.8221 6.16152 41.2254 5.91506 41.203L0.0673284 42.3011V42.6596L6.0943 41.4944C6.0943 41.4944 6.36316 41.4495 6.31835 41.0462ZM4.7724 35.6455L4.63797 34.7939L4.30189 34.2785L4.36911 34.6594L5.22051 40.2618C5.22051 40.2618 5.26531 40.5531 5.06367 40.5756L0.0673284 41.4944V41.8305L5.22051 40.8669C5.22051 40.8669 5.51177 40.7997 5.48937 40.3963L4.7724 35.6455ZM4.54835 39.6344L3.56252 33.1132L3.24885 32.6202L4.30189 39.4999C4.30189 39.4999 4.36911 39.8809 4.12265 39.8585L0.0673284 40.598V40.9565L4.36911 40.1274C4.36911 40.105 4.63797 39.9929 4.54835 39.6344ZM3.62974 38.8724L2.48708 31.4101L2.17341 30.9395L3.38328 38.7604C3.38328 38.7604 3.4729 39.1638 3.15923 39.1638L0.0449219 39.7464V40.105L3.38328 39.4327C3.40569 39.4327 3.71936 39.3654 3.62974 38.8724Z" fill="white"/>
<path d="M2.06144 37.8863C2.06144 37.8863 2.15106 38.3345 1.70295 38.3569L0.0673828 38.5138V38.962L2.15106 38.7155C2.15106 38.7155 2.73359 38.6034 2.68878 38.1776L1.34447 30.8273L1.0084 29.0121L0.313837 27.9141L0.873965 31.1859L1.25485 33.4044L0.0673828 33.875V34.1663L1.32207 33.6733L1.59093 35.1748L0.0673828 35.7798V36.0487L1.63574 35.4437L2.01663 37.6174L2.06144 37.8863Z" fill="white"/>
<path d="M19.0333 33.6727C19.3157 33.3444 19.2786 32.8491 18.9503 32.5666C18.622 32.2841 18.1269 32.3213 17.8444 32.6496C17.562 32.978 17.5991 33.4732 17.9274 33.7557C18.2557 34.0382 18.7508 34.001 19.0333 33.6727Z" fill="white"/>
<path d="M17.0617 31.7162C17.4297 31.4878 17.5429 31.0042 17.3145 30.6362C17.0861 30.2681 16.6027 30.1549 16.2347 30.3833C15.8667 30.6117 15.7535 31.0953 15.9819 31.4633C16.2102 31.8314 16.6937 31.9446 17.0617 31.7162Z" fill="white"/>
<path d="M15.7458 29.2569C16.1654 29.1494 16.4185 28.7221 16.3111 28.3025C16.2037 27.8828 15.7765 27.6297 15.3569 27.7371C14.9373 27.8446 14.6842 28.2718 14.7916 28.6915C14.8991 29.1112 15.3263 29.3643 15.7458 29.2569Z" fill="white"/>
<path d="M16.0646 25.7834C16.0881 25.3508 15.7566 24.9812 15.3241 24.9577C14.8917 24.9342 14.5221 25.2658 14.4986 25.6983C14.4751 26.1308 14.8066 26.5005 15.2391 26.524C15.6715 26.5475 16.0411 26.2159 16.0646 25.7834Z" fill="white"/>
<path d="M16.5822 23.3101C16.7344 22.9046 16.5291 22.4524 16.1236 22.3002C15.7182 22.148 15.2661 22.3533 15.1139 22.7589C14.9618 23.1644 15.1671 23.6166 15.5725 23.7688C15.978 23.921 16.43 23.7156 16.5822 23.3101Z" fill="white"/>
<path d="M17.8254 21.0881C18.0923 20.747 18.0321 20.254 17.691 19.9871C17.3499 19.7202 16.857 19.7803 16.5901 20.1215C16.3233 20.4627 16.3835 20.9556 16.7246 21.2226C17.0657 21.4895 17.5585 21.4293 17.8254 21.0881Z" fill="white"/>
<path d="M19.6663 19.3517C20.0233 19.1064 20.1138 18.6181 19.8686 18.261C19.6233 17.904 19.1351 17.8135 18.7782 18.0588C18.4212 18.3041 18.3307 18.7924 18.5759 19.1494C18.8212 19.5064 19.3094 19.597 19.6663 19.3517Z" fill="white"/>
<path d="M21.9615 18.241C22.3756 18.1142 22.6085 17.6756 22.4817 17.2614C22.3549 16.8472 21.9164 16.6142 21.5023 16.7411C21.0882 16.8679 20.8552 17.3065 20.982 17.7207C21.1089 18.1349 21.5474 18.3678 21.9615 18.241Z" fill="white"/>
<path d="M25.2424 17.1076C25.2457 16.6745 24.8973 16.3206 24.4642 16.3173C24.0311 16.3139 23.6774 16.6624 23.674 17.0955C23.6707 17.5287 24.0191 17.8826 24.4521 17.8859C24.8852 17.8893 25.239 17.5408 25.2424 17.1076Z" fill="white"/>
<path d="M27.9449 17.7927C28.078 17.3805 27.8519 16.9384 27.4398 16.8052C27.0278 16.672 26.5857 16.8982 26.4526 17.3103C26.3194 17.7225 26.5455 18.1646 26.9576 18.2978C27.3697 18.431 27.8117 18.2049 27.9449 17.7927Z" fill="white"/>
<path d="M30.329 19.2412C30.5797 18.888 30.4967 18.3984 30.1435 18.1476C29.7904 17.8968 29.3009 17.9799 29.0502 18.3331C28.7994 18.6863 28.8825 19.1759 29.2356 19.4267C29.5888 19.6775 30.0783 19.5944 30.329 19.2412Z" fill="white"/>
<path d="M32.1572 21.3439C32.5024 21.0822 32.5702 20.5903 32.3086 20.245C32.047 19.8998 31.5551 19.832 31.21 20.0936C30.8648 20.3553 30.797 20.8473 31.0586 21.1925C31.3202 21.5377 31.8121 21.6055 32.1572 21.3439Z" fill="white"/>
<path d="M33.2683 23.8952C33.6761 23.7492 33.8883 23.3003 33.7423 22.8924C33.5964 22.4846 33.1475 22.2723 32.7398 22.4183C32.332 22.5643 32.1198 23.0132 32.2657 23.4211C32.4117 23.8289 32.8606 24.0412 33.2683 23.8952Z" fill="white"/>
<path d="M33.5451 26.6581C33.9779 26.6412 34.3151 26.2767 34.2982 25.8439C34.2814 25.4111 33.917 25.0738 33.4842 25.0906C33.0515 25.1075 32.7143 25.472 32.7311 25.9048C32.7479 26.3376 33.1124 26.6749 33.5451 26.6581Z" fill="white"/>
<path d="M33.9605 28.8471C34.0744 28.4292 33.828 27.998 33.4101 27.8842C32.9923 27.7703 32.5612 28.0168 32.4474 28.4347C32.3335 28.8526 32.5799 29.2837 32.9978 29.3976C33.4156 29.5115 33.8467 29.265 33.9605 28.8471Z" fill="white"/>
<path d="M32.74 31.5921C32.974 31.2276 32.8683 30.7424 32.5039 30.5083C32.1395 30.2742 31.6544 30.3799 31.4204 30.7444C31.1863 31.1088 31.292 31.5941 31.6564 31.8282C32.0208 32.0622 32.5059 31.9565 32.74 31.5921Z" fill="white"/>
<path d="M30.7498 33.8459C31.0825 33.5685 31.1272 33.0739 30.8498 32.7412C30.5724 32.4085 30.0779 32.3637 29.7453 32.6412C29.4127 32.9186 29.3679 33.4132 29.6453 33.7459C29.9227 34.0786 30.4172 34.1234 30.7498 33.8459Z" fill="white"/>
<path d="M20.5038 31.6328C20.7136 31.3889 20.686 31.021 20.4421 30.8112C20.1983 30.6013 19.8305 30.6289 19.6207 30.8728C19.4108 31.1167 19.4384 31.4846 19.6823 31.6945C19.9262 31.9043 20.2939 31.8767 20.5038 31.6328Z" fill="white"/>
<path d="M19.061 30.2278C19.3343 30.0582 19.4184 29.699 19.2488 29.4255C19.0791 29.1521 18.72 29.068 18.4466 29.2377C18.1733 29.4074 18.0892 29.7666 18.2588 30.04C18.4285 30.3134 18.7876 30.3975 19.061 30.2278Z" fill="white"/>
<path d="M18.114 28.4327C18.4257 28.3529 18.6137 28.0355 18.5339 27.7237C18.4541 27.412 18.1368 27.2239 17.8251 27.3037C17.5134 27.3835 17.3254 27.701 17.4052 28.0127C17.485 28.3245 17.8024 28.5125 18.114 28.4327Z" fill="white"/>
<path d="M18.356 25.9013C18.3735 25.58 18.1272 25.3054 17.806 25.288C17.4847 25.2705 17.2102 25.5168 17.1927 25.8381C17.1753 26.1595 17.4216 26.4341 17.7428 26.4515C18.064 26.469 18.3386 26.2226 18.356 25.9013Z" fill="white"/>
<path d="M18.729 24.1111C18.8421 23.8098 18.6896 23.4739 18.3884 23.3609C18.0872 23.2478 17.7513 23.4003 17.6383 23.7016C17.5252 24.0029 17.6778 24.3387 17.979 24.4518C18.2802 24.5649 18.616 24.4123 18.729 24.1111Z" fill="white"/>
<path d="M19.6311 22.4808C19.8293 22.2274 19.7846 21.8612 19.5312 21.6629C19.2778 21.4646 18.9117 21.5093 18.7134 21.7628C18.5152 22.0162 18.5599 22.3824 18.8133 22.5807C19.0667 22.779 19.4328 22.7343 19.6311 22.4808Z" fill="white"/>
<path d="M20.9597 21.2262C21.2249 21.044 21.2922 20.6812 21.11 20.416C20.9278 20.1508 20.5651 20.0835 20.2999 20.2657C20.0348 20.448 19.9675 20.8107 20.1497 21.0759C20.3319 21.3411 20.6946 21.4084 20.9597 21.2262Z" fill="white"/>
<path d="M22.6203 20.4271C22.928 20.3328 23.101 20.007 23.0068 19.6993C22.9126 19.3916 22.5868 19.2186 22.2792 19.3128C21.9716 19.407 21.7985 19.7328 21.8927 20.0405C21.9869 20.3482 22.3127 20.5213 22.6203 20.4271Z" fill="white"/>
<path d="M25.0265 19.5943C25.029 19.2725 24.7702 19.0096 24.4484 19.0072C24.1267 19.0047 23.8639 19.2635 23.8614 19.5853C23.8589 19.9071 24.1177 20.17 24.4395 20.1725C24.7612 20.1749 25.024 19.9161 25.0265 19.5943Z" fill="white"/>
<path d="M27.0011 20.095C27.1 19.7888 26.932 19.4604 26.6259 19.3614C26.3198 19.2625 25.9914 19.4305 25.8925 19.7366C25.7936 20.0428 25.9615 20.3712 26.2677 20.4702C26.5738 20.5691 26.9021 20.4011 27.0011 20.095Z" fill="white"/>
<path d="M28.7218 21.139C28.908 20.8766 28.8464 20.5128 28.584 20.3266C28.3217 20.1403 27.958 20.202 27.7718 20.4644C27.5856 20.7267 27.6472 21.0905 27.9096 21.2767C28.1719 21.463 28.5355 21.4013 28.7218 21.139Z" fill="white"/>
<path d="M30.0454 22.6911C30.3018 22.4967 30.3522 22.1313 30.1578 21.8748C29.9635 21.6183 29.5981 21.568 29.3417 21.7623C29.0853 21.9567 29.035 22.3222 29.2293 22.5786C29.4236 22.8351 29.789 22.8854 30.0454 22.6911Z" fill="white"/>
<path d="M30.8473 24.5385C31.1502 24.43 31.3079 24.0965 31.1995 23.7936C31.0911 23.4906 30.7576 23.3329 30.4547 23.4413C30.1518 23.5498 29.9941 23.8833 30.1026 24.1863C30.211 24.4892 30.5444 24.6469 30.8473 24.5385Z" fill="white"/>
<path d="M31.0502 26.546C31.3716 26.5335 31.6221 26.2628 31.6096 25.9412C31.5971 25.6197 31.3264 25.3692 31.0049 25.3817C30.6834 25.3942 30.433 25.6649 30.4455 25.9865C30.458 26.308 30.7287 26.5585 31.0502 26.546Z" fill="white"/>
<path d="M31.3763 28.1319C31.4609 27.8215 31.2778 27.5012 30.9674 27.4166C30.657 27.332 30.3368 27.5151 30.2523 27.8256C30.1677 28.136 30.3507 28.4563 30.6611 28.5409C30.9715 28.6255 31.2917 28.4424 31.3763 28.1319Z" fill="white"/>
<path d="M30.4762 30.1453C30.6501 29.8746 30.5716 29.5141 30.3009 29.3402C30.0302 29.1663 29.6698 29.2449 29.496 29.5156C29.3221 29.7864 29.4006 30.1468 29.6713 30.3207C29.942 30.4946 30.3024 30.4161 30.4762 30.1453Z" fill="white"/>
<path d="M29.0242 31.7649C29.2713 31.5588 29.3045 31.1914 29.0984 30.9443C28.8924 30.6971 28.525 30.6639 28.278 30.87C28.0309 31.0761 27.9976 31.4435 28.2037 31.6906C28.4097 31.9378 28.7771 31.971 29.0242 31.7649Z" fill="white"/>
<path d="M21.934 29.6324C22.0631 29.4823 22.0461 29.256 21.8961 29.1268C21.746 28.9977 21.5197 29.0146 21.3905 29.1647C21.2614 29.3148 21.2784 29.5412 21.4285 29.6704C21.5785 29.7995 21.8049 29.7825 21.934 29.6324Z" fill="white"/>
<path d="M21.0274 28.7396C21.1956 28.6352 21.2474 28.4141 21.143 28.2459C21.0386 28.0776 20.8176 28.0259 20.6493 28.1303C20.4811 28.2347 20.4294 28.4557 20.5338 28.624C20.6382 28.7923 20.8592 28.844 21.0274 28.7396Z" fill="white"/>
<path d="M20.4362 27.6107C20.628 27.5616 20.7437 27.3663 20.6946 27.1744C20.6455 26.9826 20.4502 26.8669 20.2584 26.916C20.0666 26.9651 19.9509 27.1604 20 27.3522C20.0491 27.5441 20.2444 27.6598 20.4362 27.6107Z" fill="white"/>
<path d="M20.5679 26.0246C20.5786 25.8269 20.427 25.6579 20.2293 25.6472C20.0317 25.6364 19.8627 25.788 19.852 25.9857C19.8412 26.1835 19.9928 26.3525 20.1905 26.3632C20.3882 26.3739 20.5571 26.2224 20.5679 26.0246Z" fill="white"/>
<path d="M20.8167 24.8782C20.8863 24.6928 20.7924 24.4861 20.6071 24.4166C20.4217 24.347 20.2151 24.4408 20.1455 24.6262C20.0759 24.8116 20.1698 25.0183 20.3551 25.0879C20.5405 25.1575 20.7472 25.0636 20.8167 24.8782Z" fill="white"/>
<path d="M21.3798 23.8519C21.5018 23.6959 21.4743 23.4706 21.3184 23.3485C21.1624 23.2265 20.9371 23.254 20.8151 23.41C20.6931 23.5659 20.7206 23.7913 20.8766 23.9133C21.0325 24.0353 21.2578 24.0078 21.3798 23.8519Z" fill="white"/>
<path d="M22.222 23.0589C22.3852 22.9467 22.4266 22.7235 22.3144 22.5603C22.2023 22.3971 21.9791 22.3557 21.816 22.4678C21.6528 22.58 21.6114 22.8032 21.7235 22.9664C21.8356 23.1296 22.0588 23.171 22.222 23.0589Z" fill="white"/>
<path d="M23.2754 22.5661C23.4647 22.5081 23.5711 22.3076 23.5132 22.1182C23.4552 21.9289 23.2548 21.8224 23.0654 21.8804C22.8761 21.9383 22.7696 22.1388 22.8276 22.3282C22.8856 22.5175 23.0861 22.624 23.2754 22.5661Z" fill="white"/>
<path d="M24.8008 22.0454C24.8023 21.8474 24.643 21.6856 24.4451 21.6841C24.2471 21.6826 24.0853 21.8419 24.0838 22.0399C24.0823 22.2379 24.2416 22.3997 24.4395 22.4012C24.6375 22.4027 24.7993 22.2434 24.8008 22.0454Z" fill="white"/>
<path d="M26.0395 22.3422C26.1004 22.1538 25.997 21.9517 25.8086 21.8908C25.6203 21.8299 25.4182 21.9333 25.3573 22.1217C25.2964 22.3101 25.3998 22.5123 25.5882 22.5731C25.7765 22.634 25.9786 22.5307 26.0395 22.3422Z" fill="white"/>
<path d="M27.1105 23.0153C27.2251 22.8539 27.1872 22.63 27.0257 22.5154C26.8643 22.4008 26.6405 22.4387 26.5259 22.6002C26.4113 22.7617 26.4492 22.9855 26.6107 23.1001C26.7721 23.2148 26.9959 23.1768 27.1105 23.0153Z" fill="white"/>
<path d="M27.9614 23.9878C28.1192 23.8682 28.1502 23.6433 28.0306 23.4854C27.911 23.3276 27.6862 23.2966 27.5284 23.4162C27.3706 23.5359 27.3396 23.7608 27.4592 23.9186C27.5788 24.0764 27.8036 24.1074 27.9614 23.9878Z" fill="white"/>
<path d="M28.4663 25.1559C28.6527 25.0892 28.7498 24.8839 28.683 24.6975C28.6163 24.511 28.4111 24.414 28.2247 24.4807C28.0383 24.5475 27.9413 24.7527 28.008 24.9391C28.0747 25.1256 28.2799 25.2226 28.4663 25.1559Z" fill="white"/>
<path d="M28.5994 26.4106C28.7972 26.4029 28.9514 26.2363 28.9437 26.0384C28.936 25.8406 28.7694 25.6864 28.5716 25.6941C28.3737 25.7018 28.2196 25.8684 28.2273 26.0663C28.235 26.2641 28.4016 26.4183 28.5994 26.4106Z" fill="white"/>
<path d="M28.7928 27.4295C28.8449 27.2385 28.7322 27.0414 28.5412 26.9893C28.3502 26.9373 28.1531 27.0499 28.1011 27.241C28.049 27.432 28.1617 27.6291 28.3527 27.6812C28.5437 27.7332 28.7408 27.6206 28.7928 27.4295Z" fill="white"/>
<path d="M28.2145 28.6825C28.3214 28.5159 28.2731 28.2941 28.1066 28.1871C27.94 28.0801 27.7182 28.1284 27.6112 28.295C27.5042 28.4616 27.5525 28.6834 27.7191 28.7904C27.8857 28.8975 28.1075 28.8491 28.2145 28.6825Z" fill="white"/>
<path d="M27.3171 29.7068C27.4691 29.58 27.4896 29.3539 27.3628 29.2018C27.2359 29.0497 27.0099 29.0293 26.8578 29.1561C26.7058 29.2829 26.6853 29.509 26.8121 29.6611C26.9389 29.8132 27.165 29.8337 27.3171 29.7068Z" fill="white"/>
<path d="M26.5499 33.5612H22.2481C22.1585 33.5612 22.0688 33.494 22.0688 33.3819V32.3287C22.0688 32.2391 22.1361 32.1494 22.2481 32.1494H26.5499C26.6395 32.1494 26.7291 32.2166 26.7291 32.3287V33.3819C26.7291 33.4716 26.6395 33.5612 26.5499 33.5612Z" fill="white"/>
<path d="M26.1691 35.22H22.6291C22.5618 35.22 22.4946 35.1528 22.4946 35.0856V34.2116C22.4946 34.1444 22.5618 34.0771 22.6291 34.0771H26.1691C26.2363 34.0771 26.3035 34.1444 26.3035 34.2116V35.0856C26.3035 35.1528 26.2587 35.22 26.1691 35.22Z" fill="white"/>
<path d="M25.6312 36.5646H23.1667C23.0994 36.5646 23.0322 36.4973 23.0322 36.4301V35.8923C23.0322 35.825 23.0994 35.7578 23.1667 35.7578H25.6312C25.6984 35.7578 25.7656 35.825 25.7656 35.8923V36.4301C25.7656 36.4973 25.6984 36.5646 25.6312 36.5646Z" fill="white"/>
<path d="M24.3545 26.345C24.3545 26.345 23.9512 25.0452 22.5845 25.2245C22.5845 25.2245 22.9654 26.5691 24.1976 26.7484V32.1715H24.6009V26.7035C24.6009 26.7035 26.2589 26.3674 26.5726 24.1264C26.5726 24.1264 24.6906 24.0368 24.3545 26.345ZM24.4441 26.8156C24.1528 26.2553 23.5927 25.852 23.5927 25.852C24.1528 26.0985 24.3769 26.4794 24.3769 26.4794C24.6009 25.8072 25.3627 25.2245 25.3627 25.2245C24.6233 26.0313 24.4441 26.8156 24.4441 26.8156Z" fill="white"/>
<path d="M24.4214 8.05885V1.24635C24.4214 1.24635 24.2646 1.15671 24.5335 0.932617C24.5335 0.932617 24.7799 1.1343 24.6455 1.24635V8.05885H24.4214Z" fill="white"/>
<path d="M29.4624 3.75705V4.76548C27.894 3.82428 26.3257 5.70668 24.7573 4.76548V3.75705C26.3257 4.69825 27.894 2.81585 29.4624 3.75705Z" fill="white"/>
<path d="M24.7573 1.44846V2.45689C26.3257 3.39809 27.894 1.51569 29.4624 2.45689V1.44846C27.894 0.507258 26.3257 2.38966 24.7573 1.44846ZM25.6983 2.59135C25.6759 2.59135 25.6535 2.59135 25.6311 2.59135C25.4295 2.59135 25.2502 2.36725 25.2502 2.16556C25.2502 1.96388 25.4071 1.82942 25.6311 1.85183C25.6535 1.85183 25.6759 1.85183 25.6983 1.85183C25.5191 1.87424 25.3847 2.0087 25.3847 2.18797C25.3847 2.36725 25.5191 2.54653 25.6983 2.59135ZM25.8776 2.56894C25.8552 2.56894 25.8552 2.54653 25.8328 2.54653C25.8104 2.56894 25.8104 2.56894 25.788 2.59135C25.788 2.56894 25.788 2.54653 25.8104 2.54653C25.788 2.54653 25.788 2.52412 25.7656 2.52412H25.8104C25.8104 2.50171 25.8104 2.4793 25.8328 2.4793C25.8328 2.50171 25.8328 2.50171 25.8552 2.52412C25.8776 2.52412 25.9 2.52412 25.9 2.52412C25.8776 2.52412 25.8776 2.54653 25.8552 2.56894C25.8776 2.54653 25.8776 2.54653 25.8776 2.56894ZM26.1913 2.54653C26.1689 2.54653 26.1688 2.52412 26.1464 2.52412C26.124 2.52412 26.124 2.54653 26.1016 2.56894C26.1016 2.54653 26.1016 2.52412 26.124 2.52412C26.1016 2.52412 26.1016 2.50171 26.0792 2.50171C26.1016 2.50171 26.124 2.50171 26.124 2.50171C26.124 2.4793 26.124 2.45689 26.1464 2.45689C26.1464 2.4793 26.1464 2.4793 26.1689 2.50171C26.1913 2.50171 26.2137 2.50171 26.2137 2.50171C26.1913 2.50171 26.1913 2.52412 26.1689 2.54653C26.1689 2.50171 26.1913 2.52412 26.1913 2.54653ZM26.1689 2.18797C26.1689 2.21038 26.1689 2.21038 26.1913 2.23279C26.1689 2.23279 26.1688 2.21038 26.1464 2.21038C26.124 2.23279 26.124 2.23279 26.1016 2.2552C26.1016 2.23279 26.1016 2.21038 26.124 2.21038C26.1016 2.21038 26.1016 2.18797 26.0792 2.18797C26.1016 2.18797 26.124 2.18797 26.124 2.18797C26.124 2.16556 26.124 2.14316 26.1464 2.14316C26.1464 2.16556 26.1464 2.16556 26.1689 2.18797C26.1913 2.18797 26.2137 2.18797 26.2137 2.18797C26.2137 2.16556 26.1913 2.16556 26.1689 2.18797ZM26.5049 2.4793C26.4825 2.4793 26.4825 2.45689 26.4601 2.45689C26.4377 2.4793 26.4377 2.4793 26.4153 2.50171C26.4153 2.4793 26.4153 2.45689 26.4377 2.45689C26.4153 2.45689 26.4153 2.43448 26.3929 2.43448C26.4153 2.43448 26.4377 2.43448 26.4377 2.43448C26.4377 2.41207 26.4377 2.38966 26.4601 2.36725C26.4601 2.38966 26.4825 2.38966 26.4825 2.41207C26.5049 2.41207 26.5273 2.41207 26.5273 2.38966C26.5049 2.41207 26.5049 2.41207 26.4825 2.43448C26.4825 2.43448 26.4825 2.45689 26.5049 2.4793ZM26.4825 2.12075C26.4825 2.14316 26.4825 2.14316 26.5049 2.16556C26.4825 2.16556 26.4825 2.14316 26.4601 2.14316C26.4377 2.16556 26.4377 2.16556 26.4153 2.18797C26.4153 2.16556 26.4153 2.14316 26.4377 2.14316C26.4153 2.14316 26.4153 2.12075 26.3929 2.12075C26.4153 2.12075 26.4377 2.12075 26.4377 2.12075C26.4377 2.09834 26.4377 2.07593 26.4601 2.07593C26.4601 2.09834 26.4825 2.09834 26.4825 2.12075C26.5049 2.12075 26.5273 2.12075 26.5273 2.09834C26.5049 2.09834 26.5049 2.12075 26.4825 2.12075ZM26.4825 1.82942C26.4825 1.85183 26.4825 1.85183 26.5049 1.87424C26.4825 1.87424 26.4825 1.85183 26.4601 1.85183C26.4377 1.87424 26.4377 1.87424 26.4153 1.89665C26.4153 1.87424 26.4153 1.85183 26.4377 1.85183C26.4153 1.85183 26.4153 1.82942 26.3929 1.82942C26.4153 1.82942 26.4377 1.82942 26.4377 1.82942C26.4377 1.80701 26.4377 1.7846 26.4601 1.76219C26.4601 1.7846 26.4825 1.7846 26.4825 1.80701C26.5049 1.80701 26.5273 1.80701 26.5273 1.7846C26.5049 1.7846 26.5049 1.80701 26.4825 1.82942ZM26.8186 2.38966C26.7962 2.38966 26.7962 2.38966 26.7738 2.36725C26.7514 2.38966 26.7514 2.38966 26.729 2.41207C26.729 2.38966 26.729 2.36725 26.7514 2.36725C26.729 2.36725 26.729 2.34484 26.7066 2.34484C26.729 2.34484 26.7514 2.34484 26.7514 2.32243C26.7514 2.30002 26.7514 2.27761 26.7738 2.2552C26.7738 2.27761 26.7962 2.27761 26.7962 2.30002C26.8186 2.30002 26.841 2.30002 26.841 2.27761C26.8186 2.30002 26.8186 2.30002 26.7962 2.32243C26.7962 2.36725 26.7962 2.38966 26.8186 2.38966ZM26.7962 2.05352C26.7962 2.07593 26.7962 2.07593 26.8186 2.09834C26.7962 2.09834 26.7962 2.07593 26.7738 2.07593C26.7514 2.09834 26.7514 2.09834 26.729 2.12075C26.729 2.09834 26.729 2.07593 26.7514 2.05352C26.729 2.05352 26.729 2.03111 26.7066 2.03111C26.729 2.03111 26.7514 2.03111 26.7514 2.0087C26.7514 1.98629 26.7514 1.96388 26.7738 1.96388C26.7738 1.98629 26.7962 1.98629 26.7962 2.0087C26.8186 2.0087 26.841 2.0087 26.841 1.98629C26.8186 2.0087 26.7962 2.03111 26.7962 2.05352ZM26.7962 1.73978C26.7962 1.76219 26.7962 1.76219 26.8186 1.7846C26.7962 1.7846 26.7962 1.76219 26.7738 1.76219C26.7514 1.7846 26.7514 1.7846 26.729 1.80701C26.729 1.7846 26.729 1.76219 26.7514 1.76219C26.729 1.76219 26.729 1.73978 26.7066 1.73978C26.729 1.73978 26.7514 1.73978 26.7514 1.71737C26.7514 1.69496 26.7514 1.67255 26.7738 1.65015C26.7738 1.67255 26.7962 1.67255 26.7962 1.69496C26.8186 1.69496 26.841 1.69496 26.841 1.67255C26.8186 1.71737 26.7962 1.73978 26.7962 1.73978ZM27.1099 2.30002C27.0875 2.30002 27.0875 2.30002 27.0651 2.27761C27.0427 2.30002 27.0426 2.30002 27.0202 2.32243C27.0202 2.30002 27.0202 2.27761 27.0426 2.2552C27.0202 2.2552 27.0202 2.23279 26.9978 2.23279C27.0202 2.23279 27.0426 2.23279 27.0426 2.21038C27.0426 2.18797 27.0427 2.16556 27.0651 2.14316C27.0651 2.16556 27.0875 2.16556 27.0875 2.18797C27.1099 2.18797 27.1323 2.18797 27.1323 2.16556C27.1099 2.18797 27.1099 2.18797 27.0875 2.21038C27.1099 2.27761 27.1099 2.27761 27.1099 2.30002ZM27.0875 1.96388C27.0875 1.98629 27.1099 1.98629 27.1099 2.0087C27.0875 2.0087 27.0875 1.98629 27.0651 1.98629C27.0427 2.0087 27.0426 2.0087 27.0202 2.03111C27.0202 2.0087 27.0202 1.98629 27.0426 1.98629C27.0202 1.98629 27.0202 1.96388 26.9978 1.96388C27.0202 1.96388 27.0426 1.96388 27.0426 1.94147C27.0426 1.91906 27.0427 1.89665 27.0651 1.87424C27.0651 1.89665 27.0875 1.89665 27.0875 1.91906C27.1099 1.91906 27.1323 1.91906 27.1323 1.89665L27.0875 1.96388ZM27.0875 1.65015C27.0875 1.67255 27.1099 1.67255 27.1099 1.69496C27.0875 1.69496 27.0875 1.69496 27.0651 1.67255C27.0427 1.69496 27.0426 1.69496 27.0202 1.71737C27.0202 1.69496 27.0202 1.67255 27.0426 1.65015C27.0202 1.65015 27.0202 1.62774 26.9978 1.62774C27.0202 1.62774 27.0426 1.62774 27.0426 1.60533C27.0426 1.58292 27.0427 1.56051 27.0651 1.5381C27.0651 1.56051 27.0875 1.56051 27.0875 1.58292C27.1099 1.58292 27.1323 1.58292 27.1323 1.56051C27.1323 1.62774 27.1099 1.62774 27.0875 1.65015Z" fill="white"/>
<path d="M29.4624 2.59104V3.59947C27.894 2.65827 26.3257 4.54067 24.7573 3.59947V2.59104C26.3257 3.53224 27.894 1.64984 29.4624 2.59104Z" fill="white"/>
<path d="M66.8984 42.0684V24.3027H69.8164V34.5098H70.0156L74.7383 29.2598H78.1133L72.957 34.6738L78.4648 42.0684H74.9492L70.8359 36.5254L69.8164 37.5684V42.0684H66.8984ZM85.5312 42.3262C81.6875 42.3262 79.3672 39.8184 79.3672 35.6699V35.6465C79.3672 31.5332 81.7227 29.0137 85.5312 29.0137C89.3516 29.0137 91.6953 31.5215 91.6953 35.6465V35.6699C91.6953 39.8184 89.3633 42.3262 85.5312 42.3262ZM85.5312 39.959C87.5586 39.959 88.707 38.377 88.707 35.6816V35.6582C88.707 32.9629 87.5469 31.3691 85.5312 31.3691C83.5039 31.3691 82.3438 32.9629 82.3438 35.6582V35.6816C82.3438 38.377 83.5039 39.959 85.5312 39.959ZM94.625 42.0684V29.2598H97.543V31.2168H97.7422C98.3516 29.8457 99.582 29.0137 101.434 29.0137C104.293 29.0137 105.852 30.7363 105.852 33.7832V42.0684H102.934V34.4629C102.934 32.4707 102.125 31.4629 100.355 31.4629C98.6211 31.4629 97.543 32.6816 97.543 34.6035V42.0684H94.625ZM114.336 42.127C111.395 42.127 110.188 41.1426 110.188 38.6699V31.5215H108.195V29.2598H110.188V26.1191H113.152V29.2598H115.859V31.5215H113.152V37.9785C113.152 39.2559 113.656 39.7949 114.875 39.7949C115.285 39.7949 115.508 39.7832 115.859 39.748V41.998C115.438 42.0801 114.898 42.127 114.336 42.127ZM118.766 42.0684V29.2598H121.684V31.2285H121.883C122.316 29.8574 123.488 29.0488 125.176 29.0488C125.621 29.0488 126.078 29.1074 126.359 29.1895V31.8027C125.891 31.709 125.41 31.6387 124.906 31.6387C122.961 31.6387 121.684 32.7988 121.684 34.627V42.0684H118.766ZM132.078 42.2793C129.641 42.2793 127.871 40.7793 127.871 38.4473V38.4238C127.871 36.1387 129.617 34.8027 132.734 34.6152L136.027 34.416V33.3145C136.027 32.0371 135.195 31.334 133.625 31.334C132.289 31.334 131.422 31.8145 131.129 32.6582L131.117 32.7051H128.363L128.375 32.5996C128.656 30.4434 130.719 29.0137 133.766 29.0137C137.059 29.0137 138.91 30.6074 138.91 33.3145V42.0684H136.027V40.3105H135.828C135.125 41.5527 133.766 42.2793 132.078 42.2793ZM130.754 38.3066C130.754 39.3965 131.68 40.041 132.969 40.041C134.727 40.041 136.027 38.8926 136.027 37.3691V36.3379L133.145 36.5254C131.516 36.6309 130.754 37.2285 130.754 38.2832V38.3066ZM142.531 42.0684V24.3027H145.449V34.5098H145.648L150.371 29.2598H153.746L148.59 34.6738L154.098 42.0684H150.582L146.469 36.5254L145.449 37.5684V42.0684H142.531ZM161.211 42.127C158.27 42.127 157.062 41.1426 157.062 38.6699V31.5215H155.07V29.2598H157.062V26.1191H160.027V29.2598H162.734V31.5215H160.027V37.9785C160.027 39.2559 160.531 39.7949 161.75 39.7949C162.16 39.7949 162.383 39.7832 162.734 39.748V41.998C162.312 42.0801 161.773 42.127 161.211 42.127ZM167.809 42.3027C166.742 42.3027 165.945 41.4941 165.945 40.4512C165.945 39.4082 166.742 38.5996 167.809 38.5996C168.887 38.5996 169.672 39.4082 169.672 40.4512C169.672 41.4941 168.887 42.3027 167.809 42.3027ZM178.555 42.3262C174.746 42.3262 172.438 39.7715 172.438 35.6934V35.6816C172.438 31.6504 174.77 29.0137 178.414 29.0137C182.059 29.0137 184.309 31.5684 184.309 35.4355V36.3965H175.355C175.391 38.6934 176.633 40.0293 178.613 40.0293C180.195 40.0293 181.098 39.2324 181.379 38.6465L181.414 38.5645H184.191L184.156 38.6699C183.746 40.3223 182.035 42.3262 178.555 42.3262ZM178.449 31.2988C176.82 31.2988 175.602 32.4004 175.379 34.4395H181.461C181.262 32.3418 180.078 31.2988 178.449 31.2988ZM191.844 42.2793C188.633 42.2793 186.594 39.7363 186.594 35.6816V35.6582C186.594 31.5801 188.598 29.0488 191.844 29.0488C193.602 29.0488 195.066 29.916 195.734 31.2988H195.934V24.3027H198.863V42.0684H195.934V40.0645H195.734C195.031 41.459 193.648 42.2793 191.844 42.2793ZM192.758 39.8184C194.75 39.8184 195.98 38.248 195.98 35.6816V35.6582C195.98 33.0918 194.738 31.5098 192.758 31.5098C190.777 31.5098 189.559 33.0801 189.559 35.6582V35.6816C189.559 38.2598 190.766 39.8184 192.758 39.8184ZM206.773 42.3262C203.891 42.3262 202.414 40.5918 202.414 37.5449V29.2598H205.332V36.877C205.332 38.8574 206.07 39.8652 207.828 39.8652C209.715 39.8652 210.723 38.6465 210.723 36.7246V29.2598H213.641V42.0684H210.723V40.123H210.523C209.926 41.4941 208.625 42.3262 206.773 42.3262ZM219.371 42.3027C218.305 42.3027 217.508 41.4941 217.508 40.4512C217.508 39.4082 218.305 38.5996 219.371 38.5996C220.449 38.5996 221.234 39.4082 221.234 40.4512C221.234 41.4941 220.449 42.3027 219.371 42.3027ZM229.344 42.3262C226.461 42.3262 224.984 40.5918 224.984 37.5449V29.2598H227.902V36.877C227.902 38.8574 228.641 39.8652 230.398 39.8652C232.285 39.8652 233.293 38.6465 233.293 36.7246V29.2598H236.211V42.0684H233.293V40.123H233.094C232.496 41.4941 231.195 42.3262 229.344 42.3262ZM239.48 42.0684V40.2871L246.312 31.7207V31.5215H239.539V29.2598H249.758V31.2051L243.172 39.6074V39.8184H249.863V42.0684H239.48Z" fill="white"/>
</svg>
